/* XPM */
static char * aero48_xpm[] = {
"48 48 374 2",
"  	c None",
". 	c #C4C4FE",
"+ 	c #BEBDFD",
"@ 	c #BEBEFE",
"# 	c #B9B9FE",
"$ 	c #8686FE",
"% 	c #8686FF",
"& 	c #9494FE",
"* 	c #BDBDFE",
"= 	c #CFD0FE",
"- 	c #AEACFB",
"; 	c #AEAEFF",
"> 	c #8888FF",
", 	c #8080FF",
"' 	c #8B8BFE",
") 	c #9999FE",
"! 	c #D0D0FE",
"~ 	c #D0D0FF",
"{ 	c #D0CFFE",
"] 	c #CFCFFE",
"^ 	c #AAAAFE",
"/ 	c #9999FF",
"( 	c #7F7FFE",
"_ 	c #9292FE",
": 	c #ACADFE",
"< 	c #ADADFE",
"[ 	c #DEDFFD",
"} 	c #E4E4FD",
"| 	c #E4E5FE",
"1 	c #A9A9FF",
"2 	c #BEBEFF",
"3 	c #E0E0FF",
"4 	c #E8E8FE",
"5 	c #E0E0FE",
"6 	c #B2B2FE",
"7 	c #A9A9FE",
"8 	c #9B9BFE",
"9 	c #9899FE",
"0 	c #9D9DFE",
"a 	c #C9C9FE",
"b 	c #D4D4FE",
"c 	c #E1E1FE",
"d 	c #ACACFE",
"e 	c #8282FE",
"f 	c #8181FE",
"g 	c #8A8AFE",
"h 	c #8D8DFE",
"i 	c #D9ECEC",
"j 	c #D9EBEA",
"k 	c #D5EAEA",
"l 	c #6AB4B4",
"m 	c #69B3B4",
"n 	c #AED6D6",
"o 	c #D9EBEB",
"p 	c #D9EBEC",
"q 	c #B9DCDC",
"r 	c #A3D1D1",
"s 	c #4AA4A4",
"t 	c #359A9A",
"u 	c #007F7F",
"v 	c #008080",
"w 	c #299494",
"x 	c #45A2A2",
"y 	c #41A0A0",
"z 	c #329899",
"A 	c #49A4A4",
"B 	c #51A8A8",
"C 	c #1F8E8D",
"D 	c #4DA6A6",
"E 	c #65B2B2",
"F 	c #C3E1E1",
"G 	c #D4E9E9",
"H 	c #C6E1E2",
"I 	c #329898",
"J 	c #128989",
"K 	c #86C3C3",
"L 	c #98CCCC",
"M 	c #DBEDED",
"N 	c #86C2C2",
"O 	c #E1F0F0",
"P 	c #92C9C9",
"Q 	c #68B3B3",
"R 	c #178B8B",
"S 	c #158A8A",
"T 	c #068383",
"U 	c #098484",
"V 	c #3D9E9E",
"W 	c #78BCBC",
"X 	c #E7F3F3",
"Y 	c #D5FBCA",
"Z 	c #D4FAC9",
"` 	c #A6D3D3",
" .	c #379B9B",
"..	c #0F8787",
"+.	c #309797",
"@.	c #58ABAB",
"#.	c #80C0C0",
"$.	c #C7E3E3",
"%.	c #D1E7E7",
"&.	c #BDF9AC",
"*.	c #BDF6A6",
"=.	c #74F24D",
"-.	c #6BF244",
";.	c #5FF135",
">.	c #41EE0F",
",.	c #42EF10",
"'.	c #6AF243",
").	c #B7F8A4",
"!.	c #BDF8AC",
"~.	c #D1FAC5",
"{.	c #D6EAEA",
"].	c #5AACAC",
"^.	c #118888",
"/.	c #0A8585",
"(.	c #EDFDE9",
"_.	c #A5F78E",
":.	c #85F262",
"<.	c #51F024",
"[.	c #46EF15",
"}.	c #48EF18",
"|.	c #6EF248",
"1.	c #9BF680",
"2.	c #E0FCD8",
"3.	c #EDFCE8",
"4.	c #EDFDE8",
"5.	c #CAF9BD",
"6.	c #9AF580",
"7.	c #7DF35A",
"8.	c #53F025",
"9.	c #8BF46D",
"0.	c #A5F78D",
"a.	c #CEF9C1",
"b.	c #EBF4F5",
"c.	c #E6F2F2",
"d.	c #A2D0D0",
"e.	c #77BABB",
"f.	c #47A3A3",
"g.	c #57F02B",
"h.	c #60F137",
"i.	c #AEF899",
"j.	c #E3FCDC",
"k.	c #C6F9B7",
"l.	c #B2F79E",
"m.	c #A8F691",
"n.	c #43EF12",
"o.	c #5AF12F",
"p.	c #8BF46E",
"q.	c #99F67E",
"r.	c #E0FCD7",
"s.	c #CBFABD",
"t.	c #EFFDEA",
"u.	c #B4B4B4",
"v.	c #B3B3B3",
"w.	c #C8C8C8",
"x.	c #CEFAC1",
"y.	c #8CF56E",
"z.	c #78F355",
"A.	c #58F02D",
"B.	c #73F34E",
"C.	c #87F467",
"D.	c #C8FAB9",
"E.	c #CAFABC",
"F.	c #4D4D4D",
"G.	c #252525",
"H.	c #242424",
"I.	c #000000",
"J.	c #0A0A0A",
"K.	c #939393",
"L.	c #E2E2E2",
"M.	c #C2F9B2",
"N.	c #91F573",
"O.	c #5DF132",
"P.	c #42EF11",
"Q.	c #A3F78B",
"R.	c #B8F9A5",
"S.	c #BDBDBD",
"T.	c #090909",
"U.	c #191919",
"V.	c #454545",
"W.	c #666666",
"X.	c #7D7D7D",
"Y.	c #555555",
"Z.	c #0D0D0D",
"`.	c #0B0B0B",
" +	c #030303",
".+	c #040404",
"++	c #737373",
"@+	c #909090",
"#+	c #E3E3E3",
"$+	c #D4FBC9",
"%+	c #A9F792",
"&+	c #91F574",
"*+	c #56F02A",
"=+	c #4BEF1C",
"-+	c #45EF14",
";+	c #91F575",
">+	c #A6F68E",
",+	c #E9FCE4",
"'+	c #E9FBE3",
")+	c #3C3C3C",
"!+	c #808080",
"~+	c #787878",
"{+	c #565656",
"]+	c #3D3D3D",
"^+	c #1E1E1E",
"/+	c #4E4E4E",
"(+	c #696969",
"_+	c #C2C2C2",
":+	c #DDFCD4",
"<+	c #C1F9B0",
"[+	c #A2F68A",
"}+	c #BFBFBF",
"|+	c #797979",
"1+	c #6E6E6E",
"2+	c #515151",
"3+	c #2E2E2E",
"4+	c #101010",
"5+	c #2D2D2D",
"6+	c #BBBBBB",
"7+	c #E6FBE0",
"8+	c #D8FBCE",
"9+	c #B4F7A1",
"0+	c #82C0C0",
"a+	c #000202",
"b+	c #646464",
"c+	c #7F7F7F",
"d+	c #7A7A7A",
"e+	c #060606",
"f+	c #070707",
"g+	c #121212",
"h+	c #CACACA",
"i+	c #2AFDFC",
"j+	c #0BFEFE",
"k+	c #5E8484",
"l+	c #2A2A2A",
"m+	c #2B2B2B",
"n+	c #303030",
"o+	c #404040",
"p+	c #686868",
"q+	c #707070",
"r+	c #5D5D5D",
"s+	c #383838",
"t+	c #151515",
"u+	c #212121",
"v+	c #656565",
"w+	c #D0D0D0",
"x+	c #4EFFFF",
"y+	c #ACFEFE",
"z+	c #989898",
"A+	c #161616",
"B+	c #202020",
"C+	c #262626",
"D+	c #585858",
"E+	c #5F5F5F",
"F+	c #333333",
"G+	c #141414",
"H+	c #2F2F2F",
"I+	c #AEAEAE",
"J+	c #E5E5E5",
"K+	c #E6E6E6",
"L+	c #DDDDDD",
"M+	c #878787",
"N+	c #6F6F6F",
"O+	c #6A6E6C",
"P+	c #323232",
"Q+	c #424242",
"R+	c #484848",
"S+	c #373737",
"T+	c #959595",
"U+	c #9D9D9D",
"V+	c #8F8F8F",
"W+	c #6A6A6A",
"X+	c #005E5E",
"Y+	c #52FEFE",
"Z+	c #6FFEFE",
"`+	c #B0B0B0",
" @	c #B0AFAE",
".@	c #656464",
"+@	c #406363",
"@@	c #40FEFE",
"#@	c #FEF2E5",
"$@	c #FEE5CB",
"%@	c #FEE4CB",
"&@	c #FE9E3C",
"*@	c #FE8E1D",
"=@	c #FE7F00",
"-@	c #FE9830",
";@	c #FEAC58",
">@	c #FED5AB",
",@	c #FED4AB",
"'@	c #FED4AA",
")@	c #FEECDB",
"!@	c #FEB973",
"~@	c #FEBD7C",
"{@	c #FEF1E3",
"]@	c #FEF0E2",
"^@	c #FEEFE2",
"/@	c #FDF0E2",
"(@	c #FEE4C8",
"_@	c #FE9327",
":@	c #FE8204",
"<@	c #FE8810",
"[@	c #FE8D1B",
"}@	c #FEC080",
"|@	c #FEC58B",
"1@	c #FEEAD5",
"2@	c #FEC993",
"3@	c #FEC994",
"4@	c #FEB66D",
"5@	c #FE9225",
"6@	c #FE9021",
"7@	c #FE972E",
"8@	c #FEDAB4",
"9@	c #FEA953",
"0@	c #FEC7C7",
"a@	c #FEA2A2",
"b@	c #FE5858",
"c@	c #FE5757",
"d@	c #FEB4B4",
"e@	c #FEC6C6",
"f@	c #FEC5C6",
"g@	c #FEE2E2",
"h@	c #FE0000",
"i@	c #FE4E4E",
"j@	c #FE4040",
"k@	c #FE1B1B",
"l@	c #FE3737",
"m@	c #FE4D4D",
"n@	c #FEA6A6",
"o@	c #FEA5A6",
"p@	c #FEC4C4",
"q@	c #FEE2DC",
"r@	c #FEE7E7",
"s@	c #FEE6E7",
"t@	c #FE8080",
"u@	c #FE7878",
"v@	c #FE3131",
"w@	c #FE0909",
"x@	c #FE0A0A",
"y@	c #FE1717",
"z@	c #FE8686",
"A@	c #FEAEAE",
"B@	c #FD9798",
"C@	c #FE9898",
"D@	c #FE2929",
"E@	c #E0BEBA",
"F@	c #E0C2C2",
"G@	c #DEBEBE",
"H@	c #A95253",
"I@	c #A95353",
"J@	c #AC5959",
"K@	c #E0C1C2",
"L@	c #7F0000",
"M@	c #9B3737",
"N@	c #AE5C5C",
"O@	c #972F2F",
"P@	c #952A2A",
"Q@	c #993232",
"R@	c #983232",
"S@	c #B06161",
"T@	c #CEA1A1",
"U@	c #D0A2A2",
"V@	c #F5EBEB",
"W@	c #F4EBEB",
"X@	c #F4ECEB",
"Y@	c #F3EBEB",
"Z@	c #E6CDCD",
"`@	c #BE7D7D",
" #	c #8E1D1E",
".#	c #860D0D",
"+#	c #840909",
"@#	c #881010",
"##	c #EEDFE0",
"$#	c #CC9C9C",
"                                                                                                ",
"                                                                                                ",
"                                                                                                ",
"            . + @ @ # $ $ % % % % % % % $ $ $ $ $ & * * * =                                     ",
"- ; > , , , ' ) ) ) ) * ! ~ ~ ~ { ] { ! ! ! ! ! ! ^ / / ) $ ( ( ( _ : : < [ } |                 ",
"1 1 2 3 3 3                                               4 5 5 5 6 7 7 8 ( ( ( 9 0 0 a b b     ",
"                                                                              c # # d e e f g h ",
"                  i i j j k l l m m m l l n o o p                                           a a ",
"    q q r s s s t u u u u v w x x x x x y v v v v z A B q q i                                   ",
"w C u u u D E E E F k k k k               G G G H E E I u u J w w K L M                         ",
"N N O                                                       P N Q R S T U V W L X               ",
"                  Y Y Y Y Y Y Y Z                                     ` ` y  ...u +.@.#.$.%.    ",
"        &.*.=.-.;.>.>.>.>.,.,.,.,.'.-.-.).!.~.                                {.$.].@.^.u /. . .",
"(._.:.<.[.}.|.1.1.2.(.(.3.3.3.4.5.6.6.7.}.}.}.8.8.9.0.a.                              b.c.d.e.f.",
",.g.h.i.j.                                  k.l.m.h.h.n.>.o.p.q.r.r.                            ",
"s.t.          u.u.u.u.u.u.v.v.w.                      x.s.y.z.A.>.>.B.C.D.E.                    ",
"      w.F.G.H.I.I.I.I.I.I.I.I.J.H.G.G.F.K.K.L.                t.j.M.N.O.>.P.O.O.Q.R.            ",
"    S.T.U.V.V.W.X.X.X.X.X.X.X.Y.V.V.V.U.Z.`. +.+++@+#+                    $+%+&+*+=+-+-+;+>+,+'+",
"    H.)+!+!+!+!+!+!+!+!+!+!+!+!+!+!+!+!+!+~+{+]+^+T.I./+(+_+                      :+<+[+|.8.>.>.",
"  }+I.|+!+!+!+!+!+!+!+!+!+!+!+!+!+!+!+!+!+!+!+!+!+1+2+3+4+I.5+++6+                        7+8+9+",
"  0+a+]+b+|+c+!+!+!+!+!+!+!+!+!+!+!+!+!+!+!+!+!+!+!+!+!+d+b+]+e+f+g+|+h+                        ",
"i+j+k+l+I.I.m+n+o+p+p+p+q+!+!+!+!+!+!+!+!+!+!+!+!+!+!+!+c+c+c+c+r+s+t+I.u+v+w+                  ",
"x+y+    S.z+/+/+A+I.I.I.`.B+B+B+B+C+D+D+D+D+D+(+!+!+!+!+c+c+c+c+c+c+X.E+F+G+I.H+o+I+J+          ",
"                K+L+L+L+M+N+O+N+N+P+I.I.I.I.I.f+4+4+4+4+4+4+Q+R+R+R+R+R+++~+W.S+B+I.t+R+T+      ",
"                                              U+V+V+V+V+V+W+B+B+B+B+B+U.I.I.I.I.I.I.I.I.I.X+Y+Z+",
"                                                                        `+`+`+`+`+ @.@o+o++@@@@@",
"                                                                                                ",
"                                                                                                ",
"      #@$@$@$@%@%@%@%@%@%@$@$@$@$@$@$@                                                          ",
"&@&@&@*@=@=@=@=@=@=@=@=@=@=@=@=@=@=@=@-@&@&@&@&@&@;@>@,@'@'@,@)@                                ",
"!@!@!@~@{@{@]@]@]@]@]@^@^@^@/@{@{@{@(@!@!@!@!@!@!@_@:@:@:@:@:@<@[@[@[@[@[@}@|@|@|@|@1@          ",
"                                                              2@3@3@3@3@4@5@5@5@5@6@=@=@=@=@=@7@",
"                                                                                    8@8@8@8@8@9@",
"                                                                                                ",
"                                                                                                ",
"0@0@0@0@0@a@b@b@c@d@e@e@f@e@e@0@0@0@0@0@g@                                                      ",
"h@h@h@h@h@h@i@b@j@h@h@h@h@h@h@h@h@h@h@h@k@l@l@l@l@l@l@l@m@n@n@n@n@n@o@o@p@                      ",
"q@r@r@r@r@r@      s@s@s@s@s@r@r@r@r@r@r@t@u@u@u@u@u@u@u@v@w@w@w@w@w@w@w@x@y@y@y@y@y@y@y@m@z@z@z@",
"                                                                        A@B@C@C@C@C@C@C@v@D@D@D@",
"                                                                                                ",
"                                                                                                ",
"                                                                                                ",
"E@F@F@F@F@F@F@F@F@F@F@F@F@G@H@H@I@I@I@I@J@F@F@F@F@F@F@F@F@F@K@F@F@                              ",
"L@L@L@L@L@L@L@L@L@L@L@L@L@L@M@N@N@N@N@N@O@L@L@L@L@L@L@L@L@L@L@L@L@P@Q@R@R@R@Q@Q@S@T@U@U@U@U@U@  ",
"    V@W@W@W@W@W@W@W@W@W@W@W@                    X@X@X@Y@W@W@W@V@Z@`@`@`@`@`@`@`@ #.#.#.#.#.#+#@#",
"                                                                                            ##$#",
"                                                                                                ",
"                                                                                                "};
