/* XPM */
static char * brakes32_xpm[] = {
"32 32 564 2",
"  	c None",
". 	c #E4E5E3",
"+ 	c #DDDEDC",
"@ 	c #DADAD8",
"# 	c #D8D8D6",
"$ 	c #E3E3E3",
"% 	c #EBEBEB",
"& 	c #D6D9D5",
"* 	c #B3B6B2",
"= 	c #A2A6A0",
"- 	c #9BA096",
"; 	c #94998F",
"> 	c #939791",
", 	c #939794",
"' 	c #959995",
") 	c #9B9E9E",
"! 	c #A4A7A6",
"~ 	c #B7BAB9",
"{ 	c #D0D3D2",
"] 	c #CCCECC",
"^ 	c #9A9D9B",
"/ 	c #7F847F",
"( 	c #818781",
"_ 	c #8B918A",
": 	c #919791",
"< 	c #939993",
"[ 	c #919793",
"} 	c #999E9C",
"| 	c #999F9C",
"1 	c #979C9A",
"2 	c #8A8F8E",
"3 	c #939896",
"4 	c #A0A5A4",
"5 	c #C8CACA",
"6 	c #868B87",
"7 	c #828783",
"8 	c #858A85",
"9 	c #8C918D",
"0 	c #999E9A",
"a 	c #969A98",
"b 	c #A1A5A4",
"c 	c #9B9F9E",
"d 	c #979B9A",
"e 	c #999D9C",
"f 	c #999E9D",
"g 	c #989E9C",
"h 	c #B5B7B7",
"i 	c #E7E7E7",
"j 	c #E0E4E1",
"k 	c #909692",
"l 	c #7D837F",
"m 	c #7A7F7B",
"n 	c #7D827E",
"o 	c #7F8581",
"p 	c #808581",
"q 	c #878C88",
"r 	c #949995",
"s 	c #9BA09D",
"t 	c #A0A4A3",
"u 	c #9FA3A2",
"v 	c #9EA2A1",
"w 	c #A0A4A2",
"x 	c #959998",
"y 	c #949998",
"z 	c #9BA4A1",
"A 	c #979E9C",
"B 	c #A0A3A2",
"C 	c #DBDBDB",
"D 	c #DFE3DE",
"E 	c #959A96",
"F 	c #777C78",
"G 	c #7B807C",
"H 	c #797E7A",
"I 	c #848985",
"J 	c #818682",
"K 	c #8F9490",
"L 	c #959A97",
"M 	c #A0A5A2",
"N 	c #A1A6A3",
"O 	c #AAAFAB",
"P 	c #A6AAA8",
"Q 	c #A2A8A6",
"R 	c #9BA09F",
"S 	c #ABAEAD",
"T 	c #D6D9D8",
"U 	c #8E938D",
"V 	c #7D827D",
"W 	c #7C817D",
"X 	c #747975",
"Y 	c #787D79",
"Z 	c #767B77",
"` 	c #7A807B",
" .	c #80857D",
"..	c #838881",
"+.	c #858982",
"@.	c #949790",
"#.	c #A4A7A1",
"$.	c #AFB4B0",
"%.	c #A2A7A3",
"&.	c #AFB4B1",
"*.	c #9CA09F",
"=.	c #A7ABAA",
"-.	c #969A99",
";.	c #A8ACAB",
">.	c #A5A9A8",
",.	c #A6AAA9",
"'.	c #E2E2E2",
").	c #B0B3B0",
"!.	c #838883",
"~.	c #757A75",
"{.	c #717672",
"].	c #717571",
"^.	c #737772",
"/.	c #6B7068",
"(.	c #61675D",
"_.	c #6A7066",
":.	c #787A73",
"<.	c #84857F",
"[.	c #8B8C86",
"}.	c #9CA09A",
"|.	c #B9BDB7",
"1.	c #C5CAC6",
"2.	c #B5BBB9",
"3.	c #A6ADAB",
"4.	c #A8AEAC",
"5.	c #ACB2B0",
"6.	c #9DA3A1",
"7.	c #A6ACAA",
"8.	c #ACB2B1",
"9.	c #B6B9B9",
"0.	c #CDCFCD",
"a.	c #858A86",
"b.	c #6F746F",
"c.	c #656861",
"d.	c #5B5E56",
"e.	c #62665C",
"f.	c #787D74",
"g.	c #858A82",
"h.	c #8C8F8A",
"i.	c #949693",
"j.	c #A0A29F",
"k.	c #B9BBB8",
"l.	c #BFC1BE",
"m.	c #C8CBC9",
"n.	c #C8CECD",
"o.	c #B0B9B6",
"p.	c #AEB7B4",
"q.	c #A2ABA8",
"r.	c #B5BEBB",
"s.	c #ABB4B1",
"t.	c #A8B1AE",
"u.	c #9AA3A0",
"v.	c #C9CECD",
"w.	c #A3A5A4",
"x.	c #7F8480",
"y.	c #777C76",
"z.	c #6A7067",
"A.	c #60655C",
"B.	c #55594E",
"C.	c #6D7067",
"D.	c #858883",
"E.	c #919691",
"F.	c #898E89",
"G.	c #909390",
"H.	c #979996",
"I.	c #A5A7A4",
"J.	c #C5C7C6",
"K.	c #DDDEDD",
"L.	c #E3E4E3",
"M.	c #CFD0D0",
"N.	c #CAD0CE",
"O.	c #C3CBC8",
"P.	c #B8C1BE",
"Q.	c #B7C0BD",
"R.	c #99A29F",
"S.	c #B4BDBA",
"T.	c #B6BFBC",
"U.	c #B7BCBA",
"V.	c #E3E6E3",
"W.	c #979C98",
"X.	c #8B908C",
"Y.	c #80847F",
"Z.	c #787D78",
"`.	c #767B74",
" +	c #5E6158",
".+	c #4D5047",
"++	c #71756D",
"@+	c #7B8079",
"#+	c #A6ABA5",
"$+	c #D3D7D4",
"%+	c #939691",
"&+	c #9EA09E",
"*+	c #B0B2B3",
"=+	c #D8D9D8",
"-+	c #E5E5E4",
";+	c #E7E8E8",
">+	c #E4E5E5",
",+	c #AEB1B0",
"'+	c #B7BCB9",
")+	c #AEB4B0",
"!+	c #BCC2BF",
"~+	c #C1CAC7",
"{+	c #BDC6C3",
"]+	c #BAC0BE",
"^+	c #C1C5C4",
"/+	c #DADDDC",
"(+	c #C4C8C5",
"_+	c #9EA4A0",
":+	c #888D87",
"<+	c #7A7F79",
"[+	c #6F746D",
"}+	c #494C44",
"|+	c #5F6259",
"1+	c #787C75",
"2+	c #7B807A",
"3+	c #868B86",
"4+	c #8D928E",
"5+	c #939692",
"6+	c #A4A5A4",
"7+	c #BFC0C2",
"8+	c #E5E5E6",
"9+	c #E6E7E7",
"0+	c #CBCDCC",
"a+	c #ADB0AE",
"b+	c #919592",
"c+	c #B3B8B4",
"d+	c #BEC5C1",
"e+	c #B3BCB9",
"f+	c #B0B5B4",
"g+	c #C6CAC9",
"h+	c #CDD0CF",
"i+	c #B5B9B5",
"j+	c #A0A5A1",
"k+	c #9EA39F",
"l+	c #979C97",
"m+	c #7C817A",
"n+	c #686C65",
"o+	c #494C43",
"p+	c #74766F",
"q+	c #787C77",
"r+	c #797E79",
"s+	c #818580",
"t+	c #8F928F",
"u+	c #B9BDBA",
"v+	c #DADCD9",
"w+	c #E5E7E6",
"x+	c #E3E4E5",
"y+	c #E1E1E0",
"z+	c #BEBFBD",
"A+	c #B1B3B1",
"B+	c #9EA19D",
"C+	c #878C86",
"D+	c #9A9F9B",
"E+	c #ADB3B0",
"F+	c #ADB4B1",
"G+	c #C8D0CC",
"H+	c #C3C9C7",
"I+	c #B1B7B5",
"J+	c #C4C8C7",
"K+	c #EBECEA",
"L+	c #A4A8A4",
"M+	c #A8ADA9",
"N+	c #8E938F",
"O+	c #7F847C",
"P+	c #52574D",
"Q+	c #656860",
"R+	c #777A75",
"S+	c #868A87",
"T+	c #C6C6C6",
"U+	c #C5C5C2",
"V+	c #B1B2AE",
"W+	c #ACAEAA",
"X+	c #92968D",
"Y+	c #8D9389",
"Z+	c #858A84",
"`+	c #989D99",
" @	c #A9AEAA",
".@	c #ADB2AE",
"+@	c #B3BBB8",
"@@	c #BDC4C2",
"#@	c #E5E8E7",
"$@	c #E5E5E3",
"%@	c #AAAEAA",
"&@	c #A4AAA6",
"*@	c #ACB1AD",
"=@	c #8F9390",
"-@	c #7C827A",
";@	c #4A4F45",
">@	c #7A7D75",
",@	c #7E807C",
"'@	c #787C78",
")@	c #A8ACA9",
"!@	c #CFD0CC",
"~@	c #8F908C",
"{@	c #90938E",
"]@	c #8C8F86",
"^@	c #898E84",
"/@	c #919692",
"(@	c #A5AAA6",
"_@	c #B0B5B1",
":@	c #B1B9B6",
"<@	c #BCC4C1",
"[@	c #BCC3C1",
"}@	c #E0E2E1",
"|@	c #E3E3E2",
"1@	c #A5A8A6",
"2@	c #A8ADAA",
"3@	c #A4A9A5",
"4@	c #949C97",
"5@	c #868B85",
"6@	c #54584D",
"7@	c #81847B",
"8@	c #83857F",
"9@	c #80837F",
"0@	c #848784",
"a@	c #C4C6C4",
"b@	c #E6E8E7",
"c@	c #8A8E8B",
"d@	c #8B8F8A",
"e@	c #888D83",
"f@	c #868C82",
"g@	c #7C817B",
"h@	c #929793",
"i@	c #909591",
"j@	c #969B97",
"k@	c #999F9B",
"l@	c #A4AAA7",
"m@	c #B5BBB8",
"n@	c #DCE0DF",
"o@	c #9CA2A0",
"p@	c #9CA19D",
"q@	c #969F99",
"r@	c #8E938E",
"s@	c #5F6256",
"t@	c #86897F",
"u@	c #B4B6AF",
"v@	c #B2B4B0",
"w@	c #90928F",
"x@	c #C9CAC8",
"y@	c #E0E3E2",
"z@	c #838986",
"A@	c #848A80",
"B@	c #83897F",
"C@	c #818680",
"D@	c #9BA09C",
"E@	c #ADB3AF",
"F@	c #DDE2E1",
"G@	c #E9E9EA",
"H@	c #A7AAA9",
"I@	c #A0A6A3",
"J@	c #AAB2AC",
"K@	c #818681",
"L@	c #61645A",
"M@	c #888B81",
"N@	c #ADB0A9",
"O@	c #AAACA8",
"P@	c #959793",
"Q@	c #B9BAB8",
"R@	c #BFC3C1",
"S@	c #848984",
"T@	c #82877E",
"U@	c #81867D",
"V@	c #828782",
"W@	c #8A8F8B",
"X@	c #888D89",
"Y@	c #9EA39E",
"Z@	c #9EA3A0",
"`@	c #E1E4E4",
" #	c #AEB1B1",
".#	c #848987",
"+#	c #939795",
"@#	c #A1A6A2",
"##	c #6D726B",
"$#	c #979993",
"%#	c #A7A9A4",
"&#	c #B5B8B2",
"*#	c #B3B5B1",
"=#	c #D9DBDA",
"-#	c #CCCDCC",
";#	c #8F938E",
">#	c #89908A",
",#	c #D2D6D3",
"'#	c #9FA39F",
")#	c #81877E",
"!#	c #999E99",
"~#	c #919690",
"{#	c #A6A9A5",
"]#	c #BEC1C0",
"^#	c #919695",
"/#	c #9DA1A0",
"(#	c #A5AAA8",
"_#	c #949996",
":#	c #878B85",
"<#	c #6F7268",
"[#	c #9D9F99",
"}#	c #A9ABA8",
"|#	c #AEB0AE",
"1#	c #C3C5C3",
"2#	c #C9CBC9",
"3#	c #C9CBCA",
"4#	c #CFD3D1",
"5#	c #D0D4D4",
"6#	c #B9BEBD",
"7#	c #909895",
"8#	c #838A84",
"9#	c #858B85",
"0#	c #9DA29E",
"a#	c #8A8E8A",
"b#	c #838884",
"c#	c #898E8A",
"d#	c #9BA09A",
"e#	c #B3B7B2",
"f#	c #E1E2E2",
"g#	c #939695",
"h#	c #8A8D8C",
"i#	c #8B8F8D",
"j#	c #6C6F66",
"k#	c #8A8D82",
"l#	c #B3B5B2",
"m#	c #C1C2C3",
"n#	c #CBCCCE",
"o#	c #C3C5C5",
"p#	c #ABADAC",
"q#	c #9A9E9C",
"r#	c #8E9390",
"s#	c #878F8A",
"t#	c #838A83",
"u#	c #838882",
"v#	c #949793",
"w#	c #989B97",
"x#	c #CDCFCC",
"y#	c #A0A2A1",
"z#	c #949897",
"A#	c #929795",
"B#	c #92948E",
"C#	c #A8ABA5",
"D#	c #C1C3C0",
"E#	c #C3C4C4",
"F#	c #B7B9B8",
"G#	c #B1B3B2",
"H#	c #C2C6C3",
"I#	c #8C918C",
"J#	c #848983",
"K#	c #959895",
"L#	c #999B98",
"M#	c #CFD0CF",
"N#	c #8A8E8D",
"O#	c #888C8B",
"P#	c #888D8A",
"Q#	c #8B8F8C",
"R#	c #97999A",
"S#	c #8E908D",
"T#	c #6D7066",
"U#	c #969991",
"V#	c #B4B6B2",
"W#	c #AFB1AF",
"X#	c #C1C4C2",
"Y#	c #8B8F8B",
"Z#	c #8B908B",
"`#	c #828482",
" $	c #BCBDBB",
".$	c #A4A5A5",
"+$	c #868A89",
"@$	c #8D9190",
"#$	c #858987",
"$$	c #828580",
"%$	c #797C73",
"&$	c #7A7D73",
"*$	c #8A8C84",
"=$	c #989992",
"-$	c #949690",
";$	c #91948E",
">$	c #8D908A",
",$	c #737874",
"'$	c #9C9D9C",
")$	c #E4E5E4",
"!$	c #939897",
"~$	c #8B908E",
"{$	c #808483",
"]$	c #939796",
"^$	c #868988",
"/$	c #959697",
"($	c #9A9C99",
"_$	c #909288",
":$	c #818378",
"<$	c #77786E",
"[$	c #72746B",
"}$	c #6F726A",
"|$	c #D4D4D4",
"1$	c #C7C9C9",
"2$	c #909493",
"3$	c #8A908E",
"4$	c #8C918F",
"5$	c #808382",
"6$	c #8E9291",
"7$	c #838684",
"8$	c #8D908E",
"9$	c #91958E",
"0$	c #9B9E98",
"a$	c #959894",
"b$	c #7F827F",
"c$	c #8D928F",
"d$	c #8E928F",
"e$	c #888A87",
"f$	c #8C8E8B",
"g$	c #BABCB9",
"h$	c #CFD1D0",
"i$	c #898C8B",
"j$	c #767A79",
"k$	c #7C807F",
"l$	c #858988",
"m$	c #7F8381",
"n$	c #8E928E",
"o$	c #7B807B",
"p$	c #8A8D89",
"q$	c #828380",
"r$	c #C3C3C1",
"s$	c #CACACB",
"t$	c #8F9190",
"u$	c #7A7E7D",
"v$	c #868B89",
"w$	c #797D7C",
"x$	c #898E8B",
"y$	c #868A88",
"z$	c #878B87",
"A$	c #939592",
"B$	c #BBBCB9",
"C$	c #E9EAEA",
"D$	c #898E8C",
"E$	c #7E8581",
"F$	c #737B76",
"G$	c #7B827E",
"H$	c #7F8382",
"I$	c #6F7372",
"J$	c #818584",
"K$	c #838786",
"L$	c #878B89",
"M$	c #737974",
"N$	c #848A85",
"O$	c #777976",
"P$	c #91938F",
"Q$	c #A3A49F",
"R$	c #DBDCD6",
"S$	c #D3D5D5",
"T$	c #9C9F9D",
"U$	c #727673",
"V$	c #787C79",
"W$	c #7B807E",
"X$	c #7D817E",
"Y$	c #676C67",
"Z$	c #7E817B",
"`$	c #82847D",
" %	c #80827D",
".%	c #929491",
"+%	c #CDCECC",
"@%	c #DBDCDA",
"#%	c #838685",
"$%	c #838584",
"%%	c #828582",
"&%	c #838682",
"*%	c #838581",
"=%	c #8A8B86",
"-%	c #A7A7A3",
";%	c #DDDEDB",
"                          . + @ # @ $ %                         ",
"                    & * = - ; > , ' ) ! ~ {                     ",
"                ] ^ / ( _ : < [ } | 1 1 2 3 4 5                 ",
"              * 6 7 7 6 8 9 0 a b c d c d e f g h i             ",
"          j k l m n o p q 9 r s t u v w x e y z A B C           ",
"        D E F G F H p I J I K L s M N O P b t Q R t S T         ",
"        U V W H G X Y Z `  ...+.@.#.$.%.&.*.=.-.;.>.=.,.'.      ",
"      ).!.~.I m F {.].^./.(._.:.<.[.}.|.1.2.3.4.5.6.7.8.9.      ",
"    0.a.q p W G b.~.c.d.e.f.g.h.i.j.k.l.m.n.o.p.q.r.s.t.u.v.    ",
"    w.7 a.J x.y.z.A.B.C.D.E.F.G.H.I.J.K.L.M.N.O.P.Q.R.S.T.U.    ",
"  V.r W.X.Y.Z.`. +.+++@+#+$+9 %+&+*+=+-+;+>+,+'+)+!+~+{+]+^+/+  ",
"  (+_+9 K :+<+[+}+|+1+2+3+r 4+5+6+7+8+'.9+0+a+b+c+d+e+P.f+g+h+  ",
"  i+j+k+l+!.m+n+o+p+q+r+s+t+u+v+w+x+% y+z+A+B+C+D+E+F+G+H+I+J+  ",
"K+L+E M+W.N+O+P+Q+R+Y Y S+T+          U+V+W+X+Y+Z+`+ @.@+@e+@@#@",
"$@%@&@*@=@k -@;@>@,@'@G )@            !@~@{@]@^@2+/@(@_@:@<@[@}@",
"|@1@2@O 3@4@5@6@7@8@9@0@a@            b@c@d@e@f@g@h@i@j@k@l@m@n@",
"$ ! o@p@O q@r@s@t@u@v@w@x@            y@z@8 A@B@C@h@W.D@j+ @E@F@",
"G@H@I@O M+J@K@L@M@N@O@P@Q@            R@7 S@T@U@V@q W@N+X@Y@Z@`@",
"   #.#t +#*@@###t@$#%#&#*#=#        -#;#>#,#'#)#C+h@W@h@!#~#{#% ",
"  ]#^#/#(#_#p@:#<#[#}#|#1#2#3#4#5#6#7#8#9#0#a#)#U i@b#c#!.d#e#  ",
"  f#g#h#i#j+@#9 j#k#l#m#n#o#p#q#h@r#s#t#u#!.V@3+V@6 9 h@v#w#x#  ",
"    y#z#A#4+r , B#C.C#D#E#F#G#H#i@I#C+J#J#J#/ K 9 X.W X@K#L#    ",
"    M#N#O#P#W.Q#R#S#T#U#V#|#W#X#N+Y#3+5@V 2+Z#N+x.X@i@X.`# $    ",
"      .$+$N#N#@$d #$$$%$&$*$=$-$;$>$m ,$J 9 K@X.9 S+W h@'$$     ",
"      )$!$~${$]$^$]$/$($_$:$<$[$}$p+J x.W@b#c#6 7 N+i@j@|$      ",
"        1$2$3$4$5$6$7$8$G.9$0$a$b$' c$Q#d$X@X.c@e$f$H.g$        ",
"          h$i$j$O#k$l$@$m$n$o$X.h@i@k$2$m$K p p$f$q$r$          ",
"            s$t$+$u${$v$w$O#{$x${.X.6$]$y$N+z$S#A$B$            ",
"              C$(#D$E$F$G$H$I$J$K$L$M$N$z$O$P$Q$R$              ",
"                  S$T$U$V$W$k$X$Y$Z.Z$`$ %.%+%                  ",
"                      @%'$#%$%%%&%*%=%-%;%                      ",
"                                                                "};
