/* XPM */
static const char * car16_xpm[] = {
"16 16 80 1",
" 	c None",
".	c #D9D8D9",
"+	c #C4BEBF",
"@	c #BDB9BB",
"#	c #BAADB2",
"$	c #CEC5C9",
"%	c #DBD4D7",
"&	c #ECE8EA",
"*	c #99969A",
"=	c #696968",
"-	c #72676E",
";	c #566270",
">	c #546572",
",	c #50606F",
"'	c #51626E",
")	c #5E6874",
"!	c #EBE9EA",
"~	c #C1757C",
"{	c #B57A86",
"]	c #856C73",
"^	c #765A68",
"/	c #4E4B5A",
"(	c #454654",
"_	c #3F3B4A",
":	c #4D3C4B",
"<	c #593D4A",
"[	c #846069",
"}	c #E3D5D7",
"|	c #987473",
"1	c #C8616D",
"2	c #CA6370",
"3	c #C2606E",
"4	c #B55D6B",
"5	c #942E3D",
"6	c #822433",
"7	c #802736",
"8	c #7F2433",
"9	c #832735",
"0	c #922436",
"a	c #964855",
"b	c #CDC4C3",
"c	c #A3999C",
"d	c #BB626E",
"e	c #C75D69",
"f	c #9B575D",
"g	c #87595E",
"h	c #B9535D",
"i	c #7C454E",
"j	c #72414E",
"k	c #6F2532",
"l	c #8A1A24",
"m	c #81232E",
"n	c #792434",
"o	c #7C5F60",
"p	c #E4E4E4",
"q	c #E6DFE0",
"r	c #CA9FA5",
"s	c #997376",
"t	c #93888A",
"u	c #A93944",
"v	c #873239",
"w	c #70232B",
"x	c #7A1620",
"y	c #6A0F19",
"z	c #581118",
"A	c #47131A",
"B	c #715053",
"C	c #D5D3D6",
"D	c #817E80",
"E	c #945359",
"F	c #873E44",
"G	c #61252D",
"H	c #631922",
"I	c #37161B",
"J	c #563637",
"K	c #776465",
"L	c #BEB4B6",
"M	c #E0E0E0",
"N	c #EAE7E6",
"O	c #DFDADA",
"                ",
"                ",
"                ",
"                ",
"                ",
"   .+@#$%       ",
" &*=-;>,')!     ",
" ~{]^/(_:<[}    ",
" |1234567890ab  ",
" cdefghijklmno  ",
" pqrstuvwxyzAB  ",
"    CDEFGHIJKL  ",
"     M NO       ",
"                ",
"                ",
"                "};
