/* XPM */
static char * car48_xpm[] = {
"48 48 604 2",
"  	c None",
". 	c #BBBBBB",
"+ 	c #C6C5C5",
"@ 	c #DCDADB",
"# 	c #DAD9DA",
"$ 	c #D4D3D4",
"% 	c #CECDCE",
"& 	c #D3D0D2",
"* 	c #D8D0D5",
"= 	c #D8D1D6",
"- 	c #C9BDC0",
"; 	c #E4E3E4",
"> 	c #D2CFD2",
", 	c #959093",
"' 	c #968E91",
") 	c #8E7D80",
"! 	c #7E6B6F",
"~ 	c #645559",
"{ 	c #60565A",
"] 	c #62595F",
"^ 	c #746970",
"/ 	c #654F58",
"( 	c #5B3F47",
"_ 	c #58373F",
": 	c #62424B",
"< 	c #775F6A",
"[ 	c #806A75",
"} 	c #8E7983",
"| 	c #AE9FA4",
"1 	c #A89BA1",
"2 	c #CDC8C9",
"3 	c #CBCCCE",
"4 	c #808588",
"5 	c #C6C9CE",
"6 	c #6B676C",
"7 	c #716467",
"8 	c #A9858B",
"9 	c #845F67",
"0 	c #624F55",
"a 	c #5D5A61",
"b 	c #6B6875",
"c 	c #5E596F",
"d 	c #606A78",
"e 	c #64707E",
"f 	c #61717E",
"g 	c #5E6F7F",
"h 	c #555E74",
"i 	c #5A687B",
"j 	c #5E6F80",
"k 	c #5E6A78",
"l 	c #56636E",
"m 	c #4E596C",
"n 	c #464758",
"o 	c #C9C3C4",
"p 	c #77787C",
"q 	c #ABB7B8",
"r 	c #7D8E8C",
"s 	c #495751",
"t 	c #4A534A",
"u 	c #64605B",
"v 	c #757678",
"w 	c #4B5F66",
"x 	c #5A7B82",
"y 	c #596D7A",
"z 	c #485669",
"A 	c #4E6170",
"B 	c #485568",
"C 	c #506571",
"D 	c #4D5F6C",
"E 	c #455065",
"F 	c #495868",
"G 	c #495968",
"H 	c #4E646C",
"I 	c #4B5C69",
"J 	c #4B5D6A",
"K 	c #444D64",
"L 	c #70646E",
"M 	c #CBB3BD",
"N 	c #AD9BA2",
"O 	c #705C66",
"P 	c #493B44",
"Q 	c #504A51",
"R 	c #4E4A4E",
"S 	c #524B4A",
"T 	c #605450",
"U 	c #7B6869",
"V 	c #857A87",
"W 	c #555C74",
"X 	c #4D5E75",
"Y 	c #49576C",
"Z 	c #50676D",
"` 	c #4E636C",
" .	c #4E626C",
"..	c #4F656C",
"+.	c #4C5F6B",
"@.	c #4D616B",
"#.	c #485667",
"$.	c #526B6F",
"%.	c #50686F",
"&.	c #56677A",
"*.	c #6B6269",
"=.	c #E0CECF",
"-.	c #BB7182",
";.	c #ECC1C9",
">.	c #CFBDBF",
",.	c #807579",
"'.	c #524E52",
").	c #444245",
"!.	c #4A4343",
"~.	c #534645",
"{.	c #514044",
"].	c #877988",
"^.	c #4E4E65",
"/.	c #4B5469",
"(.	c #465169",
"_.	c #4A5A69",
":.	c #4B5B6C",
"<.	c #516773",
"[.	c #485668",
"}.	c #444F65",
"|.	c #4F6371",
"1.	c #4C5E6A",
"2.	c #454F67",
"3.	c #4F6470",
"4.	c #4F666D",
"5.	c #51696E",
"6.	c #4F6172",
"7.	c #5D707B",
"8.	c #86787D",
"9.	c #C29798",
"0.	c #B1374B",
"a.	c #B96267",
"b.	c #D5959D",
"c.	c #E9BAC4",
"d.	c #C9A9B3",
"e.	c #97858D",
"f.	c #746A6F",
"g.	c #5F575A",
"h.	c #52444B",
"i.	c #81707C",
"j.	c #625664",
"k.	c #5A5B65",
"l.	c #5B6C79",
"m.	c #586776",
"n.	c #576775",
"o.	c #596A78",
"p.	c #394856",
"q.	c #3A434F",
"r.	c #343E4E",
"s.	c #394755",
"t.	c #313E4C",
"u.	c #364652",
"v.	c #414B55",
"w.	c #3E434B",
"x.	c #414551",
"y.	c #31292F",
"z.	c #33282B",
"A.	c #524A4F",
"B.	c #AC9DA1",
"C.	c #C1928F",
"D.	c #B12F3D",
"E.	c #AA2E35",
"F.	c #B73045",
"G.	c #B83C55",
"H.	c #C9697F",
"I.	c #DD96A9",
"J.	c #D19EAD",
"K.	c #B58C99",
"L.	c #844D5D",
"M.	c #995C6D",
"N.	c #B37888",
"O.	c #673946",
"P.	c #3A1B26",
"Q.	c #3D2731",
"R.	c #301A24",
"S.	c #3C1826",
"T.	c #3A1624",
"U.	c #361723",
"V.	c #361926",
"W.	c #501626",
"X.	c #5C1223",
"Y.	c #5A1121",
"Z.	c #7B1F31",
"`.	c #811429",
" +	c #80162B",
".+	c #822034",
"++	c #92263C",
"@+	c #7F2333",
"#+	c #87283B",
"$+	c #954151",
"%+	c #B19298",
"&+	c #C4BCBD",
"*+	c #B1978F",
"=+	c #68201E",
"-+	c #982D32",
";+	c #B93945",
">+	c #BF404F",
",+	c #B23B4B",
"'+	c #BF5565",
")+	c #CA6E7D",
"!+	c #D78491",
"~+	c #C76D7A",
"{+	c #C4727E",
"]+	c #E99DAA",
"^+	c #BE6B7D",
"/+	c #973D4B",
"(+	c #842B36",
"_+	c #892534",
":+	c #811E30",
"<+	c #7E2434",
"[+	c #7A2C3B",
"}+	c #7D2636",
"|+	c #851527",
"1+	c #89273B",
"2+	c #802735",
"3+	c #832431",
"4+	c #861A2A",
"5+	c #84202E",
"6+	c #861929",
"7+	c #822130",
"8+	c #962A3D",
"9+	c #911D2B",
"0+	c #902A3B",
"a+	c #94273C",
"b+	c #95243B",
"c+	c #84283A",
"d+	c #BC808B",
"e+	c #EDE1DD",
"f+	c #B2A8A3",
"g+	c #795F5A",
"h+	c #A47A77",
"i+	c #D07A80",
"j+	c #D5737E",
"k+	c #DD7381",
"l+	c #D36574",
"m+	c #BF5261",
"n+	c #B64B59",
"o+	c #C04F5E",
"p+	c #AD4A57",
"q+	c #C77582",
"r+	c #D78393",
"s+	c #D77285",
"t+	c #A5404D",
"u+	c #972935",
"v+	c #982F3C",
"w+	c #8D2330",
"x+	c #7C2E3C",
"y+	c #8A1927",
"z+	c #7E2333",
"A+	c #7A2F3D",
"B+	c #7A2B3A",
"C+	c #7A2D3C",
"D+	c #7B2D3B",
"E+	c #892E3E",
"F+	c #AA273B",
"G+	c #952032",
"H+	c #872739",
"I+	c #A18385",
"J+	c #F3EBEC",
"K+	c #B1A7A8",
"L+	c #9D9092",
"M+	c #928082",
"N+	c #CC848D",
"O+	c #CA707C",
"P+	c #CC6573",
"Q+	c #D26572",
"R+	c #D76A75",
"S+	c #D2686F",
"T+	c #CC5962",
"U+	c #C14E5D",
"V+	c #9E384C",
"W+	c #8F3B4B",
"X+	c #BD717B",
"Y+	c #EA949B",
"Z+	c #B95764",
"`+	c #A73A4B",
" @	c #943340",
".@	c #8B333F",
"+@	c #7C2B3A",
"@@	c #831F2F",
"#@	c #812433",
"$@	c #812734",
"%@	c #812432",
"&@	c #812533",
"*@	c #7B2838",
"=@	c #7D2A38",
"-@	c #842230",
";@	c #831F2E",
">@	c #9B2130",
",@	c #962F3F",
"'@	c #883340",
")@	c #872233",
"!@	c #43161B",
"~@	c #77706D",
"{@	c #AEA2A9",
"]@	c #B49FA8",
"^@	c #927580",
"/@	c #C67582",
"(@	c #C56371",
"_@	c #BF5262",
":@	c #C25562",
"<@	c #C8626A",
"[@	c #C56A6C",
"}@	c #C26E6C",
"|@	c #AA6063",
"1@	c #633238",
"2@	c #5F3F42",
"3@	c #804148",
"4@	c #C0505F",
"5@	c #E7A4A5",
"6@	c #E6969E",
"7@	c #B45060",
"8@	c #9A3848",
"9@	c #932F3E",
"0@	c #851326",
"a@	c #851627",
"b@	c #8F374C",
"c@	c #8A2132",
"d@	c #881123",
"e@	c #81192C",
"f@	c #8A2331",
"g@	c #882735",
"h@	c #92202D",
"i@	c #912736",
"j@	c #8F323E",
"k@	c #7C2B39",
"l@	c #8A3142",
"m@	c #821C2B",
"n@	c #6E1C28",
"o@	c #32211B",
"p@	c #4C4942",
"q@	c #BABABB",
"r@	c #B1A8AA",
"s@	c #9E888D",
"t@	c #B66A71",
"u@	c #BE5E69",
"v@	c #D46575",
"w@	c #C75464",
"x@	c #B94D5A",
"y@	c #C5636C",
"z@	c #C7676C",
"A@	c #9D4E57",
"B@	c #68494E",
"C@	c #8A8F8B",
"D@	c #755B5A",
"E@	c #9A3844",
"F@	c #B02C3B",
"G@	c #B53647",
"H@	c #9D3F4D",
"I@	c #8A5B63",
"J@	c #84797C",
"K@	c #6C686E",
"L@	c #82737A",
"M@	c #65545E",
"N@	c #5E5B65",
"O@	c #584851",
"P@	c #5E303A",
"Q@	c #761E2C",
"R@	c #831922",
"S@	c #851920",
"T@	c #811721",
"U@	c #7C1823",
"V@	c #7B232E",
"W@	c #7A2C37",
"X@	c #833042",
"Y@	c #752032",
"Z@	c #69202B",
"`@	c #471217",
" #	c #412324",
".#	c #DED7D6",
"+#	c #D2D9D6",
"@#	c #828582",
"##	c #6F6867",
"$#	c #956265",
"%#	c #B3666F",
"&#	c #BE5B6A",
"*#	c #CF5E70",
"=#	c #D36474",
"-#	c #C9636F",
";#	c #C1676D",
">#	c #974E56",
",#	c #87646E",
"'#	c #9E9A9D",
")#	c #6E5D5D",
"!#	c #7F4046",
"~#	c #B9404B",
"{#	c #BC4850",
"]#	c #8C3C3F",
"^#	c #724443",
"/#	c #6C4B4F",
"(#	c #572F3C",
"_#	c #7E5D67",
":#	c #5A3944",
"<#	c #4D2F39",
"[#	c #52353B",
"}#	c #561C25",
"|#	c #841D2D",
"1#	c #981A25",
"2#	c #90111A",
"3#	c #870D17",
"4#	c #801019",
"5#	c #811C26",
"6#	c #812730",
"7#	c #792A39",
"8#	c #7D2A3C",
"9#	c #781D2D",
"0#	c #5F0A16",
"a#	c #49131B",
"b#	c #D7CBCD",
"c#	c #A0A0A0",
"d#	c #8F8E8E",
"e#	c #A49898",
"f#	c #DEC6CA",
"g#	c #C5909A",
"h#	c #B66875",
"i#	c #BB6570",
"j#	c #BC656E",
"k#	c #C26870",
"l#	c #8B5055",
"m#	c #97888A",
"n#	c #B3B4B6",
"o#	c #AB9EA0",
"p#	c #70454B",
"q#	c #AA3946",
"r#	c #AC2D39",
"s#	c #B23A43",
"t#	c #AF414B",
"u#	c #B65662",
"v#	c #A34E5B",
"w#	c #8B424D",
"x#	c #8F3643",
"y#	c #8E2C37",
"z#	c #842A30",
"A#	c #80232B",
"B#	c #8F1F30",
"C#	c #921A27",
"D#	c #840E17",
"E#	c #7E0E18",
"F#	c #770F19",
"G#	c #6C0B15",
"H#	c #6C0F1A",
"I#	c #68192A",
"J#	c #641C2C",
"K#	c #621620",
"L#	c #550B11",
"M#	c #45151A",
"N#	c #DAD2D4",
"O#	c #DCC7C9",
"P#	c #AC8287",
"Q#	c #9A5F67",
"R#	c #AC686E",
"S#	c #84595D",
"T#	c #918A8A",
"U#	c #B8BFBE",
"V#	c #928B8C",
"W#	c #634449",
"X#	c #9E4049",
"Y#	c #AE3A44",
"Z#	c #AB343E",
"`#	c #942933",
" $	c #5F0F15",
".$	c #4C181A",
"+$	c #4E1416",
"@$	c #660E15",
"#$	c #84141D",
"$$	c #820E18",
"%$	c #7B0C15",
"&$	c #7A0A15",
"*$	c #780817",
"=$	c #750A19",
"-$	c #700E1B",
";$	c #69141E",
">$	c #621921",
",$	c #5B1B21",
"'$	c #521F27",
")$	c #4B1E24",
"!$	c #47171A",
"~$	c #461416",
"{$	c #422124",
"]$	c #CDCBCB",
"^$	c #DBCDD0",
"/$	c #B49096",
"($	c #81696C",
"_$	c #888786",
":$	c #C4CCCB",
"<$	c #8D8C8D",
"[$	c #614D50",
"}$	c #95444D",
"|$	c #B0424E",
"1$	c #B13544",
"2$	c #A53440",
"3$	c #77272D",
"4$	c #613332",
"5$	c #4B2928",
"6$	c #541E21",
"7$	c #76222B",
"8$	c #76141F",
"9$	c #6E151E",
"0$	c #5D131A",
"a$	c #4D131A",
"b$	c #451217",
"c$	c #3F1014",
"d$	c #390E10",
"e$	c #340C0E",
"f$	c #371012",
"g$	c #280508",
"h$	c #230405",
"i$	c #260505",
"j$	c #2F070A",
"k$	c #301216",
"l$	c #D1CCCD",
"m$	c #DDD7DA",
"n$	c #8C8E8F",
"o$	c #A6ACAC",
"p$	c #A7A7A9",
"q$	c #63575A",
"r$	c #804D50",
"s$	c #974B50",
"t$	c #A2454D",
"u$	c #994046",
"v$	c #662626",
"w$	c #6F4B46",
"x$	c #583F41",
"y$	c #553439",
"z$	c #440D14",
"A$	c #580F1A",
"B$	c #5D1823",
"C$	c #320A0C",
"D$	c #190808",
"E$	c #150907",
"F$	c #1B0B08",
"G$	c #200B09",
"H$	c #260A09",
"I$	c #351514",
"J$	c #250306",
"K$	c #250A0B",
"L$	c #210708",
"M$	c #300F14",
"N$	c #563B41",
"O$	c #7A7B7E",
"P$	c #AEAFB1",
"Q$	c #99979A",
"R$	c #64595E",
"S$	c #864A53",
"T$	c #9F4B55",
"U$	c #AA4753",
"V$	c #A33B46",
"W$	c #93343F",
"X$	c #7B2933",
"Y$	c #671F2C",
"Z$	c #55161F",
"`$	c #550F16",
" %	c #761D28",
".%	c #822934",
"+%	c #54131A",
"@%	c #33090F",
"#%	c #2E070D",
"$%	c #2F080D",
"%%	c #340B0E",
"&%	c #3B0F11",
"*%	c #4A1E1F",
"=%	c #3F1C1D",
"-%	c #453030",
";%	c #6C5F5F",
">%	c #6E5F62",
",%	c #DBD2D5",
"'%	c #B5B5B6",
")%	c #646465",
"!%	c #666566",
"~%	c #656062",
"{%	c #77595A",
"]%	c #986E6F",
"^%	c #A06D70",
"/%	c #975C60",
"(%	c #88494F",
"_%	c #88484F",
":%	c #873A47",
"<%	c #792E39",
"[%	c #70252E",
"}%	c #711D29",
"|%	c #721C29",
"1%	c #691F29",
"2%	c #57232E",
"3%	c #5E333F",
"4%	c #67404A",
"5%	c #634147",
"6%	c #A89093",
"7%	c #C9B6B7",
"8%	c #EBE3E3",
"9%	c #EEEAE9",
"0%	c #BCBCBC",
"a%	c #9F9F9F",
"b%	c #A09F9F",
"c%	c #D5D2CE",
"d%	c #F0E8E7",
"e%	c #CEC0C1",
"f%	c #AC9698",
"g%	c #A89394",
"h%	c #9F8A8B",
"i%	c #BEAAAB",
"j%	c #DBCCCD",
"k%	c #DBCDCE",
"l%	c #D9CAD0",
"m%	c #F0E5EB",
"                                                                                                ",
"                                                                                                ",
"                                                                                                ",
"                                                                                                ",
"                                                                                                ",
"                                                                                                ",
"                                                                                                ",
"                                                                                                ",
"                                                                                                ",
"                                                                                                ",
"                                                                                                ",
"                                                                                                ",
"                                                                                                ",
"                                                                                                ",
"                                                                                                ",
"                                                                                                ",
"                      . + @ # $ % & * = -                                                       ",
"                ; > , ' ) ! ~ { ] ^ / ( _ : < [ [ } | 1 2                                       ",
"              3 4 5 6 7 8 9 0 a b c d e f g h i j k l m n o                                     ",
"              p q r s t u v w x y z A B C D E F G H I J K L                                     ",
"        M N O P Q R S T U V W X Y Z Z `  ...+.@.#.Z  .$.%.&.*.                                  ",
"      =.-.;.>.,.'.).!.~.{.].^./.(.G _.:.<.[.}.|.1.2.3.4.5.6.7.8.                                ",
"      9.0.a.b.c.d.e.f.g.h.i.j.k.l.m.n.o.p.q.r.s.t.u.v.w.x.y.z.A.B.                              ",
"      C.D.E.F.G.H.I.J.K.L.M.N.O.P.Q.R.S.T.U.V.W.X.Y.Z.`. +.+++@+#+$+%+&+                        ",
"      *+=+-+;+>+,+'+)+!+~+{+]+^+/+(+_+:+<+[+}+|+1+2+3+4+5+6+7+8+9+0+a+b+c+d+e+                  ",
"      f+g+h+i+j+k+l+m+n+o+p+q+r+s+t+u+v+w+x+y+6+z+x+A+x+x+B+C+x+D+E+F+G+C+B+H+I+J+              ",
"      K+L+M+N+O+P+Q+R+S+T+U+V+W+X+Y+Z+`+ @.@+@@@2+#@$@%@&@*@=@%@-@5+;@>@,@'@)@!@~@              ",
"      {@]@^@/@(@_@:@<@[@}@|@1@2@3@4@5@6@7@8@9@0@4+a@b@c@d@e@f@g@h@i@j@k@l@m@n@o@p@              ",
"      q@r@s@t@u@v@w@x@y@z@A@B@C@D@E@F@G@H@I@J@K@L@M@N@O@P@Q@R@S@T@U@V@W@X@Y@Z@`@ #.#            ",
"      +#@###$#%#&#*#=#-#;#>#,#'#)#!#~#{#]#^#/#(#_#:#<#[#}#|#1#2#3#4#5#6#7#8#9#0#a#b#            ",
"        c#d#e#f#g#h#i#j#k#l#m#n#o#p#q#r#s#t#u#v#w#x#y#z#A#B#C#D#E#F#G#H#I#J#K#L#M#N#            ",
"                  O#P#Q#R#S#T#U#V#W#X#Y#Z#`# $.$+$@$#$$$%$&$*$=$-$;$>$,$'$)$!$~${$]$            ",
"                      ^$/$($_$:$<$[$}$|$1$2$3$4$5$6$7$8$9$0$a$b$c$d$e$f$g$h$i$j$k$l$            ",
"                          m$n$o$p$q$r$s$t$u$v$w$x$y$z$A$B$C$D$E$F$G$H$I$J$K$L$M$N$              ",
"                            O$P$Q$R$S$T$U$V$W$X$Y$Z$`$ %.%+%@%#%$%%%&%*%=%-%;%>%,%              ",
"                            '%)%!%~%{%]%^%/%(%_%:%<%[%}%|%1%2%3%4%5%6%7%8%9%                    ",
"                              0%a%b%c%    d%e%f%g%h%i%j%k%k%l%m%                                ",
"                                                                                                ",
"                                                                                                ",
"                                                                                                ",
"                                                                                                ",
"                                                                                                ",
"                                                                                                ",
"                                                                                                ",
"                                                                                                ",
"                                                                                                ",
"                                                                                                ",
"                                                                                                "};
