/* XPM */
static char * optimization48_xpm[] = {
"48 48 61 1",
" 	c None",
".	c #808080",
"+	c #800000",
"@	c #604000",
"#	c #A04000",
"$	c #FF0000",
"%	c #C02000",
"&	c #C04040",
"*	c #C04000",
"=	c #A04040",
"-	c #A06000",
";	c #C06000",
">	c #A0A040",
",	c #A0A000",
"'	c #C0A000",
")	c #C0C080",
"!	c #C0A040",
"~	c #C0C000",
"{	c #C06040",
"]	c #A0C000",
"^	c #C0E000",
"/	c #FFFF00",
"(	c #E0C000",
"_	c #C0A080",
":	c #C0C040",
"<	c #C0E040",
"[	c #C0DCC0",
"}	c #60A000",
"|	c #A0A080",
"1	c #A0C080",
"2	c #60A040",
"3	c #E0C080",
"4	c #E0A0C0",
"5	c #A0C040",
"6	c #E0C040",
"7	c #406080",
"8	c #60C0C0",
"9	c #60C080",
"0	c #00A080",
"a	c #60A080",
"b	c #C0C0C0",
"c	c #40C080",
"d	c #40A080",
"e	c #A0A0A4",
"f	c #40C0C0",
"g	c #40A0C0",
"h	c #00FFFF",
"i	c #C0A0C0",
"j	c #00C0C0",
"k	c #A0A0C0",
"l	c #00A0C0",
"m	c #A6CAF0",
"n	c #006080",
"o	c #0000FF",
"p	c #0060C0",
"q	c #6040C0",
"r	c #0000C0",
"s	c #000080",
"t	c #0040C0",
"u	c #404080",
"v	c #400080",
"                                                ",
"                                                ",
"                                                ",
"                                                ",
"                                                ",
"                                                ",
"                    .                           ",
"                    .                           ",
"                    .                           ",
"               +++@#.                           ",
"              +###$%$&                          ",
"             @##%$$$*%%                         ",
"             +%%$%%#%*%+&                       ",
"            =%*$*****%#***                      ",
"            %$$#%**#*-*;*-*>                    ",
"           &$%*%-;;;;;;*,'';-)                  ",
"           +***-*-*-;-;,'';,',!                 ",
"           #**-;;;''''''''~'~'~,)               ",
"          {-;-*;;-;,']']~]'~~]'~']              ",
"          -;-;'',',']'~'~~^/^~/~/~^)            ",
"          ;-''''',','~(^(^(~(^(^(^~~!           ",
"         _,''']',']~~']~^(/~:(<~~']~]-[         ",
"         ,',(~~](^'~(^~},>!|!>!]~^(^/^'1        ",
"         ~]~^~~~///(//:/^~~~~(/(/~)(<  2        ",
"        3~~/')4 3^(/!~)5/5/5(5~165!1    7       ",
"        1~<~      <~)>)55:1:1:15155     8       ",
"        59(        )!1|:|1_111_1|93      0      ",
"       19:          159>9911199199       a      ",
"      b0_           .11c|ca9adaca1        e     ",
"                    . 9acaf99dfdfb        a     ",
"                    . bdgfgh9hgha         i     ",
"                    .  ahjhhhhhh8          k    ",
"                    .  bjhjhlhlhm          k    ",
"                    .   hjljlhlh           b    ",
"                    .   mjnjnlnf            b   ",
"                    .    nlnlnlk                ",
"                    .    8nonon                 ",
"                .... .....popon                 ",
"            ....          qoroq.....            ",
"        ....               oso     ........     ",
"    ....                   tsr            ..... ",
" ...                        ru                  ",
"                            v                   ",
"                                                ",
"                                                ",
"                                                ",
"                                                ",
"                                                "};
