/* XPM */
static const char * ortho16_xpm[] = {
"16 16 48 1",
" 	c None",
".	c #000000",
"+	c #060000",
"@	c #620000",
"#	c #F90000",
"$	c #FF0000",
"%	c #F50000",
"&	c #590000",
"*	c #070000",
"=	c #0C0000",
"-	c #B90000",
";	c #F40000",
">	c #EC0000",
",	c #EB0000",
"'	c #FB0000",
")	c #9E0000",
"!	c #170000",
"~	c #040000",
"{	c #C40000",
"]	c #400000",
"^	c #120000",
"/	c #C60000",
"(	c #A60000",
"_	c #A50000",
":	c #A80000",
"<	c #570000",
"[	c #370000",
"}	c #FA0000",
"|	c #3D0000",
"1	c #440000",
"2	c #3E0000",
"3	c #3A0000",
"4	c #340000",
"5	c #F00000",
"6	c #D70000",
"7	c #030000",
"8	c #CC0000",
"9	c #020000",
"0	c #200000",
"a	c #C90000",
"b	c #9C0000",
"c	c #0B0000",
"d	c #CF0000",
"e	c #A20000",
"f	c #880000",
"g	c #7C0000",
"h	c #6E0000",
"i	c #080000",
"                ",
"      ......... ",
"    .+@#$$$%&*= ",
"   .*-;>,')!~{] ",
" ..^/(__:<.[$}| ",
" .1233334.{5,#| ",
" .$#####67$>>#| ",
" .$>>>>>89$>>#| ",
" .$>>>>>89$>>#2 ",
" .$>>>>>89$>>$0 ",
" .$>>>>>89$5a*. ",
" .$>>>>>89$bc.  ",
" .$55555d~e..   ",
" .fggggghi~     ",
" .........      ",
"                "};
