/* XPM */
static const char * perspective48_xpm[] = {
"48 48 3 1",
" 	c None",
".	c #000000",
"+	c #EC0000",
"                                                ",
"                                                ",
"                                                ",
"                           ..................   ",
"                         ....................   ",
"                       ......................   ",
"                     ........+++++++++.......   ",
"                  .........+++++++++.........   ",
"                .........++++++++++......+...   ",
"              .........+++++++++++......++...   ",
"           .........++++++++++++......++++...   ",
"         .........+++++++++++++......+++++...   ",
"       .........++++++++++++++......++++++...   ",
"     ........+++++++++++++++......++++++++...   ",
"   ..............................+++++++++...   ",
"   .............................++++++++++...   ",
"   ...........................+++++++++++....   ",
"   ...+++++++++++++++++++++...+++++++++++....   ",
"   ...+++++++++++++++++++++...++++++++++....    ",
"   ...+++++++++++++++++++++...++++++++++....    ",
"   ...+++++++++++++++++++++...+++++++++....     ",
"   ...+++++++++++++++++++++...+++++++++....     ",
"   ...+++++++++++++++++++++...++++++++....      ",
"   ...+++++++++++++++++++++...+++++++.....      ",
"   ...+++++++++++++++++++++...+++++++....       ",
"   ...+++++++++++++++++++++...++++++....        ",
"   ...+++++++++++++++++++++...++++++....        ",
"   ...+++++++++++++++++++++...+++++....         ",
"   ...+++++++++++++++++++++...+++++....         ",
"   ...+++++++++++++++++++++...++++....          ",
"   ...+++++++++++++++++++++...+++.....          ",
"   ...+++++++++++++++++++++...+++....           ",
"   ...+++++++++++++++++++++...++....            ",
"   ...+++++++++++++++++++++...++....            ",
"   ...+++++++++++++++++++++...+....             ",
"   ...+++++++++++++++++++++........             ",
"   ...+++++++++++++++++++++.......              ",
"   ...+++++++++++++++++++++......               ",
"   ...+++++++++++++++++++++......               ",
"   ...+++++++++++++++++++++.....                ",
"   ...+++++++++++++++++++++.....                ",
"   ............................                 ",
"   ............................                 ",
"   ...........................                  ",
"                                                ",
"                                                ",
"                                                ",
"                                                "};
