/* XPM */
static char * suspension48_xpm[] = {
"48 48 644 2",
"  	c None",
". 	c #E3DCD3",
"+ 	c #CAB786",
"@ 	c #BEAB74",
"# 	c #D9C6A5",
"$ 	c #E7DFD5",
"% 	c #CAB254",
"& 	c #C2A552",
"* 	c #C49352",
"= 	c #C6B955",
"- 	c #D2B772",
"; 	c #D8BC8E",
"> 	c #C8B153",
", 	c #CA797A",
"' 	c #C2A1A6",
") 	c #C47E54",
"! 	c #DFCF5F",
"~ 	c #DDC068",
"{ 	c #F2EBE0",
"] 	c #B9C7CE",
"^ 	c #547F8C",
"/ 	c #CDD9DF",
"( 	c #D2B380",
"_ 	c #C4AB52",
": 	c #D5A1A7",
"< 	c #E4E2E9",
"[ 	c #C88666",
"} 	c #DFD066",
"| 	c #FEE568",
"1 	c #E9CD66",
"2 	c #E0D3C1",
"3 	c #A3B7BF",
"4 	c #3B7480",
"5 	c #3C7385",
"6 	c #8BA4B3",
"7 	c #DBC8B5",
"8 	c #CFB44F",
"9 	c #C39952",
"0 	c #C88854",
"a 	c #D1BC58",
"b 	c #FAE268",
"c 	c #FFE567",
"d 	c #ECD163",
"e 	c #E3C29F",
"f 	c #99ABAF",
"g 	c #3C757D",
"h 	c #467F8E",
"i 	c #4E7D93",
"j 	c #D7DEAE",
"k 	c #F4F7CD",
"l 	c #CAB095",
"m 	c #D7B551",
"n 	c #E7D262",
"o 	c #FEE667",
"p 	c #FFE667",
"q 	c #FDE468",
"r 	c #EC9F30",
"s 	c #DE7108",
"t 	c #795E35",
"u 	c #41797E",
"v 	c #48828D",
"w 	c #547F7A",
"x 	c #BBC825",
"y 	c #F2F10C",
"z 	c #E8EB3C",
"A 	c #E0CDBA",
"B 	c #D4AD51",
"C 	c #FDE568",
"D 	c #FEE567",
"E 	c #EECE5D",
"F 	c #EB9224",
"G 	c #97652A",
"H 	c #568A8C",
"I 	c #548C96",
"J 	c #688D6D",
"K 	c #DDE41A",
"L 	c #C8CF38",
"M 	c #9EA419",
"N 	c #D6D975",
"O 	c #EBDED3",
"P 	c #C99F51",
"Q 	c #FAE166",
"R 	c #EBBC4C",
"S 	c #EC9526",
"T 	c #AD6F26",
"U 	c #71A1A3",
"V 	c #84BEC3",
"W 	c #769568",
"X 	c #EEF117",
"Y 	c #B0C042",
"Z 	c #668040",
"` 	c #CDCD16",
" .	c #EAEB6A",
"..	c #F5F578",
"+.	c #F4EFEA",
"@.	c #C79D5F",
"#.	c #CC6D0C",
"$.	c #BB6715",
"%.	c #618884",
"&.	c #97D2D6",
"*.	c #6E968E",
"=.	c #EDEF21",
"-.	c #A8C046",
";.	c #567F7D",
">.	c #D2D71C",
",.	c #E8EA8A",
"'.	c #F7F8C6",
").	c #F0F025",
"!.	c #EAEB1F",
"~.	c #D4D42C",
"{.	c #B97B43",
"].	c #55695C",
"^.	c #72AEB2",
"/.	c #5E8E97",
"(.	c #88C3C7",
"_.	c #97BEA2",
":.	c #3E59B8",
"<.	c #D3DC67",
"[.	c #EAEA31",
"}.	c #F4F7A1",
"|.	c #F5F71E",
"1.	c #F2F89A",
"2.	c #CDD136",
"3.	c #DCDD7E",
"4.	c #6B7973",
"5.	c #427C7E",
"6.	c #46777E",
"7.	c #52898D",
"8.	c #71ACAF",
"9.	c #3644D2",
"0.	c #2627FB",
"a.	c #5253A0",
"b.	c #E6EA59",
"c.	c #F8FA1C",
"d.	c #F8FBB6",
"e.	c #EFF1A1",
"f.	c #D2D31A",
"g.	c #D3E8C9",
"h.	c #E5F0AA",
"i.	c #E8EA21",
"j.	c #F2F016",
"k.	c #BBC6CB",
"l.	c #386B6F",
"m.	c #3A6D72",
"n.	c #36676D",
"o.	c #3F7A7D",
"p.	c #4E8186",
"q.	c #7480C3",
"r.	c #1918E2",
"s.	c #959587",
"t.	c #EFF02D",
"u.	c #E1E3BD",
"v.	c #F7FAE8",
"w.	c #E5E617",
"x.	c #A7DE5D",
"y.	c #87DB11",
"z.	c #F0F61B",
"A.	c #C3DD2B",
"B.	c #BEBE22",
"C.	c #4C7478",
"D.	c #366A6D",
"E.	c #325C65",
"F.	c #366C6F",
"G.	c #36696D",
"H.	c #9EB8BD",
"I.	c #F6F971",
"J.	c #D6D52E",
"K.	c #E8EA2B",
"L.	c #6161B3",
"M.	c #2425F3",
"N.	c #C2C37E",
"O.	c #ACDD0C",
"P.	c #A4E311",
"Q.	c #E9F91C",
"R.	c #44F311",
"S.	c #15CC17",
"T.	c #688F7F",
"U.	c #F3F5CA",
"V.	c #F1F18C",
"W.	c #799399",
"X.	c #326267",
"Y.	c #325D6B",
"Z.	c #2E595E",
"`.	c #315E63",
" +	c #839CA7",
".+	c #FAFABB",
"++	c #F2F20A",
"@+	c #EBEC17",
"#+	c #DADCB6",
"$+	c #3232DE",
"%+	c #2E2EF8",
"&+	c #2242B9",
"*+	c #B7EE1A",
"=+	c #E1FA15",
"-+	c #30F709",
";+	c #0BE214",
">+	c #388476",
",+	c #417A82",
"'+	c #AEC141",
")+	c #F3F213",
"!+	c #DDDC08",
"~+	c #F9FBCC",
"{+	c #748E92",
"]+	c #2C545C",
"^+	c #8EA9BB",
"/+	c #D5DDDF",
"(+	c #96A8AF",
"_+	c #F8F8E0",
":+	c #E8E816",
"<+	c #E0E111",
"[+	c #F2F4C2",
"}+	c #EDEFE0",
"|+	c #4D548A",
"1+	c #BAD839",
"2+	c #E2F625",
"3+	c #52FA2E",
"4+	c #1AEE1F",
"5+	c #3C8E73",
"6+	c #4B847C",
"7+	c #C4D324",
"8+	c #E3EA37",
"9+	c #6A9467",
"0+	c #99A846",
"a+	c #C7D0D4",
"b+	c #DEDE42",
"c+	c #D5D312",
"d+	c #F0F1C2",
"e+	c #F8F958",
"f+	c #ECED18",
"g+	c #D1EF17",
"h+	c #5FFA46",
"i+	c #5DF75E",
"j+	c #78CAA8",
"k+	c #71A993",
"l+	c #D9E322",
"m+	c #D4E235",
"n+	c #50877D",
"o+	c #3D7A86",
"p+	c #3E7786",
"q+	c #A2BCBD",
"r+	c #E8EB78",
"s+	c #EEEF2C",
"t+	c #F9FBC9",
"u+	c #E5E7A8",
"v+	c #BDBD0D",
"w+	c #EBECC0",
"x+	c #F1F48D",
"y+	c #F0F004",
"z+	c #C2E506",
"A+	c #22F209",
"B+	c #29F929",
"C+	c #69C690",
"D+	c #A2D9BE",
"E+	c #EAF13E",
"F+	c #D4E43B",
"G+	c #538D87",
"H+	c #417D86",
"I+	c #407C86",
"J+	c #548873",
"K+	c #CED81F",
"L+	c #E0E629",
"M+	c #BFBF0A",
"N+	c #F7F7C5",
"O+	c #F2F3E1",
"P+	c #F6F6CD",
"Q+	c #E3E209",
"R+	c #BDD603",
"S+	c #1EDA02",
"T+	c #02E702",
"U+	c #2AB544",
"V+	c #6FA58A",
"W+	c #E7EE3D",
"X+	c #D7E748",
"Y+	c #97D2CD",
"Z+	c #71ADB3",
"`+	c #4E8B91",
" @	c #64956A",
".@	c #E5EA18",
"+@	c #C1D54B",
"@@	c #467E7E",
"#@	c #577F66",
"$@	c #F4F5C9",
"%@	c #D7D82C",
"&@	c #CACC25",
"*@	c #34BA1B",
"=@	c #01C900",
"-@	c #13B420",
";@	c #558769",
">@	c #DFE51E",
",@	c #BED032",
"'@	c #79B4AD",
")@	c #92CFD2",
"!@	c #98D6DA",
"~@	c #95C28C",
"{@	c #F1F51C",
"]@	c #AEC847",
"^@	c #437E83",
"/@	c #3F7B86",
"(@	c #3C7886",
"_@	c #72987A",
":@	c #EBEC38",
"<@	c #F0EF09",
"[@	c #F5F792",
"}@	c #F3F3D6",
"|@	c #C4C346",
"1@	c #F3F5DD",
"2@	c #DBECDC",
"3@	c #3CB540",
"4@	c #457B53",
"5@	c #D4DA11",
"6@	c #AEBF26",
"7@	c #4C8480",
"8@	c #559094",
"9@	c #70ADB0",
"0@	c #AAD595",
"a@	c #F5F734",
"b@	c #BEDA60",
"c@	c #59949B",
"d@	c #438088",
"e@	c #749D5C",
"f@	c #EBEE19",
"g@	c #B4CA4B",
"h@	c #889726",
"i@	c #F1F2BF",
"j@	c #BBC69E",
"k@	c #C3CA12",
"l@	c #A3B120",
"m@	c #3B6F6C",
"n@	c #3A7376",
"o@	c #437E81",
"p@	c #81AA66",
"q@	c #F0F226",
"r@	c #B8D869",
"s@	c #9DD9DC",
"t@	c #85C2C5",
"u@	c #5E999E",
"v@	c #8BAF53",
"w@	c #F6F714",
"x@	c #92B55F",
"y@	c #3E7987",
"z@	c #3C7581",
"A@	c #AF7C81",
"B@	c #E9C2C3",
"C@	c #DDAAAC",
"D@	c #CE1113",
"E@	c #E09DA0",
"F@	c #CACB19",
"G@	c #C3C63F",
"H@	c #3F6661",
"I@	c #316468",
"J@	c #366B6F",
"K@	c #6C9355",
"L@	c #EAEA0D",
"M@	c #93B349",
"N@	c #66A2A5",
"O@	c #9CD7DC",
"P@	c #BBDB77",
"Q@	c #F7F820",
"R@	c #86AE60",
"S@	c #417D85",
"T@	c #3F7C86",
"U@	c #7A4B53",
"V@	c #ED0304",
"W@	c #CF0D0E",
"X@	c #C30A0C",
"Y@	c #D30A0B",
"Z@	c #DF7A7C",
"`@	c #D5D691",
" #	c #DDE2E4",
".#	c #486D72",
"+#	c #60844C",
"@#	c #DBDD09",
"##	c #87A33C",
"$#	c #3D787B",
"%#	c #488387",
"&#	c #609B9E",
"*#	c #B9D872",
"=#	c #F3F42E",
"-#	c #B0D992",
";#	c #6AA7AA",
">#	c #4B878E",
",#	c #72575B",
"'#	c #F00404",
")#	c #D60708",
"!#	c #E80504",
"~#	c #DB1319",
"{#	c #704853",
"]#	c #C4C7CD",
"^#	c #D8DC8B",
"/#	c #CDCE07",
"(#	c #829732",
"_#	c #35686B",
":#	c #376F71",
"<#	c #3C7579",
"[#	c #9AB848",
"}#	c #E8EC1D",
"|#	c #98C486",
"1#	c #96D3D6",
"2#	c #98D5D8",
"3#	c #899092",
"4#	c #F11B1A",
"5#	c #DD0B0B",
"6#	c #E80D0D",
"7#	c #E0161C",
"8#	c #60616C",
"9#	c #38707E",
"0#	c #A6B7C0",
"a#	c #B9BA0F",
"b#	c #D2D57F",
"c#	c #758E92",
"d#	c #2E5D61",
"e#	c #34686A",
"f#	c #90AB3A",
"g#	c #E2E309",
"h#	c #6F995B",
"i#	c #539094",
"j#	c #76B3B5",
"k#	c #98BEBB",
"l#	c #E3A84B",
"m#	c #E23C37",
"n#	c #E42B2B",
"o#	c #EB1F21",
"p#	c #6A5E66",
"q#	c #407785",
"r#	c #3C7382",
"s#	c #3E7685",
"t#	c #B6C8CF",
"u#	c #F3F5E8",
"v#	c #9BADAA",
"w#	c #819933",
"x#	c #D4D607",
"y#	c #648B4E",
"z#	c #3F7A7E",
"A#	c #528A84",
"B#	c #D8D139",
"C#	c #E5D721",
"D#	c #C7523C",
"E#	c #CF4549",
"F#	c #8F696E",
"G#	c #4B858D",
"H#	c #447A88",
"I#	c #3E7C87",
"J#	c #3A7180",
"K#	c #A4B9C3",
"L#	c #DEE06D",
"M#	c #C9C808",
"N#	c #668148",
"O#	c #356B6E",
"P#	c #3E7570",
"Q#	c #BFCE27",
"R#	c #E4CF0D",
"S#	c #D14528",
"T#	c #F45455",
"U#	c #A76B6E",
"V#	c #86BEC5",
"W#	c #578B96",
"X#	c #468489",
"Y#	c #407D86",
"Z#	c #3E7782",
"`#	c #3C7985",
" $	c #3C7889",
".$	c #A8BEC8",
"+$	c #CACC67",
"@$	c #E2E4B2",
"#$	c #DFE4E5",
"$$	c #53767A",
"%$	c #366464",
"&$	c #B1C223",
"*$	c #DEC205",
"=$	c #C6270E",
"-$	c #F72525",
";$	c #A94042",
">$	c #77ADB1",
",$	c #6A9CA6",
"'$	c #91CDD1",
")$	c #69A6A9",
"!$	c #488389",
"~$	c #407B84",
"{$	c #3F7E8B",
"]$	c #3E7F8E",
"^$	c #407A8E",
"/$	c #D4DEE4",
"($	c #E9ECDA",
"_$	c #ABB619",
":$	c #D0BB04",
"<$	c #BA240A",
"[$	c #E80606",
"}$	c #B91A1B",
"|$	c #558083",
"1$	c #7AB5B9",
"2$	c #95D3D6",
"3$	c #94CFD2",
"4$	c #609A9E",
"5$	c #44838C",
"6$	c #3F818B",
"7$	c #408291",
"8$	c #408195",
"9$	c #6895A7",
"0$	c #D7D75F",
"a$	c #C1C020",
"b$	c #AB2D11",
"c$	c #C6090B",
"d$	c #C70909",
"e$	c #4B5D5F",
"f$	c #38666C",
"g$	c #3F777B",
"h$	c #549093",
"i$	c #75B1B3",
"j$	c #83BCBF",
"k$	c #6AA7AB",
"l$	c #4A878E",
"m$	c #41818B",
"n$	c #428494",
"o$	c #47889F",
"p$	c #42829B",
"q$	c #D0DBE2",
"r$	c #E4E4C0",
"s$	c #EEEDDC",
"t$	c #BB2E30",
"u$	c #BF0707",
"v$	c #5E3E40",
"w$	c #325E63",
"x$	c #336367",
"y$	c #397275",
"z$	c #3E7A7D",
"A$	c #4B8184",
"B$	c #589497",
"C$	c #528D91",
"D$	c #488489",
"E$	c #407F89",
"F$	c #448595",
"G$	c #5495B1",
"H$	c #5390B0",
"I$	c #82A2B1",
"J$	c #CE9D9E",
"K$	c #B90202",
"L$	c #9E0F10",
"M$	c #2D5459",
"N$	c #2C5056",
"O$	c #326468",
"P$	c #386A6E",
"Q$	c #3B7477",
"R$	c #427C80",
"S$	c #3E797D",
"T$	c #3F7B85",
"U$	c #438291",
"V$	c #5B97B6",
"W$	c #5996B5",
"X$	c #407D91",
"Y$	c #CCD9DE",
"Z$	c #EFE5E5",
"`$	c #A44244",
" %	c #E1A2A4",
".%	c #D8DDE0",
"+%	c #D5DBDE",
"@%	c #43686D",
"#%	c #305E61",
"$%	c #33676A",
"%%	c #366D70",
"&%	c #376E72",
"*%	c #387073",
"=%	c #387175",
"-%	c #3B767C",
";%	c #3F7885",
">%	c #478394",
",%	c #458594",
"'%	c #3E7B88",
")%	c #41717D",
"!%	c #B1C2C9",
"~%	c #E9EDED",
"{%	c #577478",
"]%	c #336669",
"^%	c #33686B",
"/%	c #34696E",
"(%	c #366E73",
"_%	c #386E76",
":%	c #407C84",
"<%	c #518B93",
"[%	c #417A8E",
"}%	c #468290",
"|%	c #679BA2",
"1%	c #98B1BA",
"2%	c #95A5AA",
"3%	c #365B60",
"4%	c #2C595D",
"5%	c #2E5C61",
"6%	c #305F64",
"7%	c #366C70",
"8%	c #417B7E",
"9%	c #498192",
"0%	c #448191",
"a%	c #6FA9B0",
"b%	c #A3DEE1",
"c%	c #9BD5D9",
"d%	c #8AAAB3",
"e%	c #ACB9BA",
"f%	c #678084",
"g%	c #35555A",
"h%	c #2B555A",
"i%	c #396B72",
"j%	c #418090",
"k%	c #65A0A8",
"l%	c #9FD8DC",
"m%	c #9DC2A4",
"n%	c #ADC182",
"o%	c #9ABB99",
"p%	c #82A4AD",
"q%	c #D9DEDF",
"r%	c #728C90",
"s%	c #336269",
"t%	c #55929A",
"u%	c #9BD4D6",
"v%	c #A2C9A9",
"w%	c #CD824C",
"x%	c #A94847",
"y%	c #C27948",
"z%	c #9BBB98",
"A%	c #B1C5CE",
"B%	c #9EAFB1",
"C%	c #5C8B8E",
"D%	c #A7E3E6",
"E%	c #B6CD90",
"F%	c #CF7977",
"G%	c #C97F7F",
"H%	c #B5C88D",
"I%	c #90ADBC",
"J%	c #BFCACB",
"K%	c #5C888B",
"L%	c #A1CCB2",
"M%	c #C87949",
"N%	c #CB7978",
"O%	c #CB8052",
"P%	c #9ABDA6",
"Q%	c #AFC8D6",
"R%	c #D7DEDF",
"S%	c #5D8185",
"T%	c #87AC98",
"U%	c #ACC391",
"V%	c #8AB09C",
"W%	c #618D9E",
"X%	c #8FA1A4",
"Y%	c #6D878B",
"Z%	c #8CA2AB",
"`%	c #EAEEEF",
"                                                                                                ",
"                                                                                                ",
"                                                                                                ",
"  . + @ #                                                                                       ",
"$ % & * = -                                                                                     ",
"; > , ' ) ! ~ {           ] ^ /                                                                 ",
"( _ : < [ } | 1 2       3 4 5 6                                                                 ",
"7 8 9 0 a b c | d e   f g h i j k                                                               ",
"  l m n | o p q r s t u v w x y z                                                               ",
"    A B C D | E F G H I J K L M N                                                               ",
"      O P Q R S T U V W X Y Z `      ...                                                        ",
"        +.@.#.$.%.&.*.=.-.;.>.,.'.).!.~.                                                        ",
"            {.].^./.(._.:.<.[.}.|.1.2.3.                                                        ",
"            4.5.6.7.8.9.0.a.b.c.d.e.f.g.h.i.j.                                                  ",
"          k.l.m.n.o.p.q.r.s.t.u.v.w.x.y.z.A.B.                                                  ",
"          C.D.E.F.G.H.I.J.K.L.M.N.O.P.Q.R.S.T.  U.V.                                            ",
"        W.X.Y.Z.`. +.+++@+#+$+%+&+*+=+-+;+>+,+'+)+!+~+                                          ",
"        {+]+^+/+(+_+:+<+[+  }+|+1+2+3+4+5+6+7+8+9+0+                                            ",
"          a+      b+c+d+    e+f+g+h+i+j+k+l+m+n+o+p+q+r+s+t+                                    ",
"                u+v+w+    x+y+z+A+B+C+D+E+F+G+H+I+J+K+L+M+N+                                    ",
"                  O+    P+Q+R+S+T+U+V+W+X+Y+Z+`+ @.@+@@@#@    $@                                ",
"                        %@&@*@=@-@;@>@,@'@)@!@~@{@]@^@/@(@_@:@<@[@                              ",
"                      }@|@1@2@3@4@5@6@7@8@9@0@a@b@c@d@I+e@f@g@h@i@                              ",
"                              j@k@l@m@n@o@p@q@r@s@t@u@v@w@x@y@z@A@B@C@D@E@                      ",
"                              F@G@H@I@J@K@L@M@N@t@O@P@Q@R@S@T@U@V@W@X@Y@Z@                      ",
"                              `@   #.#+#@###$#%#&#*#=#-#;#>#,#'#)#!#~#{#]#                      ",
"                                    ^#/#(#_#:#<#[#}#|#1#2#3#4#5#6#7#8#9#0#                      ",
"                                    a#b#c#d#e#f#g#h#i#j#k#l#m#n#o#p#q#r#s#t#                    ",
"                                    u#    v#w#x#y#n@z#A#B#C#D#E#F#G#H#I#y@J#K#                  ",
"                                          L#M#N#I@O#P#Q#R#S#T#U#V#W#X#Y#Z#`# $.$                ",
"                                          +$@$#$$$%$&$*$=$-$;$>$,$'$)$!$~${$]$^$/$              ",
"                                                ($_$:$<$[$}$|$6.1$2$3$4$5$6$7$8$9$              ",
"                                                0$a$b$c$d$e$f$g$h$i$j$k$l$m$n$o$p$q$            ",
"                                                r$s$t$u$v$w$x$y$z$A$B$C$D$E$F$G$H$I$            ",
"                                                  J$K$L$M$N$O$J@P$Q$z#R$S$T$U$V$W$X$Y$          ",
"                                                  Z$`$ %.%+%@%#%$%%%&%*%=%-%;%>%,%'%)%!%        ",
"                                                            ~%{%d#X.]%^%/%(%_%:%<%[%}%|%1%      ",
"                                                                2%3%4%5%6%6%7%8%9%0%a%b%c%d%    ",
"                                                                    e%f%g%h%O$i%j%k%l%m%n%o%p%  ",
"                                                                          q%r%s%t%u%v%w%x%y%z%A%",
"                                                                              B%C%D%E%F%  G%H%I%",
"                                                                                J%K%L%M%N%O%P%Q%",
"                                                                                  R%S%T%U%V%W%  ",
"                                                                                      X%Y%Z%`%  ",
"                                                                                                ",
"                                                                                                ",
"                                                                                                ",
"                                                                                                "};
