/* XPM */
static char * tires32_xpm[] = {
"32 32 645 2",
"  	c None",
". 	c #CBCFC1",
"+ 	c #B6B9B2",
"@ 	c #999C97",
"# 	c #969994",
"$ 	c #8B8D89",
"% 	c #939690",
"& 	c #A8ABA2",
"* 	c #B6B9B1",
"= 	c #CFD2CD",
"- 	c #EAEDE6",
"; 	c #D3D4CE",
"> 	c #949594",
", 	c #6C6D6F",
"' 	c #61676A",
") 	c #505559",
"! 	c #54595D",
"~ 	c #4B5055",
"{ 	c #5D6266",
"] 	c #53585B",
"^ 	c #3D4246",
"/ 	c #3C4147",
"( 	c #383D45",
"_ 	c #3D4148",
": 	c #646967",
"< 	c #A4A7A0",
"[ 	c #E6E7E2",
"} 	c #B2B4AC",
"| 	c #717574",
"1 	c #5D6064",
"2 	c #5B5E63",
"3 	c #464B51",
"4 	c #464B53",
"5 	c #42474E",
"6 	c #495058",
"7 	c #323A41",
"8 	c #2C343A",
"9 	c #252C34",
"0 	c #262E36",
"a 	c #283037",
"b 	c #2A3038",
"c 	c #2E323C",
"d 	c #373B3E",
"e 	c #6A7069",
"f 	c #CACFC5",
"g 	c #E4E5E2",
"h 	c #898A88",
"i 	c #4D5053",
"j 	c #4D5358",
"k 	c #45494E",
"l 	c #363A44",
"m 	c #43474E",
"n 	c #41464F",
"o 	c #272E36",
"p 	c #222B32",
"q 	c #1E282E",
"r 	c #3B4148",
"s 	c #4A5158",
"t 	c #4C5059",
"u 	c #42454F",
"v 	c #363C42",
"w 	c #32393D",
"x 	c #414748",
"y 	c #C3C7C2",
"z 	c #7A807C",
"A 	c #5A5F63",
"B 	c #4B5157",
"C 	c #4C555B",
"D 	c #353B42",
"E 	c #40444D",
"F 	c #484C55",
"G 	c #343840",
"H 	c #292D36",
"I 	c #232730",
"J 	c #282D34",
"K 	c #3C4347",
"L 	c #7A7C7F",
"M 	c #9B9C9E",
"N 	c #A9A9AC",
"O 	c #ABABAC",
"P 	c #A0A2A1",
"Q 	c #7A7E87",
"R 	c #3D4351",
"S 	c #333C42",
"T 	c #5B6563",
"U 	c #DADCD5",
"V 	c #959B92",
"W 	c #565B5E",
"X 	c #44494D",
"Y 	c #42474C",
"Z 	c #2E3439",
"` 	c #32363F",
" .	c #2F333C",
"..	c #252932",
"+.	c #373941",
"@.	c #797A7E",
"#.	c #B2B1B1",
"$.	c #B0AFAB",
"%.	c #9EA19A",
"&.	c #90938F",
"*.	c #A2A4A0",
"=.	c #ABACA7",
"-.	c #BFBFB8",
";.	c #A8A7AD",
">.	c #595C66",
",.	c #353E3E",
"'.	c #7A8077",
").	c #BDC4BC",
"!.	c #484D4D",
"~.	c #404549",
"{.	c #3B4044",
"].	c #34383C",
"^.	c #24282C",
"/.	c #3F434B",
"(.	c #444851",
"_.	c #363A42",
":.	c #7F8080",
"<.	c #B6B6B3",
"[.	c #9B9C96",
"}.	c #ABA8A3",
"|.	c #676D66",
"1.	c #686E6C",
"2.	c #80837F",
"3.	c #878882",
"4.	c #A8A9A3",
"5.	c #C0BFB9",
"6.	c #AEAEB0",
"7.	c #3E464D",
"8.	c #41494A",
"9.	c #E2E3DD",
"0.	c #717771",
"a.	c #4A4F51",
"b.	c #32373B",
"c.	c #2A3035",
"d.	c #374047",
"e.	c #282D35",
"f.	c #1F232C",
"g.	c #20282F",
"h.	c #31343E",
"i.	c #8E8E8F",
"j.	c #ADABA6",
"k.	c #A6A59F",
"l.	c #8E8F89",
"m.	c #90908B",
"n.	c #5C5D60",
"o.	c #747A78",
"p.	c #6E7774",
"q.	c #838583",
"r.	c #787D78",
"s.	c #989B95",
"t.	c #C3BFBB",
"u.	c #8F8C99",
"v.	c #3B434B",
"w.	c #969D94",
"x.	c #BBBFAF",
"y.	c #4A4F53",
"z.	c #40454A",
"A.	c #34393D",
"B.	c #2D3137",
"C.	c #1D2329",
"D.	c #2F353D",
"E.	c #21262E",
"F.	c #272D34",
"G.	c #66686B",
"H.	c #B4B4AF",
"I.	c #7D827B",
"J.	c #939892",
"K.	c #A0A19B",
"L.	c #90918C",
"M.	c #747476",
"N.	c #7F8483",
"O.	c #6D7773",
"P.	c #848887",
"Q.	c #6F7476",
"R.	c #AAACAC",
"S.	c #BDBAB5",
"T.	c #B7B4B2",
"U.	c #4D5359",
"V.	c #737A73",
"W.	c #828480",
"X.	c #4B5054",
"Y.	c #303539",
"Z.	c #373C41",
"`.	c #22262E",
" +	c #22262F",
".+	c #192129",
"++	c #202931",
"@+	c #54555B",
"#+	c #B7B1B3",
"$+	c #CFCCCD",
"%+	c #838786",
"&+	c #797E7A",
"*+	c #B3B4AE",
"=+	c #83857F",
"-+	c #9F9F9A",
";+	c #9EA1A0",
">+	c #64706E",
",+	c #9DA19C",
"'+	c #ADB0B1",
")+	c #767D78",
"!+	c #A6A7A1",
"~+	c #D0C7C1",
"{+	c #78767F",
"]+	c #595F5F",
"^+	c #DBDDDA",
"/+	c #D0D3CB",
"(+	c #545957",
"_+	c #31363A",
":+	c #2B2F33",
"<+	c #1C2025",
"[+	c #2C3238",
"}+	c #1C252C",
"|+	c #282F36",
"1+	c #8D898D",
"2+	c #CCC7C7",
"3+	c #EEECE9",
"4+	c #8D928E",
"5+	c #555F5E",
"6+	c #AEADAA",
"7+	c #6E7174",
"8+	c #8E918E",
"9+	c #A6A6A4",
"0+	c #6E7379",
"a+	c #B6B8B3",
"b+	c #8C8F93",
"c+	c #838A87",
"d+	c #B5B6B0",
"e+	c #CDC8C0",
"f+	c #9A969B",
"g+	c #4D5253",
"h+	c #D1D3CE",
"i+	c #B1B6AE",
"j+	c #515756",
"k+	c #2F3438",
"l+	c #25292D",
"m+	c #1F2428",
"n+	c #23272C",
"o+	c #1A2026",
"p+	c #182027",
"q+	c #21282F",
"r+	c #454B51",
"s+	c #CAC4C5",
"t+	c #ECE8E7",
"u+	c #E8E5E1",
"v+	c #B7B5B2",
"w+	c #7B7F81",
"x+	c #ADACA8",
"y+	c #686D74",
"z+	c #8B8F8D",
"A+	c #BCBAB7",
"B+	c #A5A6A8",
"C+	c #AEAFAE",
"D+	c #777B82",
"E+	c #A9AEAC",
"F+	c #8D908A",
"G+	c #C4C2B8",
"H+	c #B8B3B6",
"I+	c #464B4D",
"J+	c #CBCEC8",
"K+	c #898F88",
"L+	c #3C4144",
"M+	c #33383C",
"N+	c #383D41",
"O+	c #1D2226",
"P+	c #282C34",
"Q+	c #1D222A",
"R+	c #2C2D34",
"S+	c #7A7A7F",
"T+	c #D7D2CF",
"U+	c #DEDED9",
"V+	c #9B9C98",
"W+	c #BEBEBC",
"X+	c #B4B1B7",
"Y+	c #C3C1C0",
"Z+	c #C9C8C1",
"`+	c #8F8E8D",
" @	c #9C9D99",
".@	c #9FA2A2",
"+@	c #AEB2AE",
"@@	c #9B9F98",
"#@	c #CECBC6",
"$@	c #C3BFBF",
"%@	c #454B4C",
"&@	c #C9CDC6",
"*@	c #747A74",
"=@	c #43484A",
"-@	c #2B3034",
";@	c #24292D",
">@	c #171B20",
",@	c #191D25",
"'@	c #161A23",
")@	c #3D3E45",
"!@	c #A6A4A6",
"~@	c #D2CEC8",
"{@	c #E0DCDA",
"]@	c #CECDC9",
"^@	c #585B5C",
"/@	c #7B7B7F",
"(@	c #AAABA8",
"_@	c #979B93",
":@	c #6C7375",
"<@	c #53585A",
"[@	c #C1C0BA",
"}@	c #D6D1CB",
"|@	c #B8B5AE",
"1@	c #979693",
"2@	c #ABA8A4",
"3@	c #C3BFBE",
"4@	c #484D4F",
"5@	c #CDD1CA",
"6@	c #656B63",
"7@	c #353A39",
"8@	c #2C3034",
"9@	c #363B3F",
"0@	c #22262B",
"a@	c #252931",
"b@	c #171B24",
"c@	c #20242D",
"d@	c #494D52",
"e@	c #BDB9B7",
"f@	c #B3B2B1",
"g@	c #B4B5B4",
"h@	c #AEACA9",
"i@	c #5E6468",
"j@	c #959595",
"k@	c #B5B4AE",
"l@	c #9A9B97",
"m@	c #62676B",
"n@	c #505758",
"o@	c #B2B1AB",
"p@	c #9F9E9C",
"q@	c #6F7171",
"r@	c #7D8381",
"s@	c #C0BEBA",
"t@	c #BCB8B7",
"u@	c #4F5556",
"v@	c #D5D8D2",
"w@	c #686E66",
"x@	c #3E4342",
"y@	c #262B2F",
"z@	c #1F2327",
"A@	c #1E2328",
"B@	c #171B23",
"C@	c #262B30",
"D@	c #66686D",
"E@	c #BCBCB8",
"F@	c #D0CFCD",
"G@	c #787C7E",
"H@	c #4F5558",
"I@	c #B5B1AD",
"J@	c #D1CCC8",
"K@	c #D4D0CD",
"L@	c #DDDBD9",
"M@	c #A1A1A1",
"N@	c #585D5F",
"O@	c #747875",
"P@	c #9EA09C",
"Q@	c #AEB0AC",
"R@	c #A9ABA6",
"S@	c #B0B0AB",
"T@	c #A3A2A6",
"U@	c #616761",
"V@	c #E1E4DE",
"W@	c #747A72",
"X@	c #3D4242",
"Y@	c #353A3E",
"Z@	c #2E3337",
"`@	c #1F232B",
" #	c #161B21",
".#	c #76777B",
"+#	c #B1B1AE",
"@#	c #ACABAE",
"##	c #A4A4A5",
"$#	c #BBBBBB",
"%#	c #9B9C9C",
"&#	c #898887",
"*#	c #C9C5C2",
"=#	c #B7B7B7",
"-#	c #919294",
";#	c #51585C",
">#	c #5F6465",
",#	c #727573",
"'#	c #C2BEBB",
")#	c #B3B0AC",
"!#	c #80817B",
"~#	c #BBBBB7",
"{#	c #898A8F",
"]#	c #798078",
"^#	c #8A9086",
"/#	c #454B4B",
"(#	c #282D31",
"_#	c #1E2327",
":#	c #191E22",
"<#	c #838486",
"[#	c #C7C7C6",
"}#	c #E9E4E0",
"|#	c #EEEDE8",
"1#	c #C8CAC5",
"2#	c #6D7173",
"3#	c #676A6D",
"4#	c #A2A2A3",
"5#	c #96999D",
"6#	c #8A9094",
"7#	c #7A838A",
"8#	c #959A9A",
"9#	c #BBBCB7",
"0#	c #767B78",
"a#	c #8E928F",
"b#	c #B4B5AF",
"c#	c #C0BCBC",
"d#	c #686C73",
"e#	c #A1A99F",
"f#	c #AFB4A9",
"g#	c #43494A",
"h#	c #373C40",
"i#	c #34383D",
"j#	c #24282F",
"k#	c #1A1E25",
"l#	c #252A31",
"m#	c #848589",
"n#	c #C8C7C4",
"o#	c #D8D4D0",
"p#	c #CFCDCA",
"q#	c #AFAFAD",
"r#	c #949794",
"s#	c #B6B7B6",
"t#	c #B7B3B4",
"u#	c #AFADB0",
"v#	c #A2A2A7",
"w#	c #7E8588",
"x#	c #BFC0BD",
"y#	c #C6C1BD",
"z#	c #878883",
"A#	c #737571",
"B#	c #A4A59F",
"C#	c #B3B1B2",
"D#	c #5A6064",
"E#	c #CBCEC7",
"F#	c #D3D7D1",
"G#	c #636864",
"H#	c #3B4043",
"I#	c #32373A",
"J#	c #272C33",
"K#	c #1D2129",
"L#	c #262A32",
"M#	c #797B80",
"N#	c #BCBBB7",
"O#	c #D4D1CD",
"P#	c #C1BFBD",
"Q#	c #989998",
"R#	c #AEAFAB",
"S#	c #999C98",
"T#	c #6F7270",
"U#	c #D1CECA",
"V#	c #C7C5BF",
"W#	c #A1A7A3",
"X#	c #878A88",
"Y#	c #C2C0BB",
"Z#	c #AFAFA9",
"`#	c #A9AAA4",
" $	c #C5C5BF",
".$	c #94939A",
"+$	c #616962",
"@$	c #8B8E86",
"#$	c #414746",
"$$	c #464B4C",
"%$	c #2D3236",
"&$	c #1D2126",
"*$	c #292E33",
"=$	c #686C70",
"-$	c #BEBCB9",
";$	c #C2C5C3",
">$	c #6F7170",
",$	c #565C5A",
"'$	c #969C99",
")$	c #656B68",
"!$	c #797B76",
"~$	c #B6B4B0",
"{$	c #808680",
"]$	c #B6B5AF",
"^$	c #5B6462",
"/$	c #92958D",
"($	c #84857E",
"_$	c #B0AFA9",
":$	c #D7D3CE",
"<$	c #5D5E64",
"[$	c #A0A79B",
"}$	c #CFD1CA",
"|$	c #5D615D",
"1$	c #505456",
"2$	c #2D3235",
"3$	c #1E2226",
"4$	c #909392",
"5$	c #646C69",
"6$	c #A1A3A3",
"7$	c #909493",
"8$	c #8F9392",
"9$	c #BDBCB9",
"0$	c #848483",
"a$	c #69716C",
"b$	c #5E6665",
"c$	c #83887F",
"d$	c #B7B6B1",
"e$	c #DFDCD8",
"f$	c #9E9AA5",
"g$	c #676B66",
"h$	c #DDE1DC",
"i$	c #8A8B84",
"j$	c #515353",
"k$	c #444A49",
"l$	c #393E41",
"m$	c #23282C",
"n$	c #292E32",
"o$	c #A9A4A6",
"p$	c #AFAEAE",
"q$	c #A1A4A2",
"r$	c #9C9D9C",
"s$	c #8D9291",
"t$	c #9EA2A1",
"u$	c #949494",
"v$	c #6A6E70",
"w$	c #868C87",
"x$	c #848484",
"y$	c #7B7E7E",
"z$	c #868C83",
"A$	c #DBD9D3",
"B$	c #CCC7CA",
"C$	c #5C5F6A",
"D$	c #A2A79C",
"E$	c #E8E9E2",
"F$	c #7B8071",
"G$	c #3D4241",
"H$	c #3D4244",
"I$	c #2D3135",
"J$	c #303439",
"K$	c #6C6D70",
"L$	c #CEC9CB",
"M$	c #BBBABB",
"N$	c #969797",
"O$	c #A8ADAB",
"P$	c #545B59",
"Q$	c #868D8B",
"R$	c #636B69",
"S$	c #929693",
"T$	c #5D655F",
"U$	c #AFB5AD",
"V$	c #D9DBD7",
"W$	c #D7D9D9",
"X$	c #666870",
"Y$	c #6F766C",
"Z$	c #DDE1D8",
"`$	c #5F6561",
" %	c #474C4F",
".%	c #3F4448",
"+%	c #3C3F45",
"@%	c #ADA7AC",
"#%	c #C7C6C2",
"$%	c #B6B7B5",
"%%	c #8F9391",
"&%	c #676D6B",
"*%	c #939896",
"=%	c #7D8683",
"-%	c #A5A6A5",
";%	c #B8B9B3",
">%	c #D1D3C9",
",%	c #DCDCDD",
"'%	c #81848E",
")%	c #595E5D",
"!%	c #C6CBC2",
"~%	c #D9D9D9",
"{%	c #767A79",
"]%	c #3F4545",
"^%	c #2C3134",
"/%	c #A0A2A7",
"(%	c #C4C5C0",
"_%	c #C1C1BF",
":%	c #B3B3B1",
"<%	c #C5C2BD",
"[%	c #CEC9C5",
"}%	c #D7D2D0",
"|%	c #C0BEC3",
"1%	c #62636E",
"2%	c #4D5156",
"3%	c #BFC4BA",
"4%	c #E3E5E4",
"5%	c #7D8280",
"6%	c #494F4E",
"7%	c #242A2C",
"8%	c #2C3133",
"9%	c #464951",
"0%	c #8F9096",
"a%	c #C0BFC1",
"b%	c #CECDCC",
"c%	c #CFCEC8",
"d%	c #D0CCCD",
"e%	c #C0BDBF",
"f%	c #808187",
"g%	c #4D525F",
"h%	c #454E4F",
"i%	c #A7ACA4",
"j%	c #C5C5B9",
"k%	c #5A5E58",
"l%	c #333837",
"m%	c #2F3439",
"n%	c #363A41",
"o%	c #373B45",
"p%	c #3E434E",
"q%	c #565B66",
"r%	c #5A6068",
"s%	c #4A5058",
"t%	c #373D46",
"u%	c #353E43",
"v%	c #52585A",
"w%	c #C5C9BF",
"x%	c #EDEADF",
"y%	c #A5A29C",
"z%	c #606561",
"A%	c #30343B",
"B%	c #333740",
"C%	c #363F45",
"D%	c #353F45",
"E%	c #343E45",
"F%	c #333C43",
"G%	c #343C41",
"H%	c #777A75",
"I%	c #CBCDC7",
"J%	c #F4F0E9",
"K%	c #CECAC3",
"L%	c #A3A69E",
"M%	c #6F756C",
"N%	c #4D534D",
"O%	c #353C38",
"P%	c #303938",
"Q%	c #414A46",
"R%	c #59615A",
"S%	c #8F928B",
"T%	c #D3D4CC",
"U%	c #EAE6DD",
"V%	c #D0CDC4",
"W%	c #B0B2A7",
"X%	c #9CA193",
"Y%	c #99A191",
"Z%	c #ABB2A5",
"`%	c #CACFC4",
" &	c #E6E7E0",
"                                                                ",
"                        . + @ # $ % & * = -                     ",
"                  ; > , ' ) ! ~ { ] ^ / ( _ : < [               ",
"                } | 1 2 3 4 5 6 7 8 9 0 a b c d e f             ",
"            g h i j k / l m n o p q 8 r s t u v w x y           ",
"            z A B C D E F G H I J K L M N O P Q R S T U         ",
"          V W X Y Z G `  .H ..+.@.#.$.%.&.*.=.-.;.>.,.'.        ",
"        ).!.~.{.].^./.(...I _.:.<.[.}.|.1.2.3.4.5.6.7.8.9.      ",
"        0.a.^ b.c.d.e.f.g.h.i.j.k.l.m.n.o.p.q.r.s.t.u.v.w.      ",
"      x.y.z.A.B.C.7 D.E.F.G.H.I.J.K.L.M.N.O.P.Q.R.S.T.U.V.      ",
"      W.X.Y.Z.`.`  +.+++@+#+$+%+&+*+=+-+;+>+,+'+)+!+~+{+]+^+    ",
"    /+(+_+b.:+<+[+9 }+|+1+2+3+4+5+6+7+8+9+0+a+b+c+d+e+f+g+h+    ",
"    i+j+k+l+m+n+o+p+q+r+s+t+u+v+w+x+y+z+A+B+C+D+E+F+G+H+I+J+    ",
"    K+L+M+N+O+P+I Q+R+S+T+    U+V+W+X+Y+Z+`+ @.@+@@@#@$@%@&@    ",
"    *@=@-@;@>@,@'@f.)@!@~@{@  ]@^@/@(@_@:@<@[@}@|@1@2@3@4@5@    ",
"    6@7@8@9@0@a@b@c@d@e@  f@g@h@i@j@k@l@m@n@o@p@q@r@s@t@u@v@    ",
"    w@x@y@z@A@,@B@C@D@E@F@G@H@I@J@K@L@M@{ N@O@P@Q@R@S@T@U@V@    ",
"    W@X@Y@k+Z@`@ #;@.#+#@###$#%#&#*#=#-#;#>#,#'#)#!#~#{#]#      ",
"    ^#/#9@l+(#_#:#y@<#[#}#|#1#2#3#4#5#6#7#8#9#0#a#b#c#d#e#      ",
"    f#g#Y@h#i#j#k#l#m#n#o#p#q#r#s#t#u#v#w#x#y#z#A#B#C#D#E#      ",
"    F#G#H#I#b.J#K#L#M#N#O#P#Q#R#S#T#U#V#W#X#Y#Z#`# $.$+$        ",
"      @$#$$$k+%$&$*$=$-$;$>$,$'$)$!$~${$]$^$/$($_$:$<$[$        ",
"      }$|$1$2$A.3$-@! t@4$5$6$7$8$9$0$a$~$b$c$d$e$f$g$h$        ",
"        i$j$k$l$m$n$m o$p$q$r$s$t$u$v$w$x$y$z$A$B$C$D$          ",
"        E$F$G$H$I$l+J$K$L$M$N$O$P$Q$R$S$T$U$V$W$X$Y$            ",
"          Z$`$ %.%n$Z@+%@%#%$%%%&%*%=%-%;%>%,%'%)%!%            ",
"            ~%{%]%^%n$M+X./%(%_%:%;%<%[%}%|%1%2%3%              ",
"              4%5%6%7%8%M+9%0%a%b%c%d%e%f%g%h%i%                ",
"                  j%k%l%m%n%o%p%q%r%s%t%u%v%w%                  ",
"                  x%y%z%A.A%B%C%D%E%F%G%H%I%                    ",
"                  J%K%L%M%N%O%P%Q%R%S%T%                        ",
"                    U%V%W%X%Y%Z%`% &                            "};
