/* XPM */
static char * aavase32_xpm[] = {
"32 32 196 2",
"  	c None",
". 	c #925448",
"+ 	c #A5574D",
"@ 	c #9B3530",
"# 	c #B34843",
"$ 	c #A83933",
"% 	c #812520",
"& 	c #902F2D",
"* 	c #84362D",
"= 	c #79281F",
"- 	c #863231",
"; 	c #8B2321",
"> 	c #B3443C",
", 	c #B56054",
"' 	c #A9332F",
") 	c #932720",
"! 	c #6E1E1B",
"~ 	c #6D2322",
"{ 	c #6B2322",
"] 	c #672321",
"^ 	c #6C2022",
"/ 	c #862625",
"( 	c #A43B32",
"_ 	c #9F4338",
": 	c #B34543",
"< 	c #B12F30",
"[ 	c #952C28",
"} 	c #6A2123",
"| 	c #552224",
"1 	c #541C1C",
"2 	c #541C20",
"3 	c #5B2418",
"4 	c #6B2A23",
"5 	c #843028",
"6 	c #9C362E",
"7 	c #8C3739",
"8 	c #932D32",
"9 	c #882F32",
"0 	c #6E272A",
"a 	c #622A26",
"b 	c #552218",
"c 	c #462025",
"d 	c #47211F",
"e 	c #5C2421",
"f 	c #853029",
"g 	c #A23A31",
"h 	c #BE5D50",
"i 	c #913836",
"j 	c #973532",
"k 	c #7B2C25",
"l 	c #984932",
"m 	c #9E583B",
"n 	c #91512C",
"o 	c #713F2C",
"p 	c #582930",
"q 	c #712E2D",
"r 	c #95362D",
"s 	c #AC4036",
"t 	c #BE4F48",
"u 	c #943934",
"v 	c #9D3834",
"w 	c #8C352E",
"x 	c #A55831",
"y 	c #7B411F",
"z 	c #874C24",
"A 	c #9B5533",
"B 	c #72282E",
"C 	c #8C332E",
"D 	c #AC3C31",
"E 	c #BD4943",
"F 	c #964141",
"G 	c #8F3E3B",
"H 	c #842928",
"I 	c #A74A2E",
"J 	c #A95933",
"K 	c #A54F2B",
"L 	c #AB432D",
"M 	c #912E2F",
"N 	c #943630",
"O 	c #A83C32",
"P 	c #B95145",
"Q 	c #85363B",
"R 	c #853030",
"S 	c #93272A",
"T 	c #AA3432",
"U 	c #B23E31",
"V 	c #B2372B",
"W 	c #A82828",
"X 	c #A02829",
"Y 	c #AB3333",
"Z 	c #A94C41",
"` 	c #B15046",
" .	c #A0393D",
"..	c #A12F31",
"+.	c #A9282B",
"@.	c #AD2828",
"#.	c #A4312E",
"$.	c #98332A",
"%.	c #AB3B38",
"&.	c #B2393E",
"*.	c #8A3F32",
"=.	c #9B322E",
"-.	c #A7393A",
";.	c #A54841",
">.	c #B09570",
",.	c #AB6C65",
"'.	c #B5AF79",
").	c #A29E67",
"!.	c #A7927F",
"~.	c #B7A788",
"{.	c #B5A58C",
"].	c #AFA883",
"^.	c #C6B29E",
"/.	c #AB9D89",
"(.	c #98887A",
"_.	c #CEB7A3",
":.	c #BCB28E",
"<.	c #A18D78",
"[.	c #CFBAA4",
"}.	c #CEB7A0",
"|.	c #B2A982",
"1.	c #AB9780",
"2.	c #D2C0B0",
"3.	c #D2C0AD",
"4.	c #DECBB3",
"5.	c #D7C0A7",
"6.	c #B1A77F",
"7.	c #C4B197",
"8.	c #DEC7B0",
"9.	c #D3BCA8",
"0.	c #CFC0B3",
"a.	c #D9C8B7",
"b.	c #DDCCB6",
"c.	c #E7D4BA",
"d.	c #E0CEAD",
"e.	c #C1B88F",
"f.	c #DFCEAE",
"g.	c #E3CEB3",
"h.	c #D7C2AD",
"i.	c #BDA89B",
"j.	c #D6C4B8",
"k.	c #E3D1C2",
"l.	c #E6D3C1",
"m.	c #E9D6C1",
"n.	c #DBCFA6",
"o.	c #D4C9A4",
"p.	c #E9D8BC",
"q.	c #E5D3BB",
"r.	c #E2CFBF",
"s.	c #C3AFA5",
"t.	c #D0C0B3",
"u.	c #E1CEC3",
"v.	c #E5D0C8",
"w.	c #E7D3CE",
"x.	c #CEC59D",
"y.	c #D5CCAA",
"z.	c #DDCBC3",
"A.	c #DFCBC2",
"B.	c #DECAC4",
"C.	c #C7B3AE",
"D.	c #BBAAA1",
"E.	c #DCCAC0",
"F.	c #E0CBC2",
"G.	c #E3D2C5",
"H.	c #C3BB93",
"I.	c #D8D1B1",
"J.	c #DBCBC1",
"K.	c #E0CCC6",
"L.	c #DBC6C3",
"M.	c #C6B2AD",
"N.	c #917E7A",
"O.	c #D7C3BB",
"P.	c #DFCABF",
"Q.	c #CDC39F",
"R.	c #B6B07F",
"S.	c #CEC2AF",
"T.	c #C6B6AB",
"U.	c #C1ADA5",
"V.	c #CAB4AF",
"W.	c #D1BBB4",
"X.	c #7C6A66",
"Y.	c #94807D",
"Z.	c #C9B5B2",
"`.	c #CCC0A5",
" +	c #B8AB7D",
".+	c #C3AFAF",
"++	c #BFAAAE",
"@+	c #AF9899",
"#+	c #9F8783",
"$+	c #6D5E5C",
"%+	c #746364",
"&+	c #8F8470",
"*+	c #A08E72",
"=+	c #90786D",
"-+	c #856F66",
";+	c #846F6B",
"                                                                ",
"                                .   + @                         ",
"                            # $ % & * = - ; > ,                 ",
"                            ' ) ! ~ { ] ^ / ( _                 ",
"                          : < [ } | 1 2 3 4 5 6                 ",
"                          7 8 9 0 a b c d e f g h               ",
"                          i j k l m n o p q r s t               ",
"                          u v w x y z A B C D E                 ",
"                          F G H I J K L M N O P                 ",
"                          Q R S T U V W X Y Z `                 ",
"                               ...+.@.#.$.%.&.                  ",
"                                *.=.-.;.                        ",
"                                >.,.                            ",
"                                '.                              ",
"                              ).                                ",
"                        !.~.{.].                                ",
"                          ^./.(.                                ",
"                          _.:.<.                                ",
"                        [.}.|.1.                                ",
"                    2.3.4.5.6.7.8.9.                            ",
"                  0.a.b.c.d.e.f.g.h.i.                          ",
"                  j.k.l.m.n.o.p.q.r.s.                          ",
"                  t.u.v.w.x.y.z.A.B.C.                          ",
"                  D.E.F.G.H.I.J.K.L.M.                          ",
"                  N.O.P.Q.R.S.T.U.V.W.                          ",
"                  X.Y.Z.`. +.+++@+#+                            ",
"                    $+%+&+*+=+-+;+                              ",
"                                                                ",
"                                                                ",
"                                                                ",
"                                                                ",
"                                                                "};
