/* XPM */
static char * aero16_xpm[] = {
"16 16 127 2",
"  	c None",
". 	c #C4C4FE",
"+ 	c #C7C7FE",
"@ 	c #C4C4FD",
"# 	c #C6C6FE",
"$ 	c #C4C3FE",
"% 	c #C6C6FD",
"& 	c #C3C3FE",
"* 	c #C7C7FD",
"= 	c #D6D6FE",
"- 	c #E8E8FE",
"; 	c #D8EBEB",
"> 	c #BEDEDE",
", 	c #9DCDCD",
"' 	c #94C9C9",
") 	c #8EC6C6",
"! 	c #98CBCB",
"~ 	c #B1D8D8",
"{ 	c #DBEDED",
"] 	c #EBEBFE",
"^ 	c #D9D9FE",
"/ 	c #C9C9FD",
"( 	c #93C8C8",
"_ 	c #AFD7D7",
": 	c #C9E4E3",
"< 	c #E0F5E5",
"[ 	c #E5F7E7",
"} 	c #D5EAEA",
"| 	c #ACD5D5",
"1 	c #8AC4C4",
"2 	c #87C3C3",
"3 	c #89C4C4",
"4 	c #A1CFCF",
"5 	c #D7EAEA",
"6 	c #ABF795",
"7 	c #A7F68F",
"8 	c #A7F78F",
"9 	c #B8F8A5",
"0 	c #B9F8A7",
"a 	c #B1F79C",
"b 	c #A7F690",
"c 	c #BBF8A9",
"d 	c #E2FBDB",
"e 	c #E1EFEF",
"f 	c #B0D7D7",
"g 	c #89C3C3",
"h 	c #838383",
"i 	c #696969",
"j 	c #656565",
"k 	c #707070",
"l 	c #7D7D7D",
"m 	c #9C9C9C",
"n 	c #E0E0E0",
"o 	c #E6FCE0",
"p 	c #C3F9B3",
"q 	c #A8F791",
"r 	c #A7F790",
"s 	c #C8F9BA",
"t 	c #EFFCEB",
"u 	c #969E9E",
"v 	c #6C6C6C",
"w 	c #7F7F7F",
"x 	c #808080",
"y 	c #737373",
"z 	c #525252",
"A 	c #575757",
"B 	c #828282",
"C 	c #CFCFCF",
"D 	c #DDFBD4",
"E 	c #B1F79D",
"F 	c #9DF0F0",
"G 	c #9A9A9A",
"H 	c #767676",
"I 	c #585858",
"J 	c #545454",
"K 	c #484848",
"L 	c #4A4A4A",
"M 	c #5A5A5A",
"N 	c #686868",
"O 	c #474747",
"P 	c #535353",
"Q 	c #7C7C7C",
"R 	c #C1C1C1",
"S 	c #D9D9D9",
"T 	c #D4D4D4",
"U 	c #B3B3B3",
"V 	c #B1B1B1",
"W 	c #8F8F8F",
"X 	c #6E6E6E",
"Y 	c #7FDBDB",
"Z 	c #FEDEBD",
"` 	c #FECE9E",
" .	c #FECB98",
"..	c #FED6AE",
"+.	c #FEE6CD",
"@.	c #FEF0E2",
"#.	c #FEE7CF",
"$.	c #FEF3E9",
"%.	c #FEEBD9",
"&.	c #FEDCBA",
"*.	c #FED4AA",
"=.	c #FECA96",
"-.	c #FEC68F",
";.	c #FEC489",
">.	c #FEC68E",
",.	c #FEC58B",
"'.	c #FEEBEB",
").	c #FEE7E7",
"!.	c #FEC6C6",
"~.	c #FEE9E9",
"{.	c #FEA1A0",
"].	c #FEA1A1",
"^.	c #FEC2C2",
"/.	c #FE9999",
"(.	c #FE8F8F",
"_.	c #FE8989",
":.	c #FD8E8E",
"<.	c #FE8E8F",
"[.	c #FD8989",
"}.	c #C68E8E",
"|.	c #C68F8F",
"1.	c #C38989",
"2.	c #C68E8F",
"3.	c #C48989",
"4.	c #C48B8B",
"5.	c #C58D8D",
"6.	c #CB9797",
"                                ",
". + @ . # # # # $ . % & * = -   ",
"  ; > , ' ) ) ! ~ {       ] ^ / ",
"( _ : < [       } | 1 2 3 4 5   ",
"6 7 8 9 0 a b b b c d     e f g ",
"  h i j j k l m n o p b q r s t ",
"u v w x x x x y z A B C     D E ",
"F G H v I J K L M M N O P Q R   ",
"                S T U V W W X Y ",
"Z `  . . . ...Z +.@.            ",
"#.$.        %.#.&.*.=.-.;.>.,.;.",
"'.).!.~.'.'.                    ",
"{.].^.].].]./.(.(._.:.<.[.(._.(.",
"                                ",
"}.|.|.|.1.2.3.|.|.|.4.5.|.1.|.6.",
"                                "};
