/* XPM */
static char * brakes16_xpm[] = {
"16 16 179 2",
"  	c None",
". 	c #E0E2E0",
"+ 	c #C4C6C2",
"@ 	c #B8BAB5",
"# 	c #B7B8B6",
"$ 	c #C3C5C4",
"% 	c #DFE1E0",
"& 	c #E5E6E4",
"* 	c #9C9F9C",
"= 	c #828782",
"- 	c #8B918B",
"; 	c #959A96",
"> 	c #9CA09F",
", 	c #989C9B",
"' 	c #939896",
") 	c #A6ABAA",
"! 	c #E3E3E3",
"~ 	c #D4D7D4",
"{ 	c #808581",
"] 	c #7A7F7B",
"^ 	c #818682",
"/ 	c #868B87",
"( 	c #9FA3A1",
"_ 	c #A2A7A4",
": 	c #9DA1A0",
"< 	c #9CA2A0",
"[ 	c #D5D7D7",
"} 	c #E4E5E4",
"| 	c #818681",
"1 	c #7D827E",
"2 	c #767B77",
"3 	c #757975",
"4 	c #72776F",
"5 	c #7A7F77",
"6 	c #92948E",
"7 	c #AAAEA9",
"8 	c #B2B6B4",
"9 	c #A3A8A6",
"0 	c #A6AAA9",
"a 	c #A8ADAC",
"b 	c #E0E2E1",
"c 	c #9EA19E",
"d 	c #838884",
"e 	c #7B807C",
"f 	c #6C716A",
"g 	c #60645B",
"h 	c #7C8079",
"i 	c #8B8F89",
"j 	c #9C9E9B",
"k 	c #C6C8C6",
"l 	c #D0D3D2",
"m 	c #BBC3C0",
"n 	c #B2BBB8",
"o 	c #A8B1AE",
"p 	c #B4BBB9",
"q 	c #E8EAE8",
"r 	c #898D89",
"s 	c #767B74",
"t 	c #55584F",
"u 	c #777C75",
"v 	c #A5A9A5",
"w 	c #909490",
"x 	c #ACAEAE",
"y 	c #E1E1E1",
"z 	c #DFE0E0",
"A 	c #A9ADAA",
"B 	c #B7BDB9",
"C 	c #BAC3C0",
"D 	c #BCC1C0",
"E 	c #E7E9E8",
"F 	c #CFD1CE",
"G 	c #9FA4A0",
"H 	c #909590",
"I 	c #6D726A",
"J 	c #666962",
"K 	c #787D78",
"L 	c #979A97",
"M 	c #E3E4E3",
"N 	c #E0E0DF",
"O 	c #B3B5B2",
"P 	c #91958E",
"Q 	c #999E9A",
"R 	c #B3B9B5",
"S 	c #B6BEBB",
"T 	c #D5D9D8",
"U 	c #C6C7C6",
"V 	c #A8AEAA",
"W 	c #969C97",
"X 	c #686D64",
"Y 	c #7F817B",
"Z 	c #7E827E",
"` 	c #D8DAD8",
" .	c #ECEDEB",
"..	c #8D908C",
"+.	c #898E84",
"@.	c #AAB2AE",
"#.	c #CBD0CE",
"$.	c #C6C7C7",
"%.	c #A0A6A3",
"&.	c #A4ABA6",
"*.	c #747870",
"=.	c #9C9E96",
"-.	c #A0A29F",
";.	c #DDDEDC",
">.	c #E6E8E7",
",.	c #838984",
"'.	c #82887F",
").	c #878C87",
"!.	c #939894",
"~.	c #9CA19C",
"{.	c #C2C7C5",
"].	c #D7D9D8",
"^.	c #959998",
"/.	c #9EA3A0",
"(.	c #8C918B",
"_.	c #8A8D85",
":.	c #ADAFAB",
"<.	c #E3E5E4",
"[.	c #E0E2E2",
"}.	c #9BA09D",
"|.	c #8B9089",
"1.	c #8E938E",
"2.	c #8A8F8B",
"3.	c #929791",
"4.	c #CED0CE",
"5.	c #949796",
"6.	c #929795",
"7.	c #7D8077",
"8.	c #B7B9B6",
"9.	c #C2C4C4",
"0.	c #AEB1AF",
"a.	c #8F9490",
"b.	c #858B85",
"c.	c #838883",
"d.	c #868B86",
"e.	c #888D88",
"f.	c #888D89",
"g.	c #979996",
"h.	c #BBBDBC",
"i.	c #888C8B",
"j.	c #8E9290",
"k.	c #909392",
"l.	c #80837B",
"m.	c #999C96",
"n.	c #A7A9A4",
"o.	c #8E918D",
"p.	c #7E837E",
"q.	c #898E8A",
"r.	c #AFB0AF",
"s.	c #8A8F8E",
"t.	c #898D8C",
"u.	c #909291",
"v.	c #8C8F88",
"w.	c #868981",
"x.	c #7E817B",
"y.	c #898C89",
"z.	c #969898",
"A.	c #818584",
"B.	c #868A89",
"C.	c #838886",
"D.	c #848885",
"E.	c #888C89",
"F.	c #8B8F8E",
"G.	c #888D8A",
"H.	c #888B88",
"I.	c #EBEBE9",
"J.	c #BDC0BF",
"K.	c #808682",
"L.	c #7B807E",
"M.	c #7A7E7D",
"N.	c #7A7F7C",
"O.	c #7E827C",
"P.	c #848683",
"Q.	c #BBBDB9",
"R.	c #A4A5A5",
"S.	c #949594",
"T.	c #929491",
"U.	c #AAABA7",
"V.	c #EAEBE9",
"          . + @ # $ %           ",
"      & * = - ; > , ' ) !       ",
"    ~ { ] ^ / ; ( _ : < : [     ",
"  } | 1 2 3 4 5 6 7 8 9 0 a b   ",
"  c d e f g h i j k l m n o p   ",
"q ; r s t u v w x y z A B C D E ",
"F G H I J K L M   N O P Q R S T ",
"U V W X Y Z `      ...+./ G @.#.",
"$.%.&.*.=.-.;.    >.,.'.).!.~.{.",
"].^./.(._.:.k <.[.}.G |.1.2.3.4.",
"  5.6.; 7.8.9.0.a.b.c.d.e.f.g.  ",
"  h.i.j.k.l.m.n.o.p.| q./ 2.r.  ",
"    : s.t.u.v.w.x./ q.q.y.c     ",
"      z.A.B.C.D.E.F.G.H.g.I.    ",
"        J.K.L.M.N.O.P.Q.        ",
"            R.S.T.U.V.          "};
