/* XPM */
static char * drivetrain32_xpm[] = {
"32 32 315 2",
"  	c None",
". 	c #EFE9E7",
"+ 	c #E7D9D3",
"@ 	c #EBE0DB",
"# 	c #EDE2DE",
"$ 	c #E4CEBD",
"% 	c #ECBB6A",
"& 	c #F0B94C",
"* 	c #E7D0BA",
"= 	c #F0E8E5",
"- 	c #D9C4BB",
"; 	c #D0B1A3",
"> 	c #D9BA9F",
", 	c #E9B969",
"' 	c #EABE80",
") 	c #EAC6B0",
"! 	c #F6ECE6",
"~ 	c #E4D9D4",
"{ 	c #C4A89B",
"] 	c #CBAB9C",
"^ 	c #D6B2A1",
"/ 	c #E2BBA8",
"( 	c #F3C9B4",
"_ 	c #F7CEBA",
": 	c #DEBEB3",
"< 	c #DAC9C2",
"[ 	c #D9C6BE",
"} 	c #C8ADA1",
"| 	c #C9AA9C",
"1 	c #D1B0A2",
"2 	c #DFBBAC",
"3 	c #EFC8B7",
"4 	c #F8D1BF",
"5 	c #E7C4B5",
"6 	c #D7B9AF",
"7 	c #DAC7C4",
"8 	c #F4EDEA",
"9 	c #F1E9E5",
"0 	c #EEE5E0",
"a 	c #E8DCD6",
"b 	c #DBC7BF",
"c 	c #D7C2B9",
"d 	c #D3BCB1",
"e 	c #D0B6AA",
"f 	c #CCAFA2",
"g 	c #CCAD9F",
"h 	c #CEAFA1",
"i 	c #D0B0A2",
"j 	c #D0B1A6",
"k 	c #D5B6AC",
"l 	c #E1C2B9",
"m 	c #EFCEC4",
"n 	c #F1CFC7",
"o 	c #D2BBBA",
"p 	c #D3BEBE",
"q 	c #E4C9C3",
"r 	c #E7D6CD",
"s 	c #C7BBB8",
"t 	c #C2B8B9",
"u 	c #CBBCB7",
"v 	c #DFC2B2",
"w 	c #DABCAC",
"x 	c #D4B5A6",
"y 	c #D0B1A1",
"z 	c #D0B0A0",
"A 	c #CFB1A3",
"B 	c #D2B3A5",
"C 	c #D7B6A7",
"D 	c #DEBBAB",
"E 	c #DFBDAF",
"F 	c #D2B9B0",
"G 	c #D2B5AC",
"H 	c #D3B8B3",
"I 	c #DAC1C0",
"J 	c #E6CDCD",
"K 	c #F1D5D2",
"L 	c #F2D5D0",
"M 	c #F5D4CC",
"N 	c #EECDC5",
"O 	c #F4E8E1",
"P 	c #E7CEBF",
"Q 	c #C6AD9F",
"R 	c #B6A49F",
"S 	c #B6A5A1",
"T 	c #C4AA9E",
"U 	c #E9C7B7",
"V 	c #E7C5B5",
"W 	c #D5B4A3",
"X 	c #CFB2A3",
"Y 	c #D2B4A7",
"Z 	c #DEC4BD",
"` 	c #DEC4BE",
" .	c #E0C6C0",
"..	c #E3C8C2",
"+.	c #E9CDC7",
"@.	c #E4CBC8",
"#.	c #B8B3AD",
"$.	c #C3B2B3",
"%.	c #C2AEAD",
"&.	c #C5B2B4",
"*.	c #CBBCC2",
"=.	c #D8CDD9",
"-.	c #E4D8E5",
";.	c #E8D8E2",
">.	c #EDD6DB",
",.	c #DFC5C3",
"'.	c #EAD9D2",
").	c #FDE4DB",
"!.	c #DDBDAD",
"~.	c #D3B19E",
"{.	c #C9AA99",
"].	c #AC9C9A",
"^.	c #B2A9AC",
"/.	c #A89EA0",
"(.	c #B09E9B",
"_.	c #DCC8C9",
":.	c #CEBCBB",
"<.	c #BEADAA",
"[.	c #BAAEB0",
"}.	c #C1B3B4",
"|.	c #DBCFD6",
"1.	c #DACFD5",
"2.	c #D1C4CA",
"3.	c #CEC1C6",
"4.	c #D4C7CE",
"5.	c #D0C5CC",
"6.	c #C5BAC2",
"7.	c #B9AAAB",
"8.	c #B4A5A8",
"9.	c #B4A8AF",
"0.	c #BCB3BD",
"a.	c #C8C2D1",
"b.	c #D1CDDF",
"c.	c #D8D3E5",
"d.	c #E2DCE9",
"e.	c #CDC3CB",
"f.	c #BFB5B7",
"g.	c #FDA48B",
"h.	c #B18F8B",
"i.	c #9D8A82",
"j.	c #9E8E8A",
"k.	c #AA9D9E",
"l.	c #BAB2B9",
"m.	c #A59EA2",
"n.	c #978B8A",
"o.	c #B3B0BC",
"p.	c #AFAAB3",
"q.	c #958E92",
"r.	c #9F9EA6",
"s.	c #A4A2AC",
"t.	c #B8B9C7",
"u.	c #B3B4C2",
"v.	c #B2AFBA",
"w.	c #AFACB7",
"x.	c #AFAEBB",
"y.	c #AAA8B5",
"z.	c #A39FA9",
"A.	c #AD9D9A",
"B.	c #9C9496",
"C.	c #A39AA1",
"D.	c #A5A0AC",
"E.	c #ACA9B5",
"F.	c #AFADBC",
"G.	c #A8A7B7",
"H.	c #8F8D9B",
"I.	c #878693",
"J.	c #B3B1B7",
"K.	c #FEEAE4",
"L.	c #CFBEB7",
"M.	c #9A8E8B",
"N.	c #97847C",
"O.	c #A6938D",
"P.	c #91817B",
"Q.	c #78665D",
"R.	c #7A706E",
"S.	c #8B8A92",
"T.	c #A09799",
"U.	c #8F898D",
"V.	c #8D8D96",
"W.	c #8F909B",
"X.	c #9696A3",
"Y.	c #9897A3",
"Z.	c #8F8E98",
"`.	c #92919C",
" +	c #94949F",
".+	c #95939D",
"++	c #99949D",
"@+	c #A3998F",
"#+	c #888C8E",
"$+	c #8E8A94",
"%+	c #928F9B",
"&+	c #B0A3A6",
"*+	c #ADA0A6",
"=+	c #9A95A1",
"-+	c #A49FAD",
";+	c #938F9C",
">+	c #C5C3C6",
",+	c #C5B5AD",
"'+	c #DCD8D6",
")+	c #C3B8B0",
"!+	c #473F3B",
"~+	c #1C1410",
"{+	c #15100F",
"]+	c #3B3F47",
"^+	c #707682",
"/+	c #797C84",
"(+	c #7F828D",
"_+	c #7D818B",
":+	c #80838F",
"<+	c #80828B",
"[+	c #9293A0",
"}+	c #9796A2",
"|+	c #96939D",
"1+	c #8D8A94",
"2+	c #847F81",
"3+	c #88857C",
"4+	c #817B81",
"5+	c #8F868D",
"6+	c #88848F",
"7+	c #7D7D89",
"8+	c #767A88",
"9+	c #7C7E8B",
"0+	c #868896",
"a+	c #898995",
"b+	c #E1DFE0",
"c+	c #E6DDD6",
"d+	c #F1EEEC",
"e+	c #79716B",
"f+	c #251D17",
"g+	c #1C1614",
"h+	c #595658",
"i+	c #8A8990",
"j+	c #88868D",
"k+	c #AFA9AE",
"l+	c #9F999D",
"m+	c #84848D",
"n+	c #828897",
"o+	c #848691",
"p+	c #8A868E",
"q+	c #72737D",
"r+	c #6A6F7B",
"s+	c #6C737D",
"t+	c #6D757F",
"u+	c #797174",
"v+	c #918485",
"w+	c #8F858B",
"x+	c #807E88",
"y+	c #767884",
"z+	c #898994",
"A+	c #B0A6B0",
"B+	c #9D9296",
"C+	c #E7E2E1",
"D+	c #DED7D0",
"E+	c #B7AAA2",
"F+	c #8D8585",
"G+	c #BAA096",
"H+	c #C7ADA1",
"I+	c #E2C5BB",
"J+	c #C9B1AA",
"K+	c #AF9E9B",
"L+	c #A69898",
"M+	c #A89B9E",
"N+	c #8A97A8",
"O+	c #948C8F",
"P+	c #988A82",
"Q+	c #837367",
"R+	c #78747B",
"S+	c #7E7F8A",
"T+	c #7D797F",
"U+	c #8A7E80",
"V+	c #887D81",
"W+	c #898287",
"X+	c #998E92",
"Y+	c #A79B9F",
"Z+	c #AC9A97",
"`+	c #EEE8E5",
" @	c #D2CAC8",
".@	c #C6A99D",
"+@	c #D3B7AE",
"@@	c #D3BDBA",
"#@	c #CDBDBB",
"$@	c #C0ADA9",
"%@	c #C8B1AB",
"&@	c #C5B2B2",
"*@	c #9597A2",
"=@	c #9A908E",
"-@	c #9D8162",
";@	c #9C7B58",
">@	c #C6BDB5",
",@	c #BBB9BE",
"'@	c #A2A0A6",
")@	c #AAA5A8",
"!@	c #BBB5B6",
"~@	c #CFC8C9",
"{@	c #DCD6D6",
"]@	c #E5E0E0",
"^@	c #E2DDDD",
"/@	c #D3C3BD",
"(@	c #B4A6A4",
"_@	c #B8AEAF",
":@	c #BCB0B3",
"<@	c #B1A6A8",
"[@	c #ADA2A4",
"}@	c #B0A2A2",
"|@	c #B2A4A1",
"1@	c #DCD4D1",
"2@	c #F1EDE9",
"3@	c #E5DCD1",
"4@	c #E4E2E2",
"5@	c #E1E1E4",
"6@	c #E0E0E4",
"7@	c #E1DFE2",
"8@	c #DEDDDF",
"9@	c #DFDDDE",
"0@	c #EBE8E8",
"                                                                ",
"                                                                ",
"                                                                ",
"                                                                ",
"                                                                ",
"                                                                ",
"                                                                ",
"                                                    . + @       ",
"                                                # $ % & *       ",
"                                            = - ; > , ' ) !     ",
"                                          ~ { ] ^ / ( _ : <     ",
"                                        [ } | 1 2 3 4 5 6 7     ",
"                    8 9 0 a b c d e f g h i j k l m n o p q     ",
"          r s t u v w x y z A A B C D E F G G H I J K L M N     ",
"      O P Q R S T U V W X Y Z `  ...+.@.#.$.%.&.*.=.-.;.>.,.'.  ",
"  ).!.~.{.].^./.(._.:.<.[.}.|.1.2.3.4.5.6.7.8.9.0.a.b.c.d.e.f.  ",
"  g.h.i.j.k.l.m.n.o.p.q.r.s.t.u.v.w.x.y.z.A.B.C.D.E.F.G.H.I.J.  ",
"  K.L.M.N.O.P.Q.R.S.T.U.V.W.X.Y.Z.`. +.+++@+#+$+%+&+*+=+-+;+>+  ",
"      ,+'+)+!+~+{+]+^+/+(+_+:+<+[+}+|+1+2+3+4+5+6+7+8+9+0+a+b+  ",
"      c+  d+e+f+g+h+i+j+k+l+m+n+o+p+q+r+s+t+u+v+w+x+y+z+A+B+C+  ",
"              D+E+F+G+H+I+J+K+L+M+N+O+P+Q+R+S+T+U+V+W+X+Y+Z+`+  ",
"                   @.@+@@@#@$@%@&@*@=@-@;@>@,@'@)@!@~@{@]@^@    ",
"                    /@(@_@:@<@[@}@|@1@2@3@                      ",
"                      4@5@6@7@8@9@0@                            ",
"                                                                ",
"                                                                ",
"                                                                ",
"                                                                ",
"                                                                ",
"                                                                ",
"                                                                ",
"                                                                "};
