/* XPM */
static char * massProperties16_xpm[] = {
"16 16 95 2",
"  	c None",
". 	c #CDC4C4",
"+ 	c #BE7676",
"@ 	c #D9D4D4",
"# 	c #D0CFCF",
"$ 	c #5F2C2D",
"% 	c #E9E9E9",
"& 	c #CFC9C9",
"* 	c #B89A9B",
"= 	c #826364",
"- 	c #E2E2E2",
"; 	c #EBEAEA",
"> 	c #BEB2B3",
", 	c #7F3738",
"' 	c #7C6162",
") 	c #816364",
"! 	c #A88D8D",
"~ 	c #BEB6B7",
"{ 	c #BABABA",
"] 	c #E2E1E1",
"^ 	c #BFA8A8",
"/ 	c #9B7676",
"( 	c #8A6465",
"_ 	c #9A7979",
": 	c #AF9C9D",
"< 	c #883B3C",
"[ 	c #EAEAEA",
"} 	c #CAC6C6",
"| 	c #B7AAAA",
"1 	c #88393B",
"2 	c #E3E3E3",
"3 	c #DFDFDF",
"4 	c #E7E7E7",
"5 	c #883636",
"6 	c #E6E6E5",
"7 	c #838582",
"8 	c #E4E4E4",
"9 	c #8A3636",
"0 	c #6E6E6C",
"a 	c #080808",
"b 	c #90908D",
"c 	c #8D3737",
"d 	c #5F5F5F",
"e 	c #020202",
"f 	c #969695",
"g 	c #BEBFC1",
"h 	c #EBEBEB",
"i 	c #903637",
"j 	c #B7A391",
"k 	c #705E4A",
"l 	c #493019",
"m 	c #91735D",
"n 	c #CABBAF",
"o 	c #E5E5E5",
"p 	c #2A2B2C",
"q 	c #DADADA",
"r 	c #8F3637",
"s 	c #DCD8D4",
"t 	c #C9AFA0",
"u 	c #C39E8F",
"v 	c #B69B98",
"w 	c #EEEDEA",
"x 	c #BFBAB6",
"y 	c #AAA198",
"z 	c #1B1109",
"A 	c #BBB0A8",
"B 	c #D2C3B7",
"C 	c #ABA8A8",
"D 	c #722C2E",
"E 	c #ADABAA",
"F 	c #E7E1DB",
"G 	c #CFAF93",
"H 	c #CDA187",
"I 	c #BB8772",
"J 	c #C8B4AB",
"K 	c #A09696",
"L 	c #65292A",
"M 	c #8F7D7F",
"N 	c #CBC5C6",
"O 	c #CDAEAE",
"P 	c #946363",
"Q 	c #622729",
"R 	c #895253",
"S 	c #BC9D9E",
"T 	c #C8C2C3",
"U 	c #64605F",
"V 	c #674041",
"W 	c #6D3537",
"X 	c #733131",
"Y 	c #803335",
"Z 	c #7B2B2D",
"` 	c #6F2428",
" .	c #7A3E3F",
"..	c #726565",
"+.	c #DDDDDD",
"                                ",
"              . + @             ",
"              # $ %   & * = -   ",
"            ; > , ' ) ! ~ {     ",
"    ] ^ / ( _ : <         [     ",
"    } |         1       2       ",
"      3       4 5       6 7     ",
"      -       8 9       0 a b   ",
"              - c       d e f   ",
"    g   h     3 i     j k l m n ",
"  o p         q r h   s t u v w ",
"x y z A B     C D E             ",
"F G H I J     K L M             ",
"          N O P Q R S T         ",
"      3 U V W X Y Z `  ...+.    ",
"                                "};
