/* XPM */
static char * massProperties32_xpm[] = {
"32 32 293 2",
"  	c None",
". 	c #C5BDBD",
"+ 	c #AD7070",
"@ 	c #9E6262",
"# 	c #DAD8D7",
"$ 	c #836869",
"% 	c #F5BAB9",
"& 	c #B74D4F",
"* 	c #8E7D7F",
"= 	c #777373",
"- 	c #6C3131",
"; 	c #5D2425",
"> 	c #B1AFAF",
", 	c #EBEBEB",
"' 	c #D9D6D6",
") 	c #C8BABA",
"! 	c #A19192",
"~ 	c #E0DFDF",
"{ 	c #D3D3D3",
"] 	c #522222",
"^ 	c #63393A",
"/ 	c #E0E0E0",
"( 	c #ACA7A7",
"_ 	c #978181",
": 	c #936163",
"< 	c #88484A",
"[ 	c #5B2124",
"} 	c #451F21",
"| 	c #AEADAE",
"1 	c #DBDBDB",
"2 	c #7F3435",
"3 	c #7F3F3E",
"4 	c #B6A2A2",
"5 	c #907475",
"6 	c #633E3D",
"7 	c #632D2F",
"8 	c #7D4241",
"9 	c #7A4A4F",
"0 	c #755E61",
"a 	c #8D8686",
"b 	c #A1A1A2",
"c 	c #ACACAD",
"d 	c #C0BEBE",
"e 	c #9A8B8A",
"f 	c #856668",
"g 	c #853739",
"h 	c #7B3333",
"i 	c #462626",
"j 	c #634948",
"k 	c #8F7D7E",
"l 	c #AFA6A6",
"m 	c #C9C8C6",
"n 	c #DFDFDF",
"o 	c #CECECE",
"p 	c #CBCBCB",
"q 	c #E4E3E3",
"r 	c #D0C9C9",
"s 	c #C1AEAE",
"t 	c #9C7B7D",
"u 	c #815657",
"v 	c #643030",
"w 	c #824545",
"x 	c #8D5C5D",
"y 	c #795D5E",
"z 	c #883739",
"A 	c #873E3F",
"B 	c #C1C1C1",
"C 	c #E2E2E2",
"D 	c #E9EAEA",
"E 	c #A39E9D",
"F 	c #926F6E",
"G 	c #8E5557",
"H 	c #7C3B3C",
"I 	c #602527",
"J 	c #774C4C",
"K 	c #937576",
"L 	c #B8A9A9",
"M 	c #CAC5C4",
"N 	c #D5D6D6",
"O 	c #87383A",
"P 	c #8B3E3F",
"Q 	c #D2D2D2",
"R 	c #E5E5E5",
"S 	c #78696A",
"T 	c #7E585A",
"U 	c #A09090",
"V 	c #C8C7C6",
"W 	c #8A3B3D",
"X 	c #863839",
"Y 	c #C5C5C5",
"Z 	c #C2C2C2",
"` 	c #D6D6D6",
" .	c #8A3B3C",
"..	c #853738",
"+.	c #E4E4E4",
"@.	c #E3E3E3",
"#.	c #ECECEC",
"$.	c #D0D0D0",
"%.	c #8D3C3B",
"&.	c #7F2F2F",
"*.	c #D4D4D4",
"=.	c #9C9F9B",
"-.	c #B1B5B1",
";.	c #E9E9E9",
">.	c #E1E1E1",
",.	c #D8D8D8",
"'.	c #933E3D",
").	c #823032",
"!.	c #E9E9E7",
"~.	c #50524F",
"{.	c #6D706C",
"].	c #E7E7E7",
"^.	c #DCDCDC",
"/.	c #CACACA",
"(.	c #923F3C",
"_.	c #822E31",
":.	c #C2C2C1",
"<.	c #242421",
"[.	c #0D0D0B",
"}.	c #0D0D0D",
"|.	c #484845",
"1.	c #DEDFDC",
"2.	c #913F3C",
"3.	c #812E30",
"4.	c #EAEAEA",
"5.	c #BBBBBB",
"6.	c #151515",
"7.	c #030303",
"8.	c #3C3D39",
"9.	c #DDDDDA",
"0.	c #D9D9D9",
"a.	c #C7C7C7",
"b.	c #97413F",
"c.	c #812C2E",
"d.	c #B3B3B3",
"e.	c #0E0E0E",
"f.	c #000000",
"g.	c #464645",
"h.	c #E4E4E3",
"i.	c #DADADA",
"j.	c #C4C4C4",
"k.	c #9A4140",
"l.	c #822C2E",
"m.	c #ABABAB",
"n.	c #040404",
"o.	c #474847",
"p.	c #E6E6E6",
"q.	c #E8E8E8",
"r.	c #C3C3C3",
"s.	c #9B4241",
"t.	c #842A2B",
"u.	c #E4E4E2",
"v.	c #8F8F8F",
"w.	c #161616",
"x.	c #121213",
"y.	c #141413",
"z.	c #454641",
"A.	c #D2D2D0",
"B.	c #E7E6E6",
"C.	c #8A8B8C",
"D.	c #A7A9AE",
"E.	c #BCBCBC",
"F.	c #9E4544",
"G.	c #83292C",
"H.	c #E3E3E2",
"I.	c #866F5A",
"J.	c #A96F3D",
"K.	c #9D7545",
"L.	c #7E603D",
"M.	c #7C5129",
"N.	c #7F4816",
"O.	c #8F5221",
"P.	c #9E6242",
"Q.	c #B07D54",
"R.	c #AFA79E",
"S.	c #434543",
"T.	c #5B5D5F",
"U.	c #B8B8B8",
"V.	c #9D4544",
"W.	c #82272B",
"X.	c #E0DFDE",
"Y.	c #97887A",
"Z.	c #A57554",
"`.	c #A87155",
" +	c #AC6745",
".+	c #A3593F",
"++	c #844643",
"@+	c #855952",
"#+	c #C5BEB7",
"$+	c #B7B7B5",
"%+	c #020202",
"&+	c #08090A",
"*+	c #D9D9DE",
"=+	c #B6B6B6",
"-+	c #9D4443",
";+	c #80262A",
">+	c #D8D7D7",
",+	c #DFDDDC",
"'+	c #DFDCDC",
")+	c #BABABA",
"!+	c #060709",
"~+	c #D2D3D7",
"{+	c #A8A8A8",
"]+	c #9B4246",
"^+	c #82282C",
"/+	c #C1C1BF",
"(+	c #9D9998",
"_+	c #78675A",
":+	c #816E5D",
"<+	c #72604F",
"[+	c #311C0C",
"}+	c #341F0F",
"|+	c #867060",
"1+	c #98806A",
"2+	c #B49479",
"3+	c #AC917B",
"4+	c #C4C5C5",
"5+	c #B7B6B6",
"6+	c #514647",
"7+	c #552424",
"8+	c #542021",
"9+	c #423D3B",
"0+	c #B3B2B2",
"a+	c #B79F89",
"b+	c #BC7F45",
"c+	c #C68A5A",
"d+	c #C0825B",
"e+	c #C26E38",
"f+	c #B4541F",
"g+	c #963F22",
"h+	c #8F5440",
"i+	c #BAA79A",
"j+	c #D3D4D3",
"k+	c #6A4B4C",
"l+	c #9B4747",
"m+	c #6E2B2D",
"n+	c #443333",
"o+	c #D2D1D1",
"p+	c #DEDDDD",
"q+	c #DDD7D2",
"r+	c #DBCDC8",
"s+	c #D7C7C4",
"t+	c #D4C4C3",
"u+	c #D0C5C3",
"v+	c #DCDBDA",
"w+	c #585050",
"x+	c #4F2424",
"y+	c #3A0E11",
"z+	c #5A2D31",
"A+	c #CAC4C4",
"B+	c #ECEBEC",
"C+	c #E2DFE0",
"D+	c #A09998",
"E+	c #422A2C",
"F+	c #66292A",
"G+	c #47191B",
"H+	c #421519",
"I+	c #928081",
"J+	c #E3DFDE",
"K+	c #AAA6A6",
"L+	c #8E7679",
"M+	c #A67272",
"N+	c #C27979",
"O+	c #D17978",
"P+	c #9B5051",
"Q+	c #672C2E",
"R+	c #762F31",
"S+	c #9D4C4D",
"T+	c #B56868",
"U+	c #9A5758",
"V+	c #895558",
"W+	c #826F6F",
"X+	c #A8A4A5",
"Y+	c #ECECED",
"Z+	c #D1D1D1",
"`+	c #727272",
" @	c #473B3A",
".@	c #663B3E",
"+@	c #793E3F",
"@@	c #823C3E",
"#@	c #833B3C",
"$@	c #893A3B",
"%@	c #8D3A3A",
"&@	c #933C3D",
"*@	c #963B3E",
"=@	c #8F3538",
"-@	c #7F292C",
";@	c #731E22",
">@	c #6E1B20",
",@	c #78292C",
"'@	c #7F3D3D",
")@	c #624646",
"!@	c #777575",
"                                                                ",
"                                                                ",
"                              . + @ #                           ",
"                              $ % & *                           ",
"                              = - ; >           , ' ) ! ~       ",
"                              { ] ^       / ( _ : < [ } |       ",
"                              1 2 3 4 5 6 7 8 9 0 a b c         ",
"                          d e f g h i j k l m n     o p         ",
"              q r s t u v w x y z A                 B   C       ",
"        D E F G H I J K L M C N O P               Q     R       ",
"          S T U V             1 W X               {             ",
"          Y Z                 `  ...            +.@.            ",
"        #.#.Y                 $.%.&.            *.  =.-.  ;.    ",
"        >.  ,.R               $.'.).            >.!.~.{.        ",
"        ].  ].^.              /.(._.          ^.:.<.[.}.|.1.    ",
"      C       o               /.2.3.          4.5.6.7.7.8.9.    ",
"              0.              a.b.c.4.          d.e.f.f.g.h.    ",
"                i.            j.k.l.D       #.  m.e.n.n.o.p.    ",
"    ].  >.q.    i.            r.s.t.u.    @.*.0.v.w.x.y.z.A.B.@.",
"        C.D.    ;.            E.F.G.H.    >.I.J.K.L.M.N.O.P.Q.R.",
"      H.S.T.      ,           U.V.W.,.      X.Y.Z.`. +.+++@+#+  ",
"      $+%+&+*+    ].          =+-+;+>+            ].,+'+X.      ",
"      )+%+!+~+    #.          {+]+^+/+                          ",
"(+_+:+<+[+}+|+1+2+3+4+      5+6+7+8+9+0+                        ",
"  a+b+c+d+e+f+g+h+i+        j+k+l+m+n+o+                        ",
"    p+q+r+s+t+u+v+          ;.w+x+y+z+A+                        ",
"                        B+C+D+E+F+G+H+I+J+,                     ",
"                  #.K+L+M+N+O+P+Q+R+S+T+U+V+W+X+Y+              ",
"              Z+`+ @.@+@@@#@$@%@&@*@=@-@;@>@,@'@)@!@o           ",
"                                                                ",
"                                                                ",
"                                                                "};
