/* XPM */
static char * massProperties48_xpm[] = {
"48 48 548 2",
"  	c None",
". 	c #D8D7D7",
"+ 	c #8F6A6A",
"@ 	c #834646",
"# 	c #9A817E",
"$ 	c #EAEAEA",
"% 	c #563435",
"& 	c #F1A4A2",
"* 	c #F37B7D",
"= 	c #9A363A",
"- 	c #7A696A",
"; 	c #C6C6C6",
"> 	c #5F3435",
", 	c #FAEDEA",
"' 	c #F38B8C",
") 	c #9A2F31",
"! 	c #47282B",
"~ 	c #E8E6E6",
"{ 	c #160F0E",
"] 	c #974A4B",
"^ 	c #A54442",
"/ 	c #641D22",
"( 	c #5D5959",
"_ 	c #B0B0B0",
": 	c #868686",
"< 	c #0C0305",
"[ 	c #150807",
"} 	c #2B2321",
"| 	c #E7E8E8",
"1 	c #D5D6D8",
"2 	c #A7A5A6",
"3 	c #877777",
"4 	c #6A4747",
"5 	c #622B2E",
"6 	c #57272A",
"7 	c #8A8787",
"8 	c #DBDBDB",
"9 	c #5A2524",
"0 	c #A84B4C",
"a 	c #70484B",
"b 	c #C2C2C2",
"c 	c #8D8B8B",
"d 	c #725E5F",
"e 	c #623739",
"f 	c #732F31",
"g 	c #8B3032",
"h 	c #802629",
"i 	c #62171A",
"j 	c #3E0D10",
"k 	c #392123",
"l 	c #878787",
"m 	c #D7D7D7",
"n 	c #5F2324",
"o 	c #BC5553",
"p 	c #633B3B",
"q 	c #EDECEC",
"r 	c #B5B5B6",
"s 	c #817B7C",
"t 	c #635151",
"u 	c #663838",
"v 	c #803337",
"w 	c #923A39",
"x 	c #7F2C2F",
"y 	c #5A1820",
"z 	c #380F14",
"A 	c #3C2B2B",
"B 	c #615B5B",
"C 	c #8E8D8F",
"D 	c #757778",
"E 	c #BFBDBE",
"F 	c #B4B4B4",
"G 	c #63272A",
"H 	c #BE5555",
"I 	c #5B2826",
"J 	c #602D2D",
"K 	c #8A4042",
"L 	c #8E4243",
"M 	c #753130",
"N 	c #411919",
"O 	c #372021",
"P 	c #534946",
"Q 	c #818482",
"R 	c #B3B3B4",
"S 	c #E4E3E4",
"T 	c #929292",
"U 	c #CECECE",
"V 	c #C5C4C4",
"W 	c #918D8D",
"X 	c #6C5E5C",
"Y 	c #643F3D",
"Z 	c #632F34",
"` 	c #6C292C",
" .	c #BF5555",
"..	c #592121",
"+.	c #321A1B",
"@.	c #342D2B",
"#.	c #5D5D5C",
"$.	c #929496",
"%.	c #CDCFD0",
"&.	c #CDCDCD",
"*.	c #DEDEDE",
"=.	c #E3E3E2",
"-.	c #AEACAD",
";.	c #938587",
">.	c #7A5D5D",
",.	c #633635",
"'.	c #803435",
").	c #9A4444",
"!.	c #8C3C3D",
"~.	c #64272A",
"{.	c #482626",
"].	c #6D2A2C",
"^.	c #C15556",
"/.	c #683132",
"(.	c #E1E3E1",
"_.	c #999999",
":.	c #D4D4D4",
"<.	c #D5D5D5",
"[.	c #A19C9C",
"}.	c #7E6E6D",
"|.	c #6B4446",
"1.	c #6F2D2F",
"2.	c #883233",
"3.	c #953C3D",
"4.	c #772728",
"5.	c #541E1F",
"6.	c #523937",
"7.	c #6C6261",
"8.	c #999797",
"9.	c #CED0CF",
"0.	c #C8C8CB",
"a.	c #68282A",
"b.	c #C25557",
"c.	c #703638",
"d.	c #E2E2E2",
"e.	c #BCBCBC",
"f.	c #A4A8AA",
"g.	c #605250",
"h.	c #613533",
"i.	c #6F2729",
"j.	c #842A2D",
"k.	c #882E2F",
"l.	c #6C1E21",
"m.	c #501D1F",
"n.	c #654B49",
"o.	c #7D7274",
"p.	c #ADACAE",
"q.	c #CACACA",
"r.	c #6B2B2D",
"s.	c #C25657",
"t.	c #703132",
"u.	c #AAAAAA",
"v.	c #E4E4E4",
"w.	c #C4C5C7",
"x.	c #3C181B",
"y.	c #5A191C",
"z.	c #5D3637",
"A.	c #7C6C6B",
"B.	c #9C9899",
"C.	c #D3D3CF",
"D.	c #6F2F31",
"E.	c #6A2B2C",
"F.	c #B8B8B8",
"G.	c #E0E0E0",
"H.	c #666666",
"I.	c #6F2F30",
"J.	c #68292A",
"K.	c #E9E9E9",
"L.	c #A2A2A2",
"M.	c #BFBFBF",
"N.	c #6E2E30",
"O.	c #C15456",
"P.	c #C7C7C7",
"Q.	c #A6A6A6",
"R.	c #B9B9B9",
"S.	c #6F312E",
"T.	c #C05553",
"U.	c #601C1E",
"V.	c #ECECEC",
"W.	c #BABCB8",
"X.	c #A9ADA7",
"Y.	c #D2D5D1",
"Z.	c #DDDDDD",
"`.	c #C8C8C8",
" +	c #D3D3D3",
".+	c #7C3032",
"++	c #C15553",
"@+	c #5F1C1E",
"#+	c #BEBEBE",
"$+	c #9B9D9C",
"%+	c #111613",
"&+	c #CBCECC",
"*+	c #CCCCCC",
"=+	c #7C3433",
"-+	c #C25552",
";+	c #652024",
">+	c #E1E1E1",
",+	c #E6E6E6",
"'+	c #D7D7D4",
")+	c #5B5C59",
"!+	c #121310",
"~+	c #848681",
"{+	c #EBECE6",
"]+	c #D0D0D0",
"^+	c #B1B1B1",
"/+	c #7B3532",
"(+	c #631C22",
"_+	c #E8E8E8",
":+	c #535350",
"<+	c #12130E",
"[+	c #0E0E0C",
"}+	c #0E0E0E",
"|+	c #101010",
"1+	c #242422",
"2+	c #A5A6A2",
"3+	c #D9D9D9",
"4+	c #793431",
"5+	c #C25451",
"6+	c #621B21",
"7+	c #E9E8E8",
"8+	c #DADADA",
"9+	c #414240",
"0+	c #0C0C0A",
"a+	c #0B0B0A",
"b+	c #0B0B0B",
"c+	c #95978B",
"d+	c #D2D2D2",
"e+	c #B3B3B3",
"f+	c #7A3532",
"g+	c #C15451",
"h+	c #621B20",
"i+	c #E8E7E7",
"j+	c #353535",
"k+	c #000000",
"l+	c #0D0D0D",
"m+	c #9EA096",
"n+	c #AFAFAF",
"o+	c #813837",
"p+	c #61191E",
"q+	c #2E2E2E",
"r+	c #ABACA7",
"s+	c #E5E5E5",
"t+	c #DCDCDC",
"u+	c #A8A8A8",
"v+	c #863838",
"w+	c #C35451",
"x+	c #61191D",
"y+	c #DFE1E2",
"z+	c #E3E3E3",
"A+	c #232323",
"B+	c #151515",
"C+	c #A7A7A7",
"D+	c #873939",
"E+	c #C25350",
"F+	c #641A1E",
"G+	c #DFE0E0",
"H+	c #222222",
"I+	c #070707",
"J+	c #060606",
"K+	c #0E0F0D",
"L+	c #B3B3B2",
"M+	c #C3C3C3",
"N+	c #883939",
"O+	c #BF524E",
"P+	c #67171B",
"Q+	c #D7D7D6",
"R+	c #1E1E1E",
"S+	c #0C0C0C",
"T+	c #0E0F0A",
"U+	c #B8B8B4",
"V+	c #ADADAD",
"W+	c #9D9D9E",
"X+	c #CCCCCE",
"Y+	c #E7E7E7",
"Z+	c #8D3F3F",
"`+	c #BE514E",
" @	c #66161A",
".@	c #A3A3A3",
"+@	c #898989",
"@@	c #8F8F8F",
"#@	c #909090",
"$@	c #898A89",
"%@	c #252525",
"&@	c #1C1C1C",
"*@	c #201F20",
"=@	c #202021",
"-@	c #20221C",
";@	c #8A8A86",
">@	c #B8B8B7",
",@	c #B9B7B6",
"'@	c #BCB9B9",
")@	c #BDBDBD",
"!@	c #ACADAB",
"~@	c #1B1E24",
"{@	c #DFE1E7",
"]@	c #979797",
"^@	c #8F403F",
"/@	c #BD504F",
"(@	c #66151B",
"_@	c #EBECEC",
":@	c #776859",
"<@	c #9F5715",
"[@	c #C16414",
"}@	c #BA772B",
"|@	c #B78546",
"1@	c #AA7F51",
"2@	c #AB723A",
"3@	c #AC5D16",
"4@	c #AF5A0F",
"5@	c #BC6112",
"6@	c #AA4C12",
"7@	c #923910",
"8@	c #C16318",
"9@	c #835D3A",
"0@	c #BBBDBB",
"a@	c #868884",
"b@	c #181C1B",
"c@	c #B8BABE",
"d@	c #CFCFCF",
"e@	c #969696",
"f@	c #8E403F",
"g@	c #65141B",
"h@	c #C5C5C5",
"i@	c #84817E",
"j@	c #58381B",
"k@	c #884512",
"l@	c #984617",
"m@	c #A35129",
"n@	c #B0501E",
"o@	c #B44814",
"p@	c #9D3212",
"q@	c #7E1C15",
"r@	c #621113",
"s@	c #622716",
"t@	c #89786A",
"u@	c #ECEEE8",
"v@	c #939390",
"w@	c #080809",
"x@	c #090908",
"y@	c #111215",
"z@	c #CDCDD3",
"A@	c #BE4F4F",
"B@	c #631319",
"C@	c #C4C4C4",
"D@	c #B8B6B5",
"E@	c #A19C9A",
"F@	c #A39C99",
"G@	c #A19A98",
"H@	c #9C9897",
"I@	c #B5B4B4",
"J@	c #959591",
"K@	c #090A0C",
"L@	c #C5C6CD",
"M@	c #8C3F3D",
"N@	c #621218",
"O@	c #989897",
"P@	c #07070A",
"Q@	c #BFC0C7",
"R@	c #8D3D42",
"S@	c #BE4E51",
"T@	c #621216",
"U@	c #BFBEBB",
"V@	c #DFDFDF",
"W@	c #9E9E9E",
"X@	c #080808",
"Y@	c #0D0E11",
"Z@	c #BABBC2",
"`@	c #707070",
" #	c #853A3F",
".#	c #BE5052",
"+#	c #757572",
"@#	c #ECEBEB",
"##	c #A2A0A1",
"$#	c #291C13",
"%#	c #44260D",
"&#	c #46270F",
"*#	c #4B3219",
"=#	c #4F3219",
"-#	c #462610",
";#	c #492810",
">#	c #4A2A10",
",#	c #604029",
"'#	c #634022",
")#	c #674422",
"!#	c #8C5E38",
"~#	c #976135",
"{#	c #815E42",
"]#	c #878888",
"^#	c #CBCBCB",
"/#	c #282424",
"(#	c #2C1618",
"_#	c #2B1210",
":#	c #461E1E",
"<#	c #351717",
"[#	c #150B0A",
"}#	c #171212",
"|#	c #C4BFBB",
"1#	c #885526",
"2#	c #BF650E",
"3#	c #E58C35",
"4#	c #D98C56",
"5#	c #D49161",
"6#	c #DB8752",
"7#	c #E2731A",
"8#	c #D85E09",
"9#	c #C0490C",
"0#	c #9C2D0D",
"a#	c #872613",
"b#	c #924E1D",
"c#	c #A69D97",
"d#	c #4F524F",
"e#	c #783538",
"f#	c #BF5B5A",
"g#	c #994746",
"h#	c #733030",
"i#	c #260F0E",
"j#	c #504C4D",
"k#	c #E7E6E6",
"l#	c #A6A6A5",
"m#	c #8F8784",
"n#	c #9F8774",
"o#	c #98705D",
"p#	c #8E6154",
"q#	c #84544C",
"r#	c #82514C",
"s#	c #774E4A",
"t#	c #70534E",
"u#	c #7A7471",
"v#	c #DADDDB",
"w#	c #ECE8E9",
"x#	c #2B2425",
"y#	c #7A3134",
"z#	c #582628",
"A#	c #470911",
"B#	c #290E12",
"C#	c #DEDEDC",
"D#	c #ABACAB",
"E#	c #211313",
"F#	c #4B2525",
"G#	c #2A1514",
"H#	c #36070A",
"I#	c #53070D",
"J#	c #5B4345",
"K#	c #DEDFDF",
"L#	c #31292B",
"M#	c #4D2326",
"N#	c #883A3A",
"O#	c #8C3D3D",
"P#	c #331616",
"Q#	c #350609",
"R#	c #65242B",
"S#	c #B9B8B7",
"T#	c #EBEBEC",
"U#	c #D1D1D1",
"V#	c #B7B7B7",
"W#	c #A49D9F",
"X#	c #A8928F",
"Y#	c #7D6F6A",
"Z#	c #201A1A",
"`#	c #180507",
" $	c #2F060B",
".$	c #37060D",
"+$	c #2A070A",
"@$	c #625755",
"#$	c #8D8381",
"$$	c #A89C9B",
"%$	c #BCB5B6",
"&$	c #CDCECE",
"*$	c #E6EBEA",
"=$	c #D6D7D7",
"-$	c #919090",
";$	c #605152",
">$	c #5B2E33",
",$	c #854142",
"'$	c #B55654",
")$	c #DB6B6A",
"!$	c #F27776",
"~$	c #E36C70",
"{$	c #BE5758",
"]$	c #914243",
"^$	c #813E40",
"/$	c #A24846",
"($	c #C55D5C",
"_$	c #DF6D6F",
":$	c #C95D5D",
"<$	c #9A3938",
"[$	c #7F2229",
"}$	c #611A1F",
"|$	c #441E1E",
"1$	c #5D4E50",
"2$	c #8F8D8D",
"3$	c #D7D7D8",
"4$	c #D6D6D6",
"5$	c #838383",
"6$	c #373533",
"7$	c #2F1614",
"8$	c #642B30",
"9$	c #85383B",
"0$	c #9D403F",
"a$	c #A94345",
"b$	c #B1484A",
"c$	c #B44D4C",
"d$	c #BD4E50",
"e$	c #BB4E4D",
"f$	c #BF4E4E",
"g$	c #BD4F50",
"h$	c #BF4F51",
"i$	c #BB4A4E",
"j$	c #B3464A",
"k$	c #A03B3E",
"l$	c #8B282C",
"m$	c #821C21",
"n$	c #6E070F",
"o$	c #6C060D",
"p$	c #740C0F",
"q$	c #842022",
"r$	c #843030",
"s$	c #582727",
"t$	c #4F3F41",
"u$	c #828484",
"v$	c #9D9D9D",
"w$	c #7C7D7F",
"x$	c #6D6E6D",
"y$	c #595756",
"z$	c #4F4C4D",
"A$	c #3D3B3D",
"B$	c #353033",
"C$	c #292024",
"D$	c #241A1B",
"E$	c #241617",
"F$	c #261210",
"G$	c #321616",
"H$	c #3B1718",
"I$	c #45181B",
"J$	c #4C1B1D",
"K$	c #531B1E",
"L$	c #561A1C",
"M$	c #5D2424",
"N$	c #612C2C",
"O$	c #6B3D3F",
"P$	c #77494A",
"Q$	c #765456",
"R$	c #7A6160",
"S$	c #746464",
"T$	c #7C726F",
"U$	c #847E7E",
"V$	c #858988",
"W$	c #9B9B9B",
"                                                                                                ",
"                                                                                                ",
"                                                                                                ",
"                                              . + @ #                                           ",
"                                            $ % & * = -                                         ",
"                                            ; > , ' ) !                                         ",
"                                            ~ { ] ^ / (                           _             ",
"                                              : < [ } |                 1 2 3 4 5 6 7           ",
"                                              8 9 0 a           b c d e f g h i j k l           ",
"                                              m n o p q r s t u v w x y z A B C D E             ",
"                                              F G H I J K L M N O P Q R S       T U             ",
"                                      V W X Y Z `  ...+.@.#.$.%.              &.b *.            ",
"                            =.-.;.>.,.'.).!.~.{.].^./.(.                      _.    :.          ",
"                    <.[.}.|.1.2.3.4.5.6.7.8.9.0.a.b.c.                      d.e.    <.          ",
"              f.g.h.i.j.k.l.m.n.o.p.d.        q.r.s.t.                      u.      v.          ",
"              w.x.y.z.A.B.C.                  q.D.b.E.                      F.        G.        ",
"                H.u.                          q.I.b.J.                    F.          8         ",
"              K.m L.                          M.N.O.a.                    F           v.        ",
"              P.  Q.                          R.S.T.U.                  q.V.  W.X.Y.    Z.      ",
"              :.  `. +                        R..+++@+                  #+    $+%+&+    d.      ",
"            *+      Q.                        R.=+-+;+                >+,+  '+)+!+~+{+          ",
"            ]+      u.                        ^+/+-+(+_+              `.  :+<+[+}+|+1+2+  _+    ",
"          3+        3+]+                      _ 4+5+6+7+              8+  9+0+a+b+b+[+c+        ",
"          d+          e+                      _ f+g+h+i+            d+    j+k+k+k+k+l+m+        ",
"        _+            R.                      n+o+5+p+>+            8     q+k+k+k+k+}+r+        ",
"        3+            s+t+                    u+v+w+x+y+          z+      A+k+k+k+k+B+#+        ",
"        >+              M.                    C+D+E+F+G+          v.      H+I+J+I+I+K+L+        ",
"      8                 M+                    C+N+O+P+Q+                ,+R+S+S+l+[+T+U+        ",
"      >+    V+W+X+      Y+*.                  Q.Z+`+ @m         .@+@@@#@$@%@&@*@=@1+-@;@>@,@'@)@",
"    >+      !@~@{@        *+                  ]@^@/@(@<.        _@:@<@[@}@|@1@2@3@4@5@6@7@8@9@0@",
"    Y+      a@b@c@        d@                  e@f@/@g@h@            i@j@k@l@m@n@o@p@q@r@s@t@u@  ",
"  V.      v@w@x@y@z@        d.                e@f@A@B@;                 G.C@D@E@F@G@H@I@8+      ",
"  K.      J@k+k+K@L@        Z.                T M@A@N@V                                         ",
"          O@k+k+P@Q@        Z.                : R@S@T@U@                                        ",
"V@        W@J+X@Y@Z@          V.              `@ #.#l.+#@#                                      ",
"##$#%#&#*#=#-#;#>#,#'#)#!#~#{#]#          ^#/#(#_#:#<#[#}#d@                                    ",
"  |#1#2#3#4#5#6#7#8#9#0#a#b#c#              d#e#f#g#h#i#j#                                      ",
"    k#l#m#n#o#p#q#r#s#t#u#v#                w#x#y#z#A#B#C#                                      ",
"                                            D#E#F#G#H#I#J#z+                                    ",
"                                          K#L#M#N#O#P#Q#R#S#                                    ",
"                                  T#U#V#W#X#Y#Z#`# $.$+$@$#$$$%$&$*$                            ",
"                            =$-$;$>$,$'$)$!$~${$]$^$/$($_$:$<$[$}$|$1$2$3$                      ",
"                      4$5$6$7$8$9$0$a$b$c$d$e$f$g$h$i$j$k$l$m$n$o$p$q$r$s$t$u$U#                ",
"                    d+v$+@w$x$y$z$A$B$C$D$E$F$G$H$I$J$K$L$M$N$O$P$Q$R$S$T$U$V$W$*+              ",
"                                                                                                ",
"                                                                                                ",
"                                                                                                ",
"                                                                                                "};
