/* XPM */
static char * optimization16_xpm[] = {
"16 16 53 1",
" 	c None",
".	c #A32000",
"+	c #C6270E",
"@	c #C31C08",
"#	c #CA2700",
"$	c #B83800",
"%	c #B13800",
"&	c #BA450A",
"*	c #C33800",
"=	c #B55500",
"-	c #BC7100",
";	c #B87800",
">	c #BC9C00",
",	c #B5980E",
"'	c #AF5F0A",
")	c #B58A00",
"!	c #B19C00",
"~	c #BCB800",
"{	c #C3C300",
"]	c #C6CE00",
"^	c #D5CA00",
"/	c #BBC912",
"(	c #B1AA0E",
"_	c #BFBC00",
":	c #CAC600",
"<	c #D1CA00",
"[	c #BFCA07",
"}	c #C3C30E",
"|	c #C0B523",
"1	c #CECD0E",
"2	c #BFC324",
"3	c #BFCB18",
"4	c #CBC338",
"5	c #AEB855",
"6	c #BCC64E",
"7	c #AEBF55",
"8	c #AEB863",
"9	c #A4BB5B",
"0	c #80B38C",
"a	c #7CB870",
"b	c #63B587",
"c	c #67B580",
"d	c #58B58E",
"e	c #15CDD4",
"f	c #0AEDE9",
"g	c #2ED2DA",
"h	c #14A9BD",
"i	c #009CB1",
"j	c #25AABF",
"k	c #4A75A0",
"l	c #0015E2",
"m	c #46668C",
"n	c #0810B7",
"                ",
"                ",
"                ",
"     .+         ",
"    @#$%&       ",
"    *=-;>,      ",
"   ';)!~{]^/    ",
"   (_:<[}|1}2   ",
"   3  456789    ",
"  0    abcd     ",
"        efg     ",
"        hij     ",
"        klm     ",
"         n      ",
"                ",
"                "};
