/* XPM */
static char * suspension16_xpm[] = {
"16 16 87 1",
" 	c None",
".	c #D6BE93",
"+	c #CFB480",
"@	c #F8F4E8",
"#	c #E4EAEC",
"$	c #D4B785",
"%	c #E3C671",
"&	c #F4D66A",
"*	c #C7BDA9",
"=	c #5C8981",
"-	c #E8ECB7",
";	c #E9D18C",
">	c #CE993D",
",	c #83A483",
"'	c #A7B93F",
")	c #E4E58C",
"!	c #F4F4AF",
"~	c #587873",
"{	c #628EA5",
"]	c #8D918A",
"^	c #F0F380",
"/	c #D0E46B",
"(	c #EBEF98",
"_	c #9DB1B4",
":	c #597E86",
"<	c #C6D273",
"[	c #C5C698",
"}	c #809577",
"|	c #65E621",
"1	c #80B366",
"2	c #DAE08A",
"3	c #E9EAA3",
"4	c #EFF286",
"5	c #62E61B",
"6	c #99D477",
"7	c #86B276",
"8	c #81A668",
"9	c #C5D178",
"0	c #D2E399",
"a	c #6EB338",
"b	c #749F66",
"c	c #A9D084",
"d	c #86B584",
"e	c #83A85D",
"f	c #AEBA64",
"g	c #F2D3D4",
"h	c #D4D9AE",
"i	c #7F9A4D",
"j	c #669265",
"k	c #AACE78",
"l	c #8AB58F",
"m	c #BB2629",
"n	c #AC282D",
"o	c #EAE1E3",
"p	c #E1E4C7",
"q	c #8CA24B",
"r	c #598863",
"s	c #B7AF54",
"t	c #C65555",
"u	c #487A85",
"v	c #6B96A1",
"w	c #F2F3E2",
"x	c #A7A348",
"y	c #C13117",
"z	c #618388",
"A	c #76B2B6",
"B	c #41818C",
"C	c #90B3C0",
"D	c #D9A39E",
"E	c #89686B",
"F	c #37696D",
"G	c #427B7E",
"H	c #3F7C85",
"I	c #528CA3",
"J	c #DAE3E6",
"K	c #C6D0D2",
"L	c #5A7D80",
"M	c #326368",
"N	c #47818C",
"O	c #8AB9B4",
"P	c #D6E2E0",
"Q	c #EAEDEE",
"R	c #8AB0B3",
"S	c #C19E85",
"T	c #B0A995",
"U	c #94ACA2",
"V	c #B8CACC",
"                ",
".+@ #           ",
"$%&*=-          ",
" ;>,')!         ",
"  ~{]^/(        ",
" _:<[}|12       ",
"   3456789      ",
"    0abcdefg    ",
"     hijklmno   ",
"      pqrstuv   ",
"       wxyzABC  ",
"        DEFGHIJ ",
"          KLMNOP",
"            QRST",
"              UV",
"                "};
