/* XPM */
static char * suspension32_xpm[] = {
"32 32 318 2",
"  	c None",
". 	c #EDE7D8",
"+ 	c #CDBA86",
"@ 	c #C6AD73",
"# 	c #E3D7B6",
"$ 	c #D6C08A",
"% 	c #C79564",
"& 	c #C39878",
"* 	c #D3B55F",
"= 	c #EADBB0",
"- 	c #A3B9C1",
"; 	c #E8EEF0",
"> 	c #D0B67C",
", 	c #CCA377",
"' 	c #D5B59A",
") 	c #DEC164",
"! 	c #F9DF67",
"~ 	c #E8D38E",
"{ 	c #F7F0E8",
"] 	c #E7EBEB",
"^ 	c #6A939C",
"/ 	c #407688",
"( 	c #C1CEC5",
"_ 	c #E5D8C3",
": 	c #CEAD60",
"< 	c #E2C35F",
"[ 	c #F8E065",
"} 	c #FEE567",
"| 	c #F1C14E",
"1 	c #CB8D4D",
"2 	c #758B85",
"3 	c #477E85",
"4 	c #7E9F5C",
"5 	c #EAEC50",
"6 	c #F8F9CE",
"7 	c #F1E8E0",
"8 	c #E1C273",
"9 	c #F7DC64",
"0 	c #F4CD57",
"a 	c #DE9731",
"b 	c #7E846B",
"c 	c #61938E",
"d 	c #A7BC42",
"e 	c #B4C034",
"f 	c #BFC244",
"g 	c #F4F5DA",
"h 	c #F9F9CE",
"i 	c #F2E9DD",
"j 	c #DCBE7D",
"k 	c #D2811F",
"l 	c #957C4C",
"m 	c #83B7B8",
"n 	c #AAC15B",
"o 	c #A6BC47",
"p 	c #9AAD3D",
"q 	c #E7E888",
"r 	c #F5F58B",
"s 	c #E6E73C",
"t 	c #F4F4C1",
"u 	c #847659",
"v 	c #5C8C8D",
"w 	c #669CA2",
"x 	c #79A2B6",
"y 	c #5C6AB2",
"z 	c #D3D652",
"A 	c #F5F868",
"B 	c #F2F683",
"C 	c #D2D650",
"D 	c #ECF1C9",
"E 	c #F4F6AC",
"F 	c #FCFCDF",
"G 	c #E0E5E7",
"H 	c #447072",
"I 	c #3B6E73",
"J 	c #4C8488",
"K 	c #5D77B6",
"L 	c #3D3DCC",
"M 	c #C7C957",
"N 	c #EDEFA2",
"O 	c #EDEF75",
"P 	c #AEDC49",
"Q 	c #D3ED4B",
"R 	c #CFDB24",
"S 	c #EEEEB1",
"T 	c #709093",
"U 	c #336269",
"V 	c #336368",
"W 	c #749694",
"X 	c #E1E973",
"Y 	c #DFDF37",
"Z 	c #82829E",
"` 	c #494DD3",
" .	c #A4C93B",
"..	c #B4EF13",
"+.	c #59F113",
"@.	c #34A54F",
"#.	c #ADC3A5",
"$.	c #F0F07E",
"%.	c #F6F6BB",
"&.	c #D1D9DB",
"*.	c #456B71",
"=.	c #7E9AA6",
"-.	c #829A9F",
";.	c #DAE0A2",
">.	c #E8E923",
",.	c #F0F2A8",
"'.	c #C5C6E1",
").	c #596695",
"!.	c #BAD937",
"~.	c #61F721",
"{.	c #28C13F",
"].	c #609467",
"^.	c #BECF3D",
"/.	c #9FB542",
"(.	c #E2E6AD",
"_.	c #E5E9EB",
":.	c #F8F8E9",
"<.	c #D6D539",
"[.	c #ECECA8",
"}.	c #F6F770",
"|.	c #C6EC12",
"1.	c #65F62E",
"2.	c #6DDE84",
"3.	c #92C589",
"4.	c #C7D937",
"5.	c #6A9970",
"6.	c #407B83",
"7.	c #8CAD85",
"8.	c #E3E549",
"9.	c #EFF090",
"0.	c #F5F6E4",
"a.	c #E8E8B4",
"b.	c #F3F3A5",
"c.	c #D6E113",
"d.	c #3CE203",
"e.	c #20D628",
"f.	c #8EC280",
"g.	c #D8E950",
"h.	c #94C69F",
"i.	c #538F95",
"j.	c #76A05F",
"k.	c #BFD13A",
"l.	c #799C58",
"m.	c #C8D3AE",
"n.	c #D3D343",
"o.	c #8FCF5D",
"p.	c #19B71E",
"q.	c #60A242",
"r.	c #BCCD2F",
"s.	c #7BAC87",
"t.	c #8EC9C5",
"u.	c #ADD48A",
"v.	c #C5DA42",
"w.	c #5D9179",
"x.	c #447E81",
"y.	c #81A463",
"z.	c #D4DB2F",
"A.	c #E6E971",
"B.	c #F0F0D2",
"C.	c #93BA61",
"D.	c #AAB91F",
"E.	c #568460",
"F.	c #468082",
"G.	c #9ABF6D",
"H.	c #D0E453",
"I.	c #97CCB4",
"J.	c #609CA1",
"K.	c #8FB151",
"L.	c #B8CD3E",
"M.	c #608D6D",
"N.	c #9F9784",
"O.	c #EDD1D1",
"P.	c #E08182",
"Q.	c #F1D3D4",
"R.	c #D0D154",
"S.	c #94A787",
"T.	c #3C6B68",
"U.	c #779848",
"V.	c #ADC131",
"W.	c #649A85",
"X.	c #87C0B8",
"Y.	c #C0DF7C",
"Z.	c #BED756",
"`.	c #578E82",
" +	c #6B5B62",
".+	c #CE1416",
"++	c #D30B0C",
"@+	c #BA181C",
"#+	c #E3B7B9",
"$+	c #F5F5E5",
"%+	c #A8B661",
"&+	c #A2B022",
"*+	c #487863",
"=+	c #3D777A",
"-+	c #A1C056",
";+	c #C1D958",
">+	c #97CFC2",
",+	c #7B9FA3",
"'+	c #D02222",
")+	c #E20A0A",
"!+	c #C42228",
"~+	c #5F5965",
"{+	c #CAD2D7",
"]+	c #D3D472",
"^+	c #B7C3B1",
"/+	c #50776E",
"(+	c #89A338",
"_+	c #99B236",
":+	c #52897F",
"<+	c #80AF9D",
"[+	c #D1BB58",
"}+	c #DA3E37",
"|+	c #D13638",
"1+	c #556F79",
"2+	c #3E7684",
"3+	c #588895",
"4+	c #C4D3D8",
"5+	c #C0C75D",
"6+	c #97A629",
"7+	c #3E6F65",
"8+	c #3B7373",
"9+	c #B1BF37",
"0+	c #DA9322",
"a+	c #D45753",
"b+	c #978B90",
"c+	c #4E868F",
"d+	c #417E87",
"e+	c #3D7783",
"f+	c #528594",
"g+	c #D8E2E6",
"h+	c #E1E2AA",
"i+	c #EAEDE2",
"j+	c #77937F",
"k+	c #9BAA29",
"l+	c #D16708",
"m+	c #DC1F1A",
"n+	c #806C6F",
"o+	c #6CA1A8",
"p+	c #89C5C9",
"q+	c #5D989C",
"r+	c #407E88",
"s+	c #3E7F8D",
"t+	c #6594A5",
"u+	c #E4EBEF",
"v+	c #D1D264",
"w+	c #B87C12",
"x+	c #C70E09",
"y+	c #903132",
"z+	c #417176",
"A+	c #568F93",
"B+	c #82BEC0",
"C+	c #72ADB0",
"D+	c #45848C",
"E+	c #418290",
"F+	c #48869C",
"G+	c #AFC7D1",
"H+	c #E9E3D0",
"I+	c #C85B58",
"J+	c #911D1E",
"K+	c #395257",
"L+	c #34676B",
"M+	c #3A7376",
"N+	c #498184",
"O+	c #4D888C",
"P+	c #437F85",
"Q+	c #42818F",
"R+	c #5594B2",
"S+	c #6494AA",
"T+	c #BE6263",
"U+	c #BC8588",
"V+	c #9DADB1",
"W+	c #396569",
"X+	c #336669",
"Y+	c #387073",
"Z+	c #3A757A",
"`+	c #3F7A85",
" @	c #4D8A9F",
".@	c #438091",
"+@	c #8DA9B1",
"@@	c #CFD7D8",
"#@	c #648387",
"$@	c #326064",
"%@	c #316366",
"&@	c #33666B",
"*@	c #366B72",
"=@	c #457F87",
"-@	c #468090",
";@	c #609AA4",
">@	c #8FB9BF",
",@	c #E2E9EC",
"'@	c #E7EAEB",
")@	c #A1B2B4",
"!@	c #638083",
"~@	c #31585D",
"{@	c #316166",
"]@	c #3E757E",
"^@	c #528E9B",
"/@	c #94C9C6",
"(@	c #A4C8A7",
"_@	c #9BB8AD",
":@	c #E0E8EA",
"<@	c #B7C4C6",
"[@	c #568288",
"}@	c #87C0C4",
"|@	c #B5B189",
"1@	c #C88376",
"2@	c #B9916D",
"3@	c #A5BDB6",
"4@	c #C8D4D5",
"5@	c #82ABAD",
"6@	c #B3B08C",
"7@	c #D6968B",
"8@	c #BD9575",
"9@	c #A4BFBD",
"0@	c #8CA6A4",
"a@	c #92AC93",
"b@	c #8CACA9",
"c@	c #D4DFE4",
"                                                                ",
"                                                                ",
". + @ #                                                         ",
"$ % & * =         - ;                                           ",
"> , ' ) ! ~ { ] ^ / (                                           ",
"_ : < [ } | 1 2 3 4 5 6                                         ",
"  7 8 9 0 a b c d e f g h                                       ",
"    i j k l m n o p q r s t                                     ",
"        u v w x y z A B C D E F                                 ",
"      G H I J K L M N O P Q R S                                 ",
"      T U V W X Y Z `  ...+.@.#.$.%.                            ",
"    &.*.=.-.;.>.,.'.).!.~.{.].^./.(.                            ",
"      _.  :.<.[.  }.|.1.2.3.4.5.6.7.8.9.                        ",
"          0.a.  b.c.d.e.f.g.h.i.j.k.l.m.                        ",
"                n.o.p.q.r.s.t.u.v.w.x.y.z.A.                    ",
"                B.  C.D.E.F.G.H.I.J.K.L.M.N.O.P.Q.              ",
"                    R.S.T.U.V.W.X.Y.Z.`. +.+++@+#+              ",
"                    $+  %+&+*+=+-+;+>+,+'+)+!+~+{+              ",
"                        ]+^+/+(+_+:+<+[+}+|+1+2+3+4+            ",
"                            5+6+7+8+9+0+a+b+c+d+e+f+g+          ",
"                            h+i+j+k+l+m+n+o+p+q+r+s+t+u+        ",
"                                v+w+x+y+z+A+B+C+D+E+F+G+        ",
"                                H+I+J+K+L+M+N+O+P+Q+R+S+        ",
"                                  T+U+V+W+X+Y+M+Z+`+ @.@+@      ",
"                                        @@#@$@%@&@*@=@-@;@>@,@  ",
"                                          '@)@!@~@{@]@^@/@(@_@:@",
"                                                  <@[@}@|@1@2@3@",
"                                                    4@5@6@7@8@9@",
"                                                        0@a@b@c@",
"                                                                ",
"                                                                ",
"                                                                "};
