/* XPM */
static char * tires16_xpm[] = {
"16 16 177 2",
"  	c None",
". 	c #DFE1DA",
"+ 	c #C8C9C4",
"@ 	c #C2C4BF",
"# 	c #D6D7D2",
"$ 	c #BBBDB9",
"% 	c #6E7072",
"& 	c #50545A",
"* 	c #4A5056",
"= 	c #434A4F",
"- 	c #31373E",
"; 	c #32373F",
"> 	c #5B5F60",
", 	c #C6C9C3",
"' 	c #909492",
") 	c #4C5257",
"! 	c #3E4249",
"~ 	c #3D414A",
"{ 	c #2D323A",
"] 	c #293137",
"^ 	c #5F6368",
"/ 	c #7A7D82",
"( 	c #64686E",
"_ 	c #394046",
": 	c #BDC1BD",
"< 	c #A2A8A3",
"[ 	c #454A4E",
"} 	c #32373C",
"| 	c #3A3E47",
"1 	c #282C35",
"2 	c #45474D",
"3 	c #9F9F9E",
"4 	c #989993",
"5 	c #868A86",
"6 	c #A6A7A1",
"7 	c #9C9C9F",
"8 	c #4B5353",
"9 	c #EAEBE5",
"0 	c #515658",
"a 	c #34393D",
"b 	c #2C3339",
"c 	c #262B33",
"d 	c #373C43",
"e 	c #9B9C98",
"f 	c #9A9B95",
"g 	c #7C7D7B",
"h 	c #737B78",
"i 	c #7B7F7E",
"j 	c #B1B0AC",
"k 	c #73757C",
"l 	c #BDC1BC",
"m 	c #A6A8A3",
"n 	c #383C40",
"o 	c #282C32",
"p 	c #292F37",
"q 	c #1F282F",
"r 	c #999598",
"s 	c #B3B4B2",
"t 	c #8C8F8C",
"u 	c #888A87",
"v 	c #858A8B",
"w 	c #A3A6A5",
"x 	c #959994",
"y 	c #ACA7A7",
"z 	c #949897",
"A 	c #727774",
"B 	c #303439",
"C 	c #22262B",
"D 	c #1C222A",
"E 	c #43474D",
"F 	c #E1DDDC",
"G 	c #DEDDDA",
"H 	c #A0A19F",
"I 	c #9A9B9E",
"J 	c #AEAEAB",
"K 	c #989A9B",
"L 	c #A0A49F",
"M 	c #C3C0BC",
"N 	c #888C8A",
"O 	c #545A56",
"P 	c #2C3135",
"Q 	c #1E2228",
"R 	c #1B1F28",
"S 	c #7A7A7D",
"T 	c #D6D3D0",
"U 	c #CAC9C7",
"V 	c #727476",
"W 	c #A4A5A0",
"X 	c #5C6264",
"Y 	c #BAB8B3",
"Z 	c #8F908D",
"` 	c #BBB7B5",
" .	c #8E9390",
"..	c #565B57",
"+.	c #2A2F33",
"@.	c #21252C",
"#.	c #1E2328",
"$.	c #929393",
"%.	c #A6A6A7",
"&.	c #969797",
"*.	c #BEBAB7",
"=.	c #B1B1B1",
"-.	c #595F61",
";.	c #929390",
">.	c #A3A39E",
",.	c #A5A6A6",
"'.	c #AAAFA9",
").	c #707671",
"!.	c #31363A",
"~.	c #272C31",
"{.	c #20242A",
"].	c #E0DDD8",
"^.	c #9EA09E",
"/.	c #9E9E9F",
"(.	c #9C9EA2",
"_.	c #93989A",
":.	c #9FA09C",
"<.	c #969994",
"[.	c #8D8F91",
"}.	c #DADCD7",
"|.	c #ACAFAA",
"1.	c #3D4244",
"2.	c #2D3237",
"3.	c #22262D",
"4.	c #979798",
"5.	c #B1B1AF",
"6.	c #8D908D",
"7.	c #7A7D7A",
"8.	c #B3B3AE",
"9.	c #8E928F",
"0.	c #A2A29C",
"a.	c #BDBCB6",
"b.	c #7C807F",
"c.	c #626563",
"d.	c #383D3F",
"e.	c #252A2E",
"f.	c #7F7F82",
"g.	c #919493",
"h.	c #979A98",
"i.	c #A0A1A0",
"j.	c #777C79",
"k.	c #858786",
"l.	c #A7A9A1",
"m.	c #A9A7AC",
"n.	c #B8BBB6",
"o.	c #CFD2CA",
"p.	c #484D4D",
"q.	c #2E3337",
"r.	c #414549",
"s.	c #BFBCBD",
"t.	c #A1A3A2",
"u.	c #757B79",
"v.	c #868B89",
"w.	c #A5AAA2",
"x.	c #C3C5C7",
"y.	c #7D827F",
"z.	c #CCCECD",
"A.	c #4C5252",
"B.	c #2B3033",
"C.	c #595D62",
"D.	c #B5B5B6",
"E.	c #C2C2BE",
"F.	c #C9C5C3",
"G.	c #99999E",
"H.	c #676C6E",
"I.	c #EDEFEB",
"J.	c #EAE9E2",
"K.	c #646763",
"L.	c #383D46",
"M.	c #464E56",
"N.	c #3A4149",
"O.	c #727776",
"P.	c #CBC9C1",
"Q.	c #82877D",
"R.	c #6A726A",
"S.	c #929891",
"T.	c #D7D8D3",
"            . + @ #             ",
"        $ % & * = - ; > ,       ",
"      ' ) ! ~ { ] ^ / ( _ :     ",
"    < [ } | 1 2 3 4 5 6 7 8     ",
"  9 0 a b c d e f g h i j k l   ",
"  m n o p q r s t u v w x y z   ",
"  A B C D E F G H I J K L M N   ",
"  O P Q R S T U V W X Y Z `  .  ",
"  ..+.@.#.$.%.&.*.=.-.;.>.,.'.  ",
"  ).!.~.{.,.].^./.(._.:.<.[.}.  ",
"  |.1.2.3.4.5.6.7.8.9.0.a.b.    ",
"    c.d.e.f.g.h.i.j.k.l.m.n.    ",
"    o.p.q.r.s.t.u.v.w.x.y.      ",
"      z.A.B.C.D.E.F.G.H.I.      ",
"        J.K.} L.M.N.O.          ",
"          P.Q.R.S.T.            "};
