/* XPM */
static const char * aavase48_xpm[] = {
"48 48 435 2",
"  	c None",
". 	c #99675A",
"+ 	c #A7554F",
"@ 	c #A14840",
"# 	c #833B32",
"$ 	c #AC7C6C",
"% 	c #B3665B",
"& 	c #962A27",
"* 	c #9B302B",
"= 	c #923830",
"- 	c #A7473E",
"; 	c #AE4641",
"> 	c #AF3D37",
", 	c #8A2E27",
"' 	c #7E211D",
") 	c #A0403C",
"! 	c #9A483E",
"~ 	c #702115",
"{ 	c #872A23",
"] 	c #9D4444",
"^ 	c #812526",
"/ 	c #8E221E",
"( 	c #AC3D34",
"_ 	c #BE6155",
": 	c #AB6659",
"< 	c #BA554F",
"[ 	c #B23B37",
"} 	c #93241C",
"| 	c #781F19",
"1 	c #791719",
"2 	c #8F2A2D",
"3 	c #7E322C",
"4 	c #62281C",
"5 	c #722B24",
"6 	c #682220",
"7 	c #782425",
"8 	c #9A2323",
"9 	c #B3302E",
"0 	c #BD5149",
"a 	c #BE5D50",
"b 	c #A32724",
"c 	c #A12521",
"d 	c #86261D",
"e 	c #6E211D",
"f 	c #5F1E1C",
"g 	c #622622",
"h 	c #651E1F",
"i 	c #6B1F24",
"j 	c #622121",
"k 	c #671F22",
"l 	c #752123",
"m 	c #892C27",
"n 	c #A34236",
"o 	c #8B2F23",
"p 	c #923D33",
"q 	c #985B4F",
"r 	c #B0554F",
"s 	c #BA3D3B",
"t 	c #BF3132",
"u 	c #A92A27",
"v 	c #902C24",
"w 	c #6E1E19",
"x 	c #5E212B",
"y 	c #512320",
"z 	c #521B15",
"A 	c #5D192B",
"B 	c #591E19",
"C 	c #5E2414",
"D 	c #692922",
"E 	c #742F26",
"F 	c #823229",
"G 	c #93372E",
"H 	c #A03730",
"I 	c #A94446",
"J 	c #A73036",
"K 	c #A03135",
"L 	c #892C2C",
"M 	c #742829",
"N 	c #5E2130",
"O 	c #522320",
"P 	c #522216",
"Q 	c #511C2E",
"R 	c #451C1E",
"S 	c #4A2216",
"T 	c #55241E",
"U 	c #672823",
"V 	c #74261F",
"W 	c #95362F",
"X 	c #A2362D",
"Y 	c #7B3031",
"Z 	c #8A2A2F",
"` 	c #8D3036",
" .	c #803034",
"..	c #722829",
"+.	c #6A2A2D",
"@.	c #693125",
"#.	c #5C2610",
"$.	c #502020",
"%.	c #3F242A",
"&.	c #3F2123",
"*.	c #4F2223",
"=.	c #602421",
"-.	c #7F302A",
";.	c #9A3A32",
">.	c #AB3F35",
",.	c #7E3936",
"'.	c #943A39",
").	c #9F3C3A",
"!.	c #852C29",
"~.	c #712822",
"{.	c #843527",
"].	c #9A4F39",
"^.	c #A25D42",
"/.	c #914E2B",
"(.	c #864D2F",
"_.	c #522C27",
":.	c #4E2932",
"<.	c #58272A",
"[.	c #732F2E",
"}.	c #8A342D",
"|.	c #A13C32",
"1.	c #AD4036",
"2.	c #C24C45",
"3.	c #B9564E",
"4.	c #A64947",
"5.	c #962C28",
"6.	c #9D312C",
"7.	c #973930",
"8.	c #7B2E22",
"9.	c #AD593A",
"0.	c #BA6E43",
"a.	c #8E4D2B",
"b.	c #8E4C26",
"c.	c #B3723C",
"d.	c #7D3E2C",
"e.	c #632931",
"f.	c #713033",
"g.	c #86332E",
"h.	c #99352A",
"i.	c #A93B31",
"j.	c #B94841",
"k.	c #7C332D",
"l.	c #9B3F3A",
"m.	c #9F3936",
"n.	c #89332E",
"o.	c #A65431",
"p.	c #935422",
"q.	c #572810",
"r.	c #653217",
"s.	c #B07134",
"t.	c #9B4D35",
"u.	c #74252D",
"v.	c #7E2C2B",
"w.	c #9D3930",
"x.	c #AD3B2E",
"y.	c #BF483E",
"z.	c #C54F4C",
"A.	c #9D5954",
"B.	c #973D3D",
"C.	c #9F4B49",
"D.	c #7A2B27",
"E.	c #872A2A",
"F.	c #A04429",
"G.	c #BE7344",
"H.	c #95522B",
"I.	c #914A24",
"J.	c #BD673B",
"K.	c #A43E2B",
"L.	c #8F2E30",
"M.	c #893330",
"N.	c #953A31",
"O.	c #A93930",
"P.	c #B43C33",
"Q.	c #C27D73",
"R.	c #8F3136",
"S.	c #8D3C3B",
"T.	c #843530",
"U.	c #8B2124",
"V.	c #982B20",
"W.	c #B65037",
"X.	c #B85433",
"Y.	c #B44C2C",
"Z.	c #AE3B28",
"`.	c #A92D29",
" +	c #9C2B2C",
".+	c #9A3130",
"++	c #9B3632",
"@+	c #9C3C32",
"#+	c #AA493C",
"$+	c #BC5547",
"%+	c #773E40",
"&+	c #89363D",
"*+	c #832F31",
"=+	c #842526",
"-+	c #A3282E",
";+	c #AF3339",
">+	c #AE3536",
",+	c #B0332E",
"'+	c #B4322D",
")+	c #AE2B2B",
"!+	c #A42027",
"~+	c #9C2324",
"{+	c #AF2E2F",
"]+	c #B73537",
"^+	c #B04F46",
"/+	c #A9594B",
"(+	c #B24C46",
"_+	c #9B3C3E",
":+	c #AD363C",
"<+	c #AA3238",
"[+	c #A5282E",
"}+	c #B22A2E",
"|+	c #B5282A",
"1+	c #AA2627",
"2+	c #A52D2D",
"3+	c #91251E",
"4+	c #9F2E28",
"5+	c #AF3132",
"6+	c #B83D40",
"7+	c #88403F",
"8+	c #953933",
"9+	c #91251F",
"0+	c #A82928",
"a+	c #A92626",
"b+	c #A1312B",
"c+	c #9E4639",
"d+	c #8C4133",
"e+	c #AA4F4B",
"f+	c #A9343C",
"g+	c #854D3C",
"h+	c #863628",
"i+	c #A33938",
"j+	c #A33338",
"k+	c #B15D5B",
"l+	c #AE9470",
"m+	c #BB8A75",
"n+	c #A25A5B",
"o+	c #B0636A",
"p+	c #ACA46D",
"q+	c #AFAC78",
"r+	c #BCB782",
"s+	c #9F9D61",
"t+	c #9A8275",
"u+	c #B0A07B",
"v+	c #968667",
"w+	c #A69C75",
"x+	c #A5A369",
"y+	c #BEB090",
"z+	c #C0B090",
"A+	c #CCBAA5",
"B+	c #AFA28D",
"C+	c #B8B28F",
"D+	c #D1BFAA",
"E+	c #BAA792",
"F+	c #A79688",
"G+	c #9B8C82",
"H+	c #948679",
"I+	c #D1BAAA",
"J+	c #D1BAA5",
"K+	c #CABF9D",
"L+	c #A59C7A",
"M+	c #CCB4A3",
"N+	c #CEB7A2",
"O+	c #C5BB96",
"P+	c #A89F7C",
"Q+	c #A08779",
"R+	c #C8B19E",
"S+	c #D1BAA3",
"T+	c #B6AD85",
"U+	c #AFA681",
"V+	c #9E8576",
"W+	c #D0B9A6",
"X+	c #DAC9B8",
"Y+	c #D9C8AF",
"Z+	c #CDB6A1",
"`+	c #CFB99F",
" @	c #A79D75",
".@	c #C6BD97",
"+@	c #B49B8B",
"@@	c #E0C8B4",
"#@	c #D5C5B6",
"$@	c #CFBEAC",
"%@	c #D1C0AA",
"&@	c #E4D3B9",
"*@	c #E3CCB6",
"=@	c #D8C2A7",
"-@	c #A79D73",
";@	c #C5BD95",
">@	c #CCB3A0",
",@	c #E3CCB4",
"'@	c #DBC6AD",
")@	c #D2C4B7",
"!@	c #D8C8B8",
"~@	c #D1C0AC",
"{@	c #E1D1B9",
"]@	c #E7D6BC",
"^@	c #ECD6BE",
"/@	c #DEC9AB",
"(@	c #B4AB80",
"_@	c #C9C198",
":@	c #E2CBB4",
"<@	c #EBD4BA",
"[@	c #D2BDA2",
"}@	c #BCA598",
"|@	c #CDBBAF",
"1@	c #E3D1C2",
"2@	c #DCCAB6",
"3@	c #E5D2BC",
"4@	c #E4D0B7",
"5@	c #E6D6B1",
"6@	c #D8CDA0",
"7@	c #C3BA92",
"8@	c #E9DBB9",
"9@	c #ECDBB6",
"0@	c #E9D7B7",
"a@	c #DFCDB5",
"b@	c #E9D6C5",
"c@	c #C2AEA1",
"d@	c #BDA99B",
"e@	c #D0BFB5",
"f@	c #DFCDC0",
"g@	c #E6D4C6",
"h@	c #E4D1C1",
"i@	c #ECD7C8",
"j@	c #EDD7CC",
"k@	c #EBDBBD",
"l@	c #D3C99B",
"m@	c #CEC59C",
"n@	c #E9DABF",
"o@	c #E9D6BF",
"p@	c #E8D5BE",
"q@	c #E2CFBD",
"r@	c #E0CDC1",
"s@	c #DAC6BE",
"t@	c #9A867C",
"u@	c #C4B4A6",
"v@	c #E0CFC2",
"w@	c #E3D1C4",
"x@	c #DFCBC0",
"y@	c #EAD4CC",
"z@	c #E9D2D5",
"A@	c #E7D7C1",
"B@	c #C7C090",
"C@	c #D2CAA0",
"D@	c #E1D2C0",
"E@	c #DFCAC5",
"F@	c #DFCBC1",
"G@	c #DDC9BF",
"H@	c #DEC9C4",
"I@	c #E6D1CD",
"J@	c #927D77",
"K@	c #BAAA9D",
"L@	c #CBBAAE",
"M@	c #E0CEC4",
"N@	c #E0CCC5",
"O@	c #E6D0CA",
"P@	c #E6D0D3",
"Q@	c #E7D9C3",
"R@	c #BAB484",
"S@	c #D0CBA1",
"T@	c #D9CBBC",
"U@	c #DBC7C7",
"V@	c #E0CCC7",
"W@	c #E2CEC8",
"X@	c #E1CCCA",
"Y@	c #D5C0BE",
"Z@	c #A18D87",
"`@	c #A89790",
" #	c #BEACA4",
".#	c #DBC9BF",
"+#	c #DBC7BD",
"@#	c #E1CCC1",
"##	c #E5D3C8",
"$#	c #DDD1B2",
"%#	c #B2AE7F",
"&#	c #DDD8B3",
"*#	c #D9CDBB",
"=#	c #DECDC4",
"-#	c #E1CEC6",
";#	c #D6C1BE",
">#	c #C0ABA8",
",#	c #D9C5BD",
"'#	c #AE9C9A",
")#	c #94817C",
"!#	c #DECBC2",
"~#	c #E1CDC1",
"{#	c #DCC8B9",
"]#	c #DCCEB2",
"^#	c #AFA87B",
"/#	c #B3AF81",
"(#	c #D0CBAC",
"_#	c #CBC0AF",
":#	c #C8BAA5",
"<#	c #C5B2A5",
"[#	c #CAB6AF",
"}#	c #D5C0BA",
"|#	c #D3BEB8",
"1#	c #715E5A",
"2#	c #B9A5A0",
"3#	c #E6CFCB",
"4#	c #E2CCC5",
"5#	c #DFD6B8",
"6#	c #ACA770",
"7#	c #C8C08B",
"8#	c #D1BFB1",
"9#	c #C7B0BE",
"0#	c #BFAAAC",
"a#	c #B69F9E",
"b#	c #BCA3A2",
"c#	c #BEA5A0",
"d#	c #D0B7AF",
"e#	c #83726E",
"f#	c #6A5855",
"g#	c #9B8786",
"h#	c #CEBAB9",
"i#	c #DBCCBF",
"j#	c #AFA27A",
"k#	c #B9A77C",
"l#	c #826A6A",
"m#	c #98807B",
"n#	c #6D5F5C",
"o#	c #665455",
"p#	c #756365",
"q#	c #87786F",
"r#	c #97886B",
"s#	c #AD9A77",
"t#	c #957C6E",
"u#	c #8B7270",
"v#	c #847163",
"w#	c #84716C",
"x#	c #887372",
"y#	c #7B6C6B",
"z#	c #7F706F",
"A#	c #979376",
"B#	c #826964",
"                                                                                                ",
"                                                      . +                                       ",
"                                              @ # $   % & *     = -                             ",
"                                            ; > , ' ) ! ~ { ] ^ / ( _ :                         ",
"                                          < [ } | 1 2 3 4 5 6 7 8 9 0 a                         ",
"                                          b c d e f g h i j k l m n o p q                       ",
"                                      r s t u v w x y z A B C D E F G H                         ",
"                                        I J K L M N O P Q R S T U V W X a                       ",
"                                        Y Z `  ...+.@.#.$.%.&.*.=.-.;.>.a                       ",
"                                      ,.'.).!.~.{.].^./.(._.:.<.[.}.|.1.2.3.                    ",
"                                      4.5.6.7.8.9.0.a.b.c.d.e.f.g.h.i.j.                        ",
"                                      k.l.m.) n.o.p.q.r.s.t.u.v.w.x.y.z.a                       ",
"                                      A.B.C.D.E.F.G.H.I.J.K.L.M.N.O.P.a Q.                      ",
"                                        R.S.T.U.V.W.X.Y.Z.`. +.+++@+#+$+                        ",
"                                      %+&+*+=+-+;+>+,+'+)+!+~+{+]+^+/+(+                        ",
"                                            _+:+<+[+}+|+1+2+3+4+5+6+                            ",
"                                            7+  8+9+0+a+b+c+d+a e+f+                            ",
"                                                g+h+i+j+k+                                      ",
"                                                l+m+n+o+                                        ",
"                                                p+                                              ",
"                                              q+r+                                              ",
"                                              s+                                                ",
"                                    t+t+u+v+w+x+t+                                              ",
"                                      y+z+A+B+C+                                                ",
"                                      D+E+F+G+H+                                                ",
"                                      I+J+K+L+t+                                                ",
"                                      M+N+O+P+Q+                                                ",
"                                      R+S+T+U+V+                                                ",
"                                W+X+Y+Z+`+ @.@+@@@W+                                            ",
"                              #@$@%@&@*@=@-@;@>@,@'@W+                                          ",
"                            )@!@~@{@]@^@/@(@_@:@<@[@W+}@                                        ",
"                            |@1@2@3@4@5@6@7@8@9@0@a@b@c@d@                                      ",
"                          e@f@g@h@i@j@k@l@m@n@o@p@q@r@s@t@                                      ",
"                          u@v@w@x@y@z@A@B@C@D@E@F@G@H@I@J@                                      ",
"                          K@L@M@N@O@P@Q@R@S@T@U@V@W@X@Y@Z@                                      ",
"                          `@ #.#+#@###$#%#&#*#=#-#E@;#>#,#                                      ",
"                          '#)#!#~#{#]#^#/#(#_#:#<#[#}#|#                                        ",
"                            1#2#3#4#5#6#7#8#9#0#a#b#c#d#                                        ",
"                            e#f#g#h#i#j#k#0#0#0#0#l#m#                                          ",
"                              n#o#p#q#r#s#t#u#v#w#x#                                            ",
"                                y#z#A#A#t#t#v#B#B#                                              ",
"                                                                                                ",
"                                                                                                ",
"                                                                                                ",
"                                                                                                ",
"                                                                                                ",
"                                                                                                ",
"                                                                                                "};
