/* XPM */
static const char * aavase16_xpm[] = {
"16 16 54 1",
" 	c None",
".	c #A04C44",
"+	c #A4352F",
"@	c #7B2522",
"#	c #742924",
"$	c #812726",
"%	c #AB483E",
"&	c #982E2F",
"*	c #642526",
"=	c #511E1E",
"-	c #5A251F",
";	c #92342C",
">	c #903936",
",	c #8F342E",
"'	c #954E2F",
")	c #894C2C",
"!	c #722D2E",
"~	c #AB3F36",
"{	c #8D3F40",
"]	c #8B2F2F",
"^	c #AB4531",
"/	c #AB3C2B",
"(	c #9C302F",
"_	c #AF4A3F",
":	c #9C322F",
"<	c #A83533",
"[	c #A33D36",
"}	c #B0906F",
"|	c #AD9A81",
"1	c #ABA27C",
"2	c #CBB6A2",
"3	c #A89982",
"4	c #D3C1AE",
"5	c #D5C0A8",
"6	c #B4A686",
"7	c #D9C2AD",
"8	c #E0CEBC",
"9	c #E3D2B3",
"0	c #D7CAA7",
"a	c #E0CDB7",
"b	c #BCA89C",
"c	c #C2B1A6",
"d	c #E0CDC3",
"e	c #D7C9B1",
"f	c #DACCB8",
"g	c #DECAC4",
"h	c #C1ACA7",
"i	c #C5B1AA",
"j	c #C2B790",
"k	c #C6B4AE",
"l	c #B6A09C",
"m	c #736363",
"n	c #978A71",
"o	c #8A7368",
"         .      ",
"       +@#$%    ",
"       &*=-;    ",
"      >,')!~    ",
"      {]^/(_    ",
"        :<[     ",
"        }       ",
"      |1        ",
"      23        ",
"     4567       ",
"     890ab      ",
"    cdefgh      ",
"     ijkl       ",
"     mno        ",
"                ",
"                "};
