/* XPM */
static char * aero32_xpm[] = {
"32 32 326 2",
"  	c None",
". 	c #E3E3FD",
"+ 	c #D8D8FE",
"@ 	c #CECEFE",
"# 	c #CECEFF",
"$ 	c #B1B1FD",
"% 	c #B0B0FE",
"& 	c #9F9FFE",
"* 	c #9E9EFE",
"= 	c #9E9EFF",
"- 	c #9D9DFE",
"; 	c #A9A9FE",
"> 	c #B1B1FE",
", 	c #B4B5FE",
"' 	c #CCCDFD",
") 	c #DADAFE",
"! 	c #E2E3FE",
"~ 	c #E8E8FD",
"{ 	c #AAAAFE",
"] 	c #ABABFF",
"^ 	c #C0C0FF",
"/ 	c #D2D2FE",
"( 	c #DCDCFE",
"_ 	c #E4E4FE",
": 	c #EAEAFE",
"< 	c #DEDEFE",
"[ 	c #BFBFFE",
"} 	c #A8A8FE",
"| 	c #A0A0FD",
"1 	c #A8A9FE",
"2 	c #BBBCFE",
"3 	c #C7C7FE",
"4 	c #DFDFFE",
"5 	c #E8E8FE",
"6 	c #D8EBEB",
"7 	c #CCE5E5",
"8 	c #E8F3F3",
"9 	c #E1E1FE",
"0 	c #D0D0FE",
"a 	c #BEBEFE",
"b 	c #ABABFE",
"c 	c #A4A4FD",
"d 	c #A0A0FE",
"e 	c #DBECEC",
"f 	c #CBE4E4",
"g 	c #99CCCC",
"h 	c #86C2C2",
"i 	c #7ABCBC",
"j 	c #48A3A3",
"k 	c #48A3A2",
"l 	c #47A3A2",
"m 	c #41A0A0",
"n 	c #51A7A8",
"o 	c #4FA7A7",
"p 	c #3E9F9F",
"q 	c #56AAAA",
"r 	c #7EBEBE",
"s 	c #A1D0D0",
"t 	c #D0E7E7",
"u 	c #ECEBFE",
"v 	c #45A2A1",
"w 	c #47A2A2",
"x 	c #51A8A8",
"y 	c #75BABA",
"z 	c #98CBCB",
"A 	c #DAECEC",
"B 	c #E2F0F0",
"C 	c #C3E0E0",
"D 	c #97CBCB",
"E 	c #68B3B3",
"F 	c #40A0A0",
"G 	c #64B2B2",
"H 	c #86C3C3",
"I 	c #B2D8D8",
"J 	c #CAE4E4",
"K 	c #E4F1F1",
"L 	c #D6EAEA",
"M 	c #EAF4F4",
"N 	c #E2FCDB",
"O 	c #E3FCDB",
"P 	c #E2FBDB",
"Q 	c #CFE6E6",
"R 	c #AFD6D6",
"S 	c #84C2C2",
"T 	c #61B0B0",
"U 	c #42A0A0",
"V 	c #65B1B1",
"W 	c #C9E4E4",
"X 	c #EAF3F3",
"Y 	c #D9FACE",
"Z 	c #B2F89E",
"` 	c #95F477",
" .	c #75F24F",
"..	c #75F251",
"+.	c #77F253",
"@.	c #7AF357",
"#.	c #7AF257",
"$.	c #7BF358",
"%.	c #77F353",
"&.	c #76F252",
"*.	c #87F467",
"=.	c #9AF580",
"-.	c #B9F7A7",
";.	c #CBF9BD",
">.	c #DDFAD4",
",.	c #E0EFEF",
"'.	c #A8D3D3",
").	c #7DBDBD",
"!.	c #51A7A7",
"~.	c #77F354",
"{.	c #6DF147",
"].	c #99F67F",
"^.	c #BBF9A9",
"/.	c #D3FBC8",
"(.	c #DDFCD4",
"_.	c #E2FBDA",
":.	c #D9FACF",
"<.	c #C7F9B8",
"[.	c #B4F7A1",
"}.	c #95F479",
"|.	c #81F361",
"1.	c #74F250",
"2.	c #89F46A",
"3.	c #DAFBD0",
"4.	c #C6E2E2",
"5.	c #E4FCDD",
"6.	c #DFDFDF",
"7.	c #BABABA",
"8.	c #A0A0A0",
"9.	c #787878",
"0.	c #777777",
"a.	c #979797",
"b.	c #B4B4B4",
"c.	c #B9B9B9",
"d.	c #D2D2D2",
"e.	c #E3E3E3",
"f.	c #DDFBD4",
"g.	c #C0F9AF",
"h.	c #9BF582",
"i.	c #7DF35B",
"j.	c #71F24C",
"k.	c #9BF681",
"l.	c #B9F8A7",
"m.	c #D0FAC3",
"n.	c #E1E1E1",
"o.	c #3E3E3E",
"p.	c #353535",
"q.	c #3D3D3D",
"r.	c #4E4E4E",
"s.	c #535353",
"t.	c #3B3B3B",
"u.	c #3A3A3A",
"v.	c #343434",
"w.	c #3F3F3F",
"x.	c #A8A8A8",
"y.	c #D9D9D9",
"z.	c #E4FBDD",
"A.	c #CDFAC0",
"B.	c #B4F8A1",
"C.	c #96F57A",
"D.	c #6FF249",
"E.	c #82F462",
"F.	c #A4F68D",
"G.	c #D2FAC6",
"H.	c #5A5A5A",
"I.	c #606060",
"J.	c #808080",
"K.	c #737373",
"L.	c #585858",
"M.	c #383838",
"N.	c #202020",
"O.	c #464646",
"P.	c #6F6F6F",
"Q.	c #BDBDBD",
"R.	c #EFFDEB",
"S.	c #CEFAC1",
"T.	c #A9F693",
"U.	c #7EF35C",
"V.	c #6BF144",
"W.	c #D8E9E9",
"X.	c #324040",
"Y.	c #767676",
"Z.	c #7F7F7F",
"`.	c #7E7E7E",
" +	c #494949",
".+	c #333333",
"++	c #C9C9C9",
"@+	c #E9FCE4",
"#+	c #39FDFD",
"$+	c #77C7C7",
"%+	c #5F5F5F",
"&+	c #363636",
"*+	c #373737",
"=+	c #454545",
"-+	c #545454",
";+	c #616161",
">+	c #727272",
",+	c #474747",
"'+	c #272727",
")+	c #323232",
"!+	c #757575",
"~+	c #B5B5B5",
"{+	c #D7D7D7",
"]+	c #CEFEFE",
"^+	c #E0E0E0",
"/+	c #C2C2C2",
"(+	c #ACACAC",
"_+	c #939393",
":+	c #525453",
"<+	c #1D1D1D",
"[+	c #242424",
"}+	c #575757",
"|+	c #5B5B5B",
"1+	c #4A4A4A",
"2+	c #313131",
"3+	c #686868",
"4+	c #A6A6A6",
"5+	c #D3D3D3",
"6+	c #B3B3B3",
"7+	c #A3A3A3",
"8+	c #696969",
"9+	c #636363",
"0+	c #151515",
"a+	c #279494",
"b+	c #58FEFE",
"c+	c #E4E4E4",
"d+	c #E4E3E3",
"e+	c #C6C6C6",
"f+	c #BEBEBE",
"g+	c #BEDBDB",
"h+	c #BEFEFE",
"i+	c #FEBD7C",
"j+	c #FEAA56",
"k+	c #FEA143",
"l+	c #FEA043",
"m+	c #FEA852",
"n+	c #FEBC78",
"o+	c #FEBE7C",
"p+	c #FEC182",
"q+	c #FED9B4",
"r+	c #FEE2C6",
"s+	c #FEE7D1",
"t+	c #FED0A1",
"u+	c #FEDEBE",
"v+	c #FEF4EB",
"w+	c #FDF4EB",
"x+	c #FEE3C7",
"y+	c #FEC790",
"z+	c #FEAF5F",
"A+	c #FEAB57",
"B+	c #FEA64D",
"C+	c #FE9F40",
"D+	c #FEA244",
"E+	c #FEB266",
"F+	c #FEB469",
"G+	c #FEB368",
"H+	c #FECA96",
"I+	c #FED2A6",
"J+	c #FED8B1",
"K+	c #FEECDA",
"L+	c #FEE2C5",
"M+	c #FEDAB5",
"N+	c #FED7B1",
"O+	c #FEBB78",
"P+	c #FED9D9",
"Q+	c #FEC8C8",
"R+	c #FE8F8F",
"S+	c #FE8E8E",
"T+	c #FED0D0",
"U+	c #FED8D8",
"V+	c #FEE5E5",
"W+	c #FE4B4A",
"X+	c #FE4D4D",
"Y+	c #FE8A8A",
"Z+	c #FE8383",
"`+	c #FE4C4D",
" @	c #FE4242",
".@	c #FE4C4C",
"+@	c #FE4949",
"@@	c #FE6262",
"#@	c #FE7171",
"$@	c #FE9494",
"%@	c #FEB1B1",
"&@	c #FEBDBD",
"*@	c #FED6D6",
"=@	c #FEDFDF",
"-@	c #FED1D1",
";@	c #FEC9C9",
">@	c #FEB0B0",
",@	c #FDABAB",
"'@	c #FEACAC",
")@	c #FD7373",
"!@	c #FD6C6D",
"~@	c #FE6D6D",
"{@	c #FE4B4B",
"]@	c #FE4848",
"^@	c #BF7F7D",
"/@	c #BF8181",
"(@	c #BF8080",
"_@	c #AD5A5B",
":@	c #AA5556",
"<@	c #AA5656",
"[@	c #A64E4E",
"}@	c #BF8081",
"|@	c #D9B3B3",
"1@	c #DCBABA",
"2@	c #DEBFBF",
"3@	c #EAD7D7",
"4@	c #EEDFDF",
"5@	c #CD9D9D",
"6@	c #CD9C9C",
"7@	c #D5ADAD",
"8@	c #E3C7C8",
"9@	c #E2C7C8",
"0@	c #E3C8C8",
"a@	c #CD9D9C",
"b@	c #CC9C9C",
"c@	c #C78F8F",
"d@	c #B06262",
"e@	c #B16464",
"f@	c #A95354",
"g@	c #9C3A3B",
"h@	c #9E3E3E",
"i@	c #9E3D3D",
"j@	c #A85151",
"k@	c #E4CBCB",
"                                                                ",
"                                                                ",
". + @ # $ $ % & * = * * * * * * - ; > , ' ' ) ! ~               ",
"{ ] ^ ^ / ( ( _                 : < ( @ [ [ } { | | 1 2 3 4 5   ",
"                  6 7 7 7 7 8                       9 0 a b c d ",
"  e f g h i j k l m n n n o p j q r s t                       u ",
"v w x y z z A B B           B B C D E x F m G H I J K           ",
"L M         N N N O P                   6 Q R S T j U V z W X   ",
"  Y Z `  ...+.@.#.$.%.&.+.*.=.-.;.>.                ,.'.).!.m m ",
"~.{.].^./.(.          _.:.<.[.}.|.1...2.[.3.                A 4.",
"5.  6.7.8.9.9.9.0.0.a.b.c.d.e.      f.g.h.i.j.@.k.l.m.5.        ",
"  n.o.p.q.r.s.s.s.s.t.u.p.v.w.s.x.y.        z.A.B.C.@.D.E.F.G.  ",
"  H.I.J.J.J.J.J.J.J.J.J.J.J.K.L.M.N.O.P.Q.6.          R.S.T.U.V.",
"W.X.H.Y.Z.J.J.J.J.J.J.J.J.J.J.J.`.K.I. +.+u.0.++              @+",
"#+$+%+&+*+v.=+=+-+I.I.;+>+>+>+Y.J.J.Z.Z.Z.P.,+'+)+!+~+{+        ",
"]+    ^+/+(+_+_+H.:+-+u.<+<+<+[+p.p.p.p.}+H.H.s.|+1+2+v.3+4+    ",
"                              5+b.b.6+7+8+8+8+9+u.u.u.u.<+0+a+b+",
"                                                c+c+c+d+e+f+g+h+",
"                                                                ",
"i+i+j+k+l+l+l+l+l+k+k+k+m+n+o+o+p+q+r+r+s+                      ",
"t+t+u+  v+v+v+v+v+w+    x+t+t+t+y+z+A+A+B+C+k+k+D+E+F+G+H+I+I+J+",
"                                          K+K+K+L+M+M+N+O+O+O+A+",
"                                                                ",
"P+P+P+Q+R+S+T+U+U+U+P+P+P+V+                                    ",
"W+X+X+X+Y+Z+`+`+`+`+X+X+X+ @.@.@.@.@+@@@#@#@#@#@$@%@%@%@%@&@*@*@",
"                          =@-@-@-@-@;@>@,@'@'@'@)@!@~@~@~@{@]@]@",
"                                                                ",
"                                                                ",
"^@/@/@/@/@/@/@/@(@_@:@<@<@[@/@/@/@/@/@/@}@/@|@1@1@1@2@3@4@4@4@  ",
"5@6@6@6@6@6@6@6@6@7@8@9@0@1@5@5@a@a@b@6@6@c@d@e@e@e@f@g@h@h@i@j@",
"                                                              k@",
"                                                                "};
