/* XPM */
static char * car32_xpm[] = {
"32 32 290 2",
"  	c None",
". 	c #EEEAEB",
"+ 	c #D2CFD1",
"@ 	c #A9A4A6",
"# 	c #9F9395",
"$ 	c #918689",
"% 	c #867F83",
"& 	c #8F878C",
"* 	c #89767E",
"= 	c #80676E",
"- 	c #98848A",
"; 	c #A898A0",
"> 	c #AD9FA6",
", 	c #C1B6BB",
"' 	c #CDC6C9",
") 	c #DFDEE0",
"! 	c #999EA0",
"~ 	c #93999B",
"{ 	c #625F5F",
"] 	c #8B7276",
"^ 	c #665A60",
"/ 	c #5E666F",
"( 	c #5B5D70",
"_ 	c #5A6775",
": 	c #5B6B78",
"< 	c #556475",
"[ 	c #525F72",
"} 	c #576776",
"| 	c #54636E",
"1 	c #4A5466",
"2 	c #89858E",
"3 	c #EFEAEE",
"4 	c #CEC0C6",
"5 	c #84787F",
"6 	c #676469",
"7 	c #585A5B",
"8 	c #55524D",
"9 	c #776B6E",
"0 	c #616675",
"a 	c #506476",
"b 	c #4D606D",
"c 	c #4E626C",
"d 	c #4D616C",
"e 	c #4C606B",
"f 	c #4B5C69",
"g 	c #4A5C69",
"h 	c #4D626B",
"i 	c #4E636C",
"j 	c #586372",
"k 	c #B7B1B5",
"l 	c #CB9CA2",
"m 	c #CF8A95",
"n 	c #C1A3A8",
"o 	c #87767C",
"p 	c #5D5559",
"q 	c #574D4D",
"r 	c #62525A",
"s 	c #645D6F",
"t 	c #4F5769",
"u 	c #4D5C6D",
"v 	c #4E5E6E",
"w 	c #4B5D6B",
"x 	c #414D5E",
"y 	c #445464",
"z 	c #425060",
"A 	c #465664",
"B 	c #4A5B62",
"C 	c #47535E",
"D 	c #5B5D64",
"E 	c #BDB5B7",
"F 	c #BB7377",
"G 	c #AF3A44",
"H 	c #C3586A",
"I 	c #C87688",
"J 	c #BF8F9D",
"K 	c #A0808A",
"L 	c #7D5260",
"M 	c #956978",
"N 	c #583F4B",
"O 	c #453A45",
"P 	c #3F333F",
"Q 	c #3D2A38",
"R 	c #362532",
"S 	c #422634",
"T 	c #4D2130",
"U 	c #5F2A39",
"V 	c #6A2435",
"W 	c #682334",
"X 	c #712938",
"Y 	c #874452",
"Z 	c #BD9097",
"` 	c #D3C8CA",
" .	c #9A7A74",
"..	c #8C4041",
"+.	c #C24F5A",
"@.	c #C24E5D",
"#.	c #C55D6D",
"$.	c #CA6C7A",
"%.	c #C16370",
"&.	c #D2818E",
"*.	c #BD6677",
"=.	c #983B48",
"-.	c #8C2534",
";.	c #842333",
">.	c #7C2937",
",.	c #841A2A",
"'.	c #832638",
").	c #7F2835",
"!.	c #822230",
"~.	c #812030",
"{.	c #842736",
"].	c #8A2534",
"^.	c #92293B",
"/.	c #972439",
"(.	c #8D3D4C",
"_.	c #BE8D94",
":.	c #E4DFDB",
"<.	c #A69A99",
"[.	c #957E7E",
"}.	c #CD7B84",
"|.	c #D06C79",
"1.	c #D16471",
"2.	c #CA5F69",
"3.	c #C3525E",
"4.	c #B04C5D",
"5.	c #B15D6C",
"6.	c #CE7580",
"7.	c #A9414F",
"8.	c #97303E",
"9.	c #842D3A",
"0.	c #821F2F",
"a.	c #7F2634",
"b.	c #7E2836",
"c.	c #7F2735",
"d.	c #7C2837",
"e.	c #7D2938",
"f.	c #802634",
"g.	c #892333",
"h.	c #962131",
"i.	c #892F3E",
"j.	c #852738",
"k.	c #77595C",
"l.	c #DFDDDC",
"m.	c #B2A7AC",
"n.	c #9F8890",
"o.	c #C16C77",
"p.	c #C45B6A",
"q.	c #C35663",
"r.	c #C46369",
"s.	c #B96567",
"t.	c #7A4449",
"u.	c #725456",
"v.	c #A14853",
"w.	c #D57A81",
"x.	c #BA5866",
"y.	c #924551",
"z.	c #823744",
"A.	c #813340",
"B.	c #7D3A4B",
"C.	c #792736",
"D.	c #7C1A2B",
"E.	c #87202C",
"F.	c #8A1E2A",
"G.	c #892532",
"H.	c #7F2B38",
"I.	c #842A3B",
"J.	c #721D2A",
"K.	c #3E2623",
"L.	c #B8B2AF",
"M.	c #B7BAB8",
"N.	c #857C7C",
"O.	c #A7646A",
"P.	c #C0606D",
"Q.	c #CB5B6B",
"R.	c #C8606D",
"S.	c #B55E65",
"T.	c #86565F",
"U.	c #8A8383",
"V.	c #80474C",
"W.	c #B73C48",
"X.	c #9F3E46",
"Y.	c #785053",
"Z.	c #654A52",
"`.	c #745862",
" +	c #563F49",
".+	c #55333A",
"++	c #721F2C",
"@+	c #8F1721",
"#+	c #87111A",
"$+	c #7E1620",
"%+	c #7E252F",
"&+	c #7B2A3A",
"*+	c #752030",
"=+	c #511018",
"-+	c #A89294",
";+	c #E6E6E6",
">+	c #B6B6B5",
",+	c #CBC3C3",
"'+	c #DCBFC4",
")+	c #BE7F88",
"!+	c #B2666F",
"~+	c #AA6167",
"{+	c #907679",
"]+	c #AEADAE",
"^+	c #7E6064",
"/+	c #A83843",
"(+	c #AE353F",
"_+	c #A13A44",
":+	c #8C3C46",
"<+	c #7A2F38",
"[+	c #872530",
"}+	c #811E26",
"|+	c #841925",
"1+	c #85111E",
"2+	c #7B0D18",
"3+	c #6F101A",
"4+	c #67111B",
"5+	c #5F1B29",
"6+	c #591821",
"7+	c #4C1116",
"8+	c #A59295",
"9+	c #EAE2E3",
"0+	c #CEB6B9",
"a+	c #A1787D",
"b+	c #887B7C",
"c+	c #AFB3B3",
"d+	c #705F62",
"e+	c #9F414B",
"f+	c #AF3844",
"g+	c #8F2A34",
"h+	c #612628",
"i+	c #501E20",
"j+	c #6F1B23",
"k+	c #77121C",
"l+	c #6A1019",
"m+	c #590F18",
"n+	c #510F16",
"o+	c #471014",
"p+	c #431216",
"q+	c #340D11",
"r+	c #300B0D",
"s+	c #360F12",
"t+	c #9C8F91",
"u+	c #A6A5A7",
"v+	c #A6A9AA",
"w+	c #787073",
"x+	c #894B51",
"y+	c #A1474F",
"z+	c #8F373E",
"A+	c #733839",
"B+	c #5A3036",
"C+	c #4D171D",
"D+	c #641722",
"E+	c #4C1218",
"F+	c #200809",
"G+	c #200909",
"H+	c #280B0B",
"I+	c #371313",
"J+	c #2E0F10",
"K+	c #361F20",
"L+	c #594044",
"M+	c #CEC5C7",
"N+	c #BEBEC0",
"O+	c #7A7A7B",
"P+	c #6A6568",
"Q+	c #86585C",
"R+	c #A06166",
"S+	c #954C52",
"T+	c #863F47",
"U+	c #772D39",
"V+	c #692029",
"W+	c #741E2A",
"X+	c #691C26",
"Y+	c #4C1D27",
"Z+	c #522A33",
"`+	c #634145",
" @	c #95797A",
".@	c #B3A4A4",
"+@	c #C5BEBE",
"@@	c #D9D4D5",
"#@	c #CACACA",
"$@	c #BEBEBE",
"%@	c #EAE9E6",
"&@	c #EAE4E4",
"*@	c #CDC0C1",
"=@	c #BFB4B3",
"-@	c #C9BEBE",
";@	c #E4DCDD",
">@	c #E4DDDD",
",@	c #E9E0E4",
"                                                                ",
"                                                                ",
"                                                                ",
"                                                                ",
"                                                                ",
"                                                                ",
"                                                                ",
"                                                                ",
"                                                                ",
"                                                                ",
"                          .                                     ",
"            + @ # $ % & * = - ; > , '                           ",
"        ) ! ~ { ] ^ / ( _ : < [ } | 1 2                         ",
"    3 4 5 6 7 8 9 0 a b c d e f g h i j k                       ",
"    l m n o p q r s t u v w x y z A B C D E                     ",
"    F G H I J K L M N O P Q R S T U V W X Y Z `                 ",
"     ...+.@.#.$.%.&.*.=.-.;.>.,.'.).!.~.{.].^./.(._.:.          ",
"    <.[.}.|.1.2.3.4.5.6.7.8.9.0.a.b.c.d.e.f.g.h.i.j.k.l.        ",
"    m.n.o.p.q.r.s.t.u.v.w.x.y.z.A.B.C.D.E.F.G.H.I.J.K.L.        ",
"    M.N.O.P.Q.R.S.T.U.V.W.X.Y.Z.`. +.+++@+#+$+%+&+*+=+-+        ",
"    ;+>+,+'+)+!+~+{+]+^+/+(+_+:+<+[+}+|+1+2+3+4+5+6+7+8+        ",
"            9+0+a+b+c+d+e+f+g+h+i+j+k+l+m+n+o+p+q+r+s+t+        ",
"                  u+v+w+x+y+z+A+B+C+D+E+F+G+H+I+J+K+L+M+        ",
"                  N+O+P+Q+R+S+T+U+V+W+X+Y+Z+`+ @.@+@@@          ",
"                    #@$@%@  &@*@=@-@;@>@,@                      ",
"                                                                ",
"                                                                ",
"                                                                ",
"                                                                ",
"                                                                ",
"                                                                ",
"                                                                "};
