/* XPM */
static char * drivetrain48_xpm[] = {
"48 48 654 2",
"  	c None",
". 	c #EDE9E9",
"+ 	c #DCC9BF",
"@ 	c #DCC7BE",
"# 	c #D5BCAF",
"$ 	c #F0E8E5",
"% 	c #E3CEC5",
"& 	c #E4C8A4",
"* 	c #EBB85E",
"= 	c #F0BB53",
"- 	c #DFC4A8",
"; 	c #FAF1EB",
"> 	c #EDE3DF",
", 	c #D9C1B8",
"' 	c #CEAEA1",
") 	c #E5C797",
"! 	c #F8AD29",
"~ 	c #F9AD1F",
"{ 	c #F3BD45",
"] 	c #E3C5A8",
"^ 	c #ECD7CB",
"/ 	c #D2BAB1",
"( 	c #CAAC9E",
"_ 	c #CDAD9E",
": 	c #D0AD9D",
"< 	c #DCBEA5",
"[ 	c #E2BF87",
"} 	c #E4C396",
"| 	c #E6C2AB",
"1 	c #F0C6AF",
"2 	c #E4C2B0",
"3 	c #E9E1DD",
"4 	c #C3A99E",
"5 	c #C5A79A",
"6 	c #CCAC9D",
"7 	c #D2AF9F",
"8 	c #D7B4A1",
"9 	c #E1BAA6",
"0 	c #EDC3AE",
"a 	c #F5CAB4",
"b 	c #F5CAB6",
"c 	c #F1C9B8",
"d 	c #C5A595",
"e 	c #F1E4DC",
"f 	c #E1D4CF",
"g 	c #C2A79B",
"h 	c #C4A799",
"i 	c #C9AA9C",
"j 	c #D1AFA0",
"k 	c #D8B5A4",
"l 	c #E1BCAA",
"m 	c #F1C7B3",
"n 	c #FAD0BB",
"o 	c #FCD4C0",
"p 	c #FBD7C9",
"q 	c #EDD3D1",
"r 	c #AE9FA0",
"s 	c #D8CED0",
"t 	c #ECE2DF",
"u 	c #CEB5AC",
"v 	c #C6A99D",
"w 	c #C7A99C",
"x 	c #CAAA9D",
"y 	c #D5B4A6",
"z 	c #DDBBAD",
"A 	c #E9C4B6",
"B 	c #F6CFBE",
"C 	c #FBD5C4",
"D 	c #F1CCBC",
"E 	c #D3B3A5",
"F 	c #D9B5A5",
"G 	c #D4B7AC",
"H 	c #EAD6D3",
"I 	c #E7D9D4",
"J 	c #E2D2CC",
"K 	c #DECDC6",
"L 	c #DAC8BF",
"M 	c #D5C1B7",
"N 	c #D1B9AF",
"O 	c #CCB2A6",
"P 	c #C9ACA0",
"Q 	c #CBAC9E",
"R 	c #CDAD9F",
"S 	c #CEAEA0",
"T 	c #CEAFA3",
"U 	c #D2B3A7",
"V 	c #D6B7AC",
"W 	c #DEBEB4",
"X 	c #EBC9BE",
"Y 	c #F5D2C6",
"Z 	c #F9D4C9",
"` 	c #DAC0BB",
" .	c #B4A6AC",
"..	c #B8ADB4",
"+.	c #D6C2C3",
"@.	c #E5CBC5",
"#.	c #F0E4DF",
"$.	c #E8D6CE",
"%.	c #E2CEC4",
"&.	c #DCC6BB",
"*.	c #D7BDB1",
"=.	c #D2B7A9",
"-.	c #CCAFA1",
";.	c #CAAC9C",
">.	c #C7AA9B",
",.	c #C7AA9C",
"'.	c #C8AB9C",
").	c #CDAD9D",
"!.	c #CEAE9E",
"~.	c #D1B0A1",
"{.	c #D4B2A3",
"].	c #D6B6A8",
"^.	c #D4B4A7",
"/.	c #D2B3A9",
"(.	c #D4B6AC",
"_.	c #D7BAB3",
":.	c #DDC0BB",
"<.	c #E6C8C2",
"[.	c #EFD0CA",
"}.	c #F6D5CD",
"|.	c #F7D5CD",
"1.	c #F4D5CD",
"2.	c #F7D4C9",
"3.	c #F8D4C9",
"4.	c #E8C8BF",
"5.	c #CFAF9D",
"6.	c #B19E99",
"7.	c #A69898",
"8.	c #A69B9C",
"9.	c #A99D9D",
"0.	c #D6B4A0",
"a.	c #DCB7A2",
"b.	c #D9B5A2",
"c.	c #D6B3A1",
"d.	c #D0AF9F",
"e.	c #D1B0A0",
"f.	c #D6B4A5",
"g.	c #D5B5A7",
"h.	c #D3B5A7",
"i.	c #D4B5A7",
"j.	c #D6B7A9",
"k.	c #DBB9AB",
"l.	c #DFBDAE",
"m.	c #E4C1B1",
"n.	c #E9C5B4",
"o.	c #E5C3B7",
"p.	c #D5BEB5",
"q.	c #CAB7B5",
"r.	c #D4B5AB",
"s.	c #D2B5AC",
"t.	c #D2B7B1",
"u.	c #D3B9B6",
"v.	c #D6BEBE",
"w.	c #DDC8C9",
"x.	c #E6D1D4",
"y.	c #EED5D6",
"z.	c #EFD5D4",
"A.	c #F2D5D2",
"B.	c #F4D4CF",
"C.	c #F5D4CD",
"D.	c #EBCBC5",
"E.	c #F4E7E1",
"F.	c #F3E6DE",
"G.	c #EACAB7",
"H.	c #C3A695",
"I.	c #B2A09B",
"J.	c #B4A29E",
"K.	c #B3A29D",
"L.	c #B29B8F",
"M.	c #E9C4B0",
"N.	c #EDC8B6",
"O.	c #ECC8B5",
"P.	c #EAC3AE",
"Q.	c #D0AF9D",
"R.	c #D4B5A6",
"S.	c #D8B8A9",
"T.	c #E0C3BA",
"U.	c #DEC4BC",
"V.	c #DFC4BD",
"W.	c #E1C6BF",
"X.	c #E3C7C0",
"Y.	c #E7CAC3",
"Z.	c #EACDC5",
"`.	c #EDCEC7",
" +	c #E1C8C6",
".+	c #A9AF9E",
"++	c #B2A9AC",
"@+	c #CDB8B9",
"#+	c #C7B0AD",
"$+	c #C8B3B2",
"%+	c #CAB6B7",
"&+	c #CCBABE",
"*+	c #D5C6CE",
"=+	c #E0D4E0",
"-+	c #E7D9E5",
";+	c #E8D8E2",
">+	c #EBD7DE",
",+	c #EED4D7",
"'+	c #F0D3D2",
")+	c #E5C5BE",
"!+	c #E6D1C9",
"~+	c #F3E3D9",
"{+	c #E2C5B3",
"]+	c #E0BCA6",
"^+	c #E3B9A1",
"/+	c #BEA394",
"(+	c #B0A3A4",
"_+	c #BEABA6",
":+	c #BEACA9",
"<+	c #BCACA9",
"[+	c #B4A39F",
"}+	c #E7C7BB",
"|+	c #E3C8C1",
"1+	c #E4CBC6",
"2+	c #D5B4A3",
"3+	c #CCB2A7",
"4+	c #CCAFA0",
"5+	c #CAB6B1",
"6+	c #CFB4A8",
"7+	c #DEC7C4",
"8+	c #DDC7C3",
"9+	c #DDC6C3",
"0+	c #DDC7C4",
"a+	c #E0C9C5",
"b+	c #E5CDCA",
"c+	c #E8D0CE",
"d+	c #E2CCCC",
"e+	c #D6C6CA",
"f+	c #C7B6B8",
"g+	c #BEAEAF",
"h+	c #BAAAAB",
"i+	c #BBACAF",
"j+	c #BDAFB4",
"k+	c #C0B5BC",
"l+	c #CAC0CC",
"m+	c #D5CFDF",
"n+	c #DDD7E9",
"o+	c #E1D8E7",
"p+	c #E6DAE9",
"q+	c #EBDEEB",
"r+	c #EBD9E3",
"s+	c #C0ADB2",
"t+	c #D6B8A9",
"u+	c #FDC3AF",
"v+	c #D9B09F",
"w+	c #D0AF9A",
"x+	c #CBA997",
"y+	c #C9A998",
"z+	c #B6A199",
"A+	c #A19697",
"B+	c #AEAAB1",
"C+	c #AAA6AD",
"D+	c #989194",
"E+	c #91827F",
"F+	c #D2C0C2",
"G+	c #DBCED4",
"H+	c #D7CED7",
"I+	c #A39187",
"J+	c #C0B8BF",
"K+	c #ACA6AD",
"L+	c #C0BCC6",
"M+	c #B9AFB2",
"N+	c #DBD3DE",
"O+	c #DBD6E3",
"P+	c #D8D2DD",
"Q+	c #CDC6D0",
"R+	c #C7BFC8",
"S+	c #C6BEC8",
"T+	c #CBC4CF",
"U+	c #CCC6D2",
"V+	c #C5BFCA",
"W+	c #C5BECA",
"X+	c #B6AAAF",
"Y+	c #B5A5A5",
"Z+	c #B3A4A5",
"`+	c #AEA2AA",
" @	c #B1A7AF",
".@	c #B6ADB7",
"+@	c #BEB8C5",
"@@	c #C6C2D2",
"#@	c #CBC8DB",
"$@	c #CCC8DB",
"%@	c #D6D4E8",
"&@	c #DBDAE9",
"*@	c #E5E2EA",
"=@	c #C2B9C4",
"-@	c #8D8893",
";@	c #FD6439",
">@	c #BD9494",
",@	c #9F8D86",
"'@	c #9E8B83",
")@	c #A39797",
"!@	c #A89FA5",
"~@	c #B7B8C8",
"{@	c #AEB3C5",
"]@	c #93939E",
"^@	c #807673",
"/@	c #B3ABB3",
"(@	c #C1C0CE",
"_@	c #BFC0D0",
":@	c #938988",
"<@	c #959096",
"[@	c #A0A0AA",
"}@	c #939198",
"|@	c #AAAAB6",
"1@	c #C5C7D7",
"2@	c #BFBFCE",
"3@	c #BEBECE",
"4@	c #BBBBCA",
"5@	c #B6AEB5",
"6@	c #B7B6C3",
"7@	c #B9B8C6",
"8@	c #B9B7C5",
"9@	c #B4B2BF",
"0@	c #AEADBB",
"a@	c #A59798",
"b@	c #B5A19D",
"c@	c #9D98A0",
"d@	c #A399A1",
"e@	c #AFA3A7",
"f@	c #AAA3AE",
"g@	c #ABA9B6",
"h@	c #AEADBC",
"i@	c #AFAFBF",
"j@	c #B0B0C0",
"k@	c #AEAEC0",
"l@	c #8E8D9D",
"m@	c #7E7D8B",
"n@	c #878795",
"o@	c #86848D",
"p@	c #FCA187",
"q@	c #B98D84",
"r@	c #9C8A85",
"s@	c #9B877E",
"t@	c #9A8883",
"u@	c #A0908E",
"v@	c #BDA89F",
"w@	c #CAAEA0",
"x@	c #C2A899",
"y@	c #B49C8F",
"z@	c #A59188",
"A@	c #A09A9F",
"B@	c #A3A3B0",
"C@	c #B3ADB5",
"D@	c #9F9697",
"E@	c #938F95",
"F@	c #AEAAB2",
"G@	c #9A98A0",
"H@	c #B0ACB4",
"I@	c #A7A6B0",
"J@	c #9D9DA9",
"K@	c #9FA1AF",
"L@	c #A3A2AD",
"M@	c #A79D9F",
"N@	c #A0A0AD",
"O@	c #9D9DAA",
"P@	c #9797A3",
"Q@	c #92919E",
"R@	c #9696A2",
"S@	c #918A91",
"T@	c #B6A69B",
"U@	c #998B7B",
"V@	c #918C95",
"W@	c #95929E",
"X@	c #9B98A3",
"Y@	c #9E9AA5",
"Z@	c #B4ABB1",
"`@	c #B4AEB9",
" #	c #A8A5B2",
".#	c #9694A2",
"+#	c #9E9AA6",
"@#	c #9B99A5",
"##	c #888590",
"$#	c #A09CA3",
"%#	c #EFE8E3",
"&#	c #C0B5AF",
"*#	c #888081",
"=#	c #907E75",
"-#	c #9F897E",
";#	c #A0908C",
">#	c #817776",
",#	c #625755",
"'#	c #54423A",
")#	c #5D5351",
"!#	c #777479",
"~#	c #85858D",
"{#	c #9A9091",
"]#	c #9C9090",
"^#	c #848187",
"/#	c #81828C",
"(#	c #80818A",
"_#	c #858996",
":#	c #8C8E9C",
"<#	c #95939C",
"[#	c #848591",
"}#	c #888791",
"|#	c #8B8D99",
"1#	c #91919C",
"2#	c #93929B",
"3#	c #97949C",
"4#	c #968F97",
"5#	c #AAA3AB",
"6#	c #9C937B",
"7#	c #809397",
"8#	c #86828C",
"9#	c #8F8A94",
"0#	c #8E8B97",
"a#	c #8D8B97",
"b#	c #C4AEAA",
"c#	c #AC9C9F",
"d#	c #AC9B9D",
"e#	c #90909F",
"f#	c #A5A1AF",
"g#	c #ADA7B4",
"h#	c #8A8795",
"i#	c #AEABAE",
"j#	c #EAE2DC",
"k#	c #AB978E",
"l#	c #C3BDBB",
"m#	c #EAE3DE",
"n#	c #A19085",
"o#	c #6F645B",
"p#	c #0B0808",
"q#	c #2A1E17",
"r#	c #221915",
"s#	c #0A0A0E",
"t#	c #5E636F",
"u#	c #6C707A",
"v#	c #787B85",
"w#	c #7C7B80",
"x#	c #7D808A",
"y#	c #7D7F89",
"z#	c #7D818C",
"A#	c #848794",
"B#	c #85868F",
"C#	c #83828A",
"D#	c #A6A7B5",
"E#	c #9C9AA4",
"F#	c #B2AEBC",
"G#	c #ACA8B4",
"H#	c #A5A0AB",
"I#	c #9D99A4",
"J#	c #8A868F",
"K#	c #A2968E",
"L#	c #8F8675",
"M#	c #7C7981",
"N#	c #8E868D",
"O#	c #8F8790",
"P#	c #898690",
"Q#	c #87838F",
"R#	c #7A7B86",
"S#	c #757B8A",
"T#	c #787A84",
"U#	c #787B88",
"V#	c #777A88",
"W#	c #717584",
"X#	c #8E8E99",
"Y#	c #C9C7C9",
"Z#	c #BAA79B",
"`#	c #C6BBB3",
" $	c #484443",
".$	c #1F1611",
"+$	c #120D0C",
"@$	c #0E0A0A",
"#$	c #08090C",
"$$	c #414750",
"%$	c #6F7885",
"&$	c #7A8697",
"*$	c #777B84",
"=$	c #828690",
"-$	c #8A8F9B",
";$	c #777C87",
">$	c #7B7F8B",
",$	c #767C89",
"'$	c #7D818E",
")$	c #717683",
"!$	c #737680",
"~$	c #72747F",
"{$	c #727179",
"]$	c #6B6B75",
"^$	c #66666E",
"/$	c #63646C",
"($	c #766E61",
"_$	c #6D7E87",
":$	c #7A7274",
"<$	c #908485",
"[$	c #93888C",
"}$	c #8D868F",
"|$	c #82818C",
"1$	c #797C8A",
"2$	c #757A88",
"3$	c #787C89",
"4$	c #8B8D9B",
"5$	c #AFAEBD",
"6$	c #9D9AA9",
"7$	c #8D8C97",
"8$	c #E5E1E1",
"9$	c #ECE1D8",
"0$	c #B7B2AF",
"a$	c #5F4D3C",
"b$	c #15100C",
"c$	c #171210",
"d$	c #41342E",
"e$	c #878384",
"f$	c #9A9295",
"g$	c #908C91",
"h$	c #928A8D",
"i$	c #BEB2B3",
"j$	c #D4C8CC",
"k$	c #9F9392",
"l$	c #8A8689",
"m$	c #888D9B",
"n$	c #868D9D",
"o$	c #888B98",
"p$	c #99959C",
"q$	c #968D93",
"r$	c #75767F",
"s$	c #717782",
"t$	c #6A7280",
"u$	c #6A7584",
"v$	c #758192",
"w$	c #686D7A",
"x$	c #6C676C",
"y$	c #887D7E",
"z$	c #958787",
"A$	c #95888A",
"B$	c #8D848B",
"C$	c #7E7D86",
"D$	c #777883",
"E$	c #747581",
"F$	c #97959E",
"G$	c #BAADB5",
"H$	c #A99A9D",
"I$	c #9F908F",
"J$	c #D7CECB",
"K$	c #E6DFD9",
"L$	c #C3B6A9",
"M$	c #A89282",
"N$	c #897E78",
"O$	c #757276",
"P$	c #B59D94",
"Q$	c #B79E92",
"R$	c #CCB2A4",
"S$	c #F0CDBD",
"T$	c #E4C7BD",
"U$	c #CEB2A9",
"V$	c #AF9E9A",
"W$	c #A4999C",
"X$	c #998F93",
"Y$	c #9C9397",
"Z$	c #AAA0A4",
"`$	c #8591A0",
" %	c #9C9092",
".%	c #9A959C",
"+%	c #9C9292",
"@%	c #877D79",
"#%	c #777B8B",
"$%	c #7C7E8F",
"%%	c #7B7E8A",
"&%	c #747179",
"*%	c #847A7B",
"=%	c #948484",
"-%	c #908283",
";%	c #82797F",
">%	c #7B777F",
",%	c #888288",
"'%	c #9A9096",
")%	c #A09395",
"!%	c #B49D95",
"~%	c #E4D8D4",
"{%	c #D2CCCF",
"]%	c #A1928E",
"^%	c #BAA095",
"/%	c #D7B7A8",
"(%	c #C8B1A9",
"_%	c #D1BCB9",
":%	c #C8B7B6",
"<%	c #A89796",
"[%	c #B7A39F",
"}%	c #B7A39C",
"|%	c #BBA59D",
"1%	c #BCA7A3",
"2%	c #ADA1A4",
"3%	c #6596BE",
"4%	c #838287",
"5%	c #90827E",
"6%	c #95754C",
"7%	c #9C733F",
"8%	c #5D432C",
"9%	c #80736D",
"0%	c #8D8D99",
"a%	c #878996",
"b%	c #737785",
"c%	c #787479",
"d%	c #827A7E",
"e%	c #8F8588",
"f%	c #9D8F90",
"g%	c #A39494",
"h%	c #A69695",
"i%	c #B1A2A2",
"j%	c #B2A6A7",
"k%	c #A59797",
"l%	c #EAE6E4",
"m%	c #D5CCC8",
"n%	c #C1A495",
"o%	c #D4B9B0",
"p%	c #D7BBB3",
"q%	c #D3BAB4",
"r%	c #DDCBCA",
"s%	c #DACBC9",
"t%	c #C3B3B1",
"u%	c #CAB2AC",
"v%	c #D2BAB7",
"w%	c #D8C3C4",
"x%	c #B5A5A7",
"y%	c #988E91",
"z%	c #A09393",
"A%	c #AEA195",
"B%	c #9D774E",
"C%	c #8B613B",
"D%	c #DFD4C5",
"E%	c #E2DEDE",
"F%	c #B9B4B7",
"G%	c #B6B1B4",
"H%	c #BEB8BA",
"I%	c #CCC6C8",
"J%	c #D8D4D4",
"K%	c #E3E0E1",
"L%	c #D2BDB2",
"M%	c #AF9892",
"N%	c #BAAAA9",
"O%	c #BCAFAD",
"P%	c #C6B4B1",
"Q%	c #C5B3B3",
"R%	c #B7A8A8",
"S%	c #B3A6A5",
"T%	c #B6A6A6",
"U%	c #BBA8A7",
"V%	c #AFA09E",
"W%	c #A7938E",
"X%	c #B5A49E",
"Y%	c #E3DBD2",
"Z%	c #C6B399",
"`%	c #C9C2BE",
" &	c #A5A0A3",
".&	c #A6A4AD",
"+&	c #B2B2BC",
"@&	c #A9A7B1",
"#&	c #ACA8B1",
"$&	c #9F9BA2",
"%&	c #A09BA2",
"&&	c #A29BA0",
"*&	c #A79C9F",
"=&	c #D4CECC",
"                                                                                                ",
"                                                                                                ",
"                                                                                                ",
"                                                                                                ",
"                                                                                                ",
"                                                                                                ",
"                                                                                                ",
"                                                                                                ",
"                                                                                                ",
"                                                                                                ",
"                                                                                                ",
"                                                                              . + @ #           ",
"                                                                          $ % & * = - ;         ",
"                                                                      > , ' ) ! ~ { ] ^         ",
"                                                                    / ( _ : < [ } | 1 2         ",
"                                                                3 4 5 6 7 8 9 0 a b c d e       ",
"                                                              f g h i j k l m n o p q r s       ",
"                                                          t u v w x ' y z A B C D E F G H       ",
"                                          I J K L M N O P ( Q R S T U V W X Y Z `  ...+.@.      ",
"                          #.$.%.&.*.=.-.;.>.>.,.'.;.).!.~.{.y ].^./.(._.:.<.[.}.|.1.2.3.4.      ",
"                5.6.7.8.9.0.a.b.c.d.e.5.f.g.h.i.j.k.l.m.n.o.p.q.r.s.t.u.v.w.x.y.z.A.B.C.D.E.    ",
"            F.G.H.I.J.K.L.M.N.O.P.Q.R.).S.T.U.V.W.X.Y.Z.`. +.+++@+#+$+%+&+*+=+-+;+>+,+'+)+!+    ",
"      ~+{+]+^+/+(+_+:+<+[+}+|+1+2+3+4+5+6+7+8+9+0+7+a+b+c+d+e+f+g+h+i+j+k+l+m+n+o+p+q+r+s+t+    ",
"    u+v+w+x+y+z+A+B+C+D+E+F+G+H+I+J+K+L+M+N+O+P+Q+R+S+T+U+V+W+X+Y+Z+`+ @.@+@@@#@$@%@&@*@=@-@    ",
"    ;@>@,@'@,@)@!@~@{@]@^@/@(@_@:@<@[@}@|@1@2@3@4@5@6@7@8@9@0@a@b@c@d@e@f@g@h@i@j@k@l@m@n@o@    ",
"    p@q@r@s@t@u@v@w@x@y@z@A@B@C@D@E@F@G@H@I@J@K@L@M@N@O@P@Q@R@S@T@U@V@W@X@Y@Z@`@ #.#+#@###$#    ",
"      %#&#*#=#-#;#>#,#'#)#!#~#{#]#^#/#(#_#:#R@<#[#}#|#1#2#3#4#5#6#7#8#9#0#a#b#c#d#e#f#g#h#i#    ",
"        j#k#l#m#n#o#p#q#r#s#t#u#v#w#x#y#z#A#B#C#D#E#F#G#H#I#J#K#L#M#N#O#P#Q#R#S#T#U#V#W#X#Y#    ",
"          Z#    `# $.$+$@$#$$$%$&$*$=$-$;$>$,$'$)$!$~${$]$^$/$($_$:$<$[$}$|$1$2$3$4$5$6$7$8$    ",
"          9$      0$a$b$c$d$e$f$g$h$i$j$k$l$m$n$o$p$q$r$s$t$u$v$w$x$y$z$A$B$C$D$E$F$G$H$I$J$    ",
"                    K$L$M$N$O$P$Q$R$S$T$U$V$W$X$Y$Z$`$ %.%+%@%#%$%%%&%*%=%-%;%>%,%'%d@)%!%~%    ",
"                          {%]%^%/%(%_%:%<%[%}%|%1%2%3%4%5%6%7%8%9%0%a%b%c%d%e%f%g%h%i%j%k%l%    ",
"                            m%n%o%p%q%r%s%t%u%v%w%x%y%z%A%B%C%D%  E%F%G%H%I%J%K%                ",
"                              L%M%N%O%P%Q%R%S%T%U%V%W%X%  Y%Z%                                  ",
"                                `% &.&+&@&#&$&%&&&*&=&                                          ",
"                                                                                                ",
"                                                                                                ",
"                                                                                                ",
"                                                                                                ",
"                                                                                                ",
"                                                                                                ",
"                                                                                                ",
"                                                                                                ",
"                                                                                                ",
"                                                                                                ",
"                                                                                                ",
"                                                                                                ",
"                                                                                                "};
