/* XPM */
static const char * drivetrain16_xpm[] = {
"16 16 82 1",
" 	c None",
".	c #F0E9E5",
"+	c #DEC7B7",
"@	c #ECBB68",
"#	c #F0DED1",
"$	c #E0D1CB",
"%	c #CAAB9E",
"&	c #E1BCAB",
"*	c #F2CBB9",
"=	c #DAC2BA",
"-	c #E1DBDA",
";	c #E7DAD4",
">	c #E5D2C8",
",	c #DEC9BE",
"'	c #D4BBAF",
")	c #D3B7AA",
"!	c #D5B5A7",
"~	c #D0B3A7",
"{	c #D2B5AC",
"]	c #E4C8C2",
"^	c #E9CDC9",
"/	c #E6CAC5",
"(	c #E7D2C6",
"_	c #C9B0A4",
":	c #B1A4A3",
"<	c #CEB6AE",
"[	c #D2B9AF",
"}	c #C7B2AB",
"|	c #DCCACA",
"1	c #D8C5C5",
"2	c #DCC9CA",
"3	c #BEB2B3",
"4	c #BCABAE",
"5	c #CABFCA",
"6	c #DDD4E3",
"7	c #DFCED5",
"8	c #E8E1E0",
"9	c #FEE3DB",
"0	c #AE9994",
"a	c #A1918C",
"b	c #9A8E8D",
"c	c #948D92",
"d	c #9D969B",
"e	c #9897A1",
"f	c #A6A6B4",
"g	c #A19FA9",
"h	c #A09FAB",
"i	c #A39A9B",
"j	c #959196",
"k	c #A59FA8",
"l	c #A7A3AF",
"m	c #93909E",
"n	c #DDDCDE",
"o	c #E9E2DD",
"p	c #E2DDDA",
"q	c #403833",
"r	c #312F31",
"s	c #7F8089",
"t	c #939199",
"u	c #828490",
"v	c #8E8D98",
"w	c #80808A",
"x	c #797B7E",
"y	c #877E82",
"z	c #85818B",
"A	c #7C7E8B",
"B	c #97929C",
"C	c #C4BCBA",
"D	c #C6ACA0",
"E	c #D3BCB7",
"F	c #B7A5A2",
"G	c #A39FA6",
"H	c #998A80",
"I	c #97887C",
"J	c #96949B",
"K	c #9E9598",
"L	c #B3ACAE",
"M	c #C6BCBD",
"N	c #D9D1CF",
"O	c #CDC8CA",
"P	c #C7C1C3",
"Q	c #CBC2C2",
"                ",
"                ",
"                ",
"                ",
"           .+@# ",
"          $%&*= ",
"   -;>,')!~{]^/ ",
" (_:<[}|12345678",
"90abcdefghijklmn",
" opqrstuvwxyzAB ",
"    CDEFGHIJKLM ",
"     NOPQ       ",
"                ",
"                ",
"                ",
"                "};
