/* XPM */
static char * engine32_xpm[] = {
"32 32 648 2",
"  	c None",
". 	c #E8E8E8",
"+ 	c #DDDEDE",
"@ 	c #D8D9DA",
"# 	c #D3D5D6",
"$ 	c #CFD0D1",
"% 	c #D2D3D4",
"& 	c #D5D6D7",
"* 	c #D9DBDB",
"= 	c #E3E5E5",
"- 	c #919393",
"; 	c #616569",
"> 	c #696E73",
", 	c #73777C",
"' 	c #6C7276",
") 	c #686D73",
"! 	c #64696E",
"~ 	c #5C6166",
"{ 	c #5D6366",
"] 	c #8F9292",
"^ 	c #EBEBEB",
"/ 	c #D6D5D4",
"( 	c #6E6A62",
"_ 	c #726D63",
": 	c #908D82",
"< 	c #AAA596",
"[ 	c #ABA798",
"} 	c #A4A092",
"| 	c #9F9C90",
"1 	c #9E9C90",
"2 	c #9A988E",
"3 	c #83837D",
"4 	c #85857F",
"5 	c #807A6F",
"6 	c #6C675C",
"7 	c #C6C5C4",
"8 	c #EBE9E6",
"9 	c #B7AE9C",
"0 	c #AEA38A",
"a 	c #AEA38D",
"b 	c #B7AC97",
"c 	c #BDB29C",
"d 	c #B2A893",
"e 	c #AEA592",
"f 	c #ADA390",
"g 	c #B7AB98",
"h 	c #B2A794",
"i 	c #B1AA98",
"j 	c #A39985",
"k 	c #8E8675",
"l 	c #E3E2E1",
"m 	c #E9E8E7",
"n 	c #ACAAA1",
"o 	c #8E8A7C",
"p 	c #928F82",
"q 	c #A59F90",
"r 	c #ACA99C",
"s 	c #A29C8F",
"t 	c #999489",
"u 	c #959086",
"v 	c #9A9589",
"w 	c #888375",
"x 	c #9C998D",
"y 	c #A3A092",
"z 	c #8E8C81",
"A 	c #E6E5E5",
"B 	c #D7D8D7",
"C 	c #353532",
"D 	c #363736",
"E 	c #3D3B36",
"F 	c #4C4A48",
"G 	c #614C4B",
"H 	c #544446",
"I 	c #4A4548",
"J 	c #3F4144",
"K 	c #2C2F31",
"L 	c #434647",
"M 	c #71726F",
"N 	c #B9B9B6",
"O 	c #313230",
"P 	c #5A5A5B",
"Q 	c #5D3739",
"R 	c #A33B40",
"S 	c #A32F34",
"T 	c #633137",
"U 	c #404048",
"V 	c #373C41",
"W 	c #424851",
"X 	c #4B3C40",
"Y 	c #734951",
"Z 	c #7E4E55",
"` 	c #A67B7F",
" .	c #EED5D6",
"..	c #F7F6EA",
"+.	c #EEECD1",
"@.	c #CECECE",
"#.	c #33302D",
"$.	c #825053",
"%.	c #802D31",
"&.	c #843035",
"*.	c #6F363A",
"=.	c #664246",
"-.	c #76373D",
";.	c #7B3539",
">.	c #562F34",
",.	c #3E1C1D",
"'.	c #4A2427",
").	c #612123",
"!.	c #974C4E",
"~.	c #CAA5A8",
"{.	c #D5A5A8",
"].	c #F5F4E4",
"^.	c #E0DCB1",
"/.	c #C9C8C8",
"(.	c #B9BCBF",
"_.	c #A3A4A5",
":.	c #ADAEAF",
"<.	c #AFACAC",
"[.	c #F2D3D4",
"}.	c #A44B50",
"|.	c #883A42",
"1.	c #765E6C",
"2.	c #7A7B7E",
"3.	c #706B6C",
"4.	c #764648",
"5.	c #A52A2C",
"6.	c #B12728",
"7.	c #A7282C",
"8.	c #A5282C",
"9.	c #75161A",
"0.	c #461616",
"a.	c #623637",
"b.	c #8B4949",
"c.	c #B69E9B",
"d.	c #E8B6B7",
"e.	c #F0D7D8",
"f.	c #A4A293",
"g.	c #72726D",
"h.	c #9C9E9F",
"i.	c #868A8D",
"j.	c #868587",
"k.	c #A16669",
"l.	c #C95F63",
"m.	c #734B5D",
"n.	c #505879",
"o.	c #57709A",
"p.	c #8B9099",
"q.	c #757678",
"r.	c #874B4E",
"s.	c #AD272B",
"t.	c #B3292C",
"u.	c #A9292E",
"v.	c #9F292E",
"w.	c #801519",
"x.	c #5A1D1E",
"y.	c #5B4A4B",
"z.	c #87666A",
"A.	c #CA7A7C",
"B.	c #F3E1E2",
"C.	c #E0B9BA",
"D.	c #EBD2D4",
"E.	c #A4A4A4",
"F.	c #BBBCBA",
"G.	c #887A79",
"H.	c #B58D92",
"I.	c #CA8287",
"J.	c #A76467",
"K.	c #A79295",
"L.	c #527095",
"M.	c #415A84",
"N.	c #8B94A6",
"O.	c #797B81",
"P.	c #717274",
"Q.	c #8A5C5F",
"R.	c #A53C42",
"S.	c #BC4D52",
"T.	c #A9383F",
"U.	c #96333A",
"V.	c #841A1E",
"W.	c #6F1F22",
"X.	c #806161",
"Y.	c #796567",
"Z.	c #BA7E82",
"`.	c #CF6C70",
" +	c #F0DDDE",
".+	c #D4A9AA",
"++	c #F2E6E6",
"@+	c #CECECD",
"#+	c #B4A1A1",
"$+	c #B85E62",
"%+	c #B6828A",
"&+	c #B57177",
"*+	c #836F73",
"=+	c #7F8186",
"-+	c #4173A6",
";+	c #727B8C",
">+	c #B2B3B5",
",+	c #9C9EA3",
"'+	c #7E7F81",
")+	c #818185",
"!+	c #837880",
"~+	c #B1A0A8",
"{+	c #8A7279",
"]+	c #9E858E",
"^+	c #6B4B4E",
"/+	c #693D40",
"(+	c #6B5A5C",
"_+	c #6E595B",
":+	c #9D8689",
"<+	c #B3797C",
"[+	c #BC686C",
"}+	c #E7B7B8",
"|+	c #D2ABAD",
"1+	c #EDDCDD",
"2+	c #AB9198",
"3+	c #B76067",
"4+	c #B17E84",
"5+	c #9C959B",
"6+	c #87898E",
"7+	c #777176",
"8+	c #814F57",
"9+	c #A1A4AB",
"0+	c #A49094",
"a+	c #95979C",
"b+	c #858A8F",
"c+	c #AFB4BC",
"d+	c #9D9FA6",
"e+	c #999C9F",
"f+	c #62666A",
"g+	c #4D5051",
"h+	c #343639",
"i+	c #252428",
"j+	c #5D4142",
"k+	c #4E4A4C",
"l+	c #77787A",
"m+	c #8E9191",
"n+	c #998180",
"o+	c #AB585A",
"p+	c #C8777A",
"q+	c #E4BEBF",
"r+	c #CEBDBE",
"s+	c #BD7F84",
"t+	c #A97E85",
"u+	c #AB9399",
"v+	c #838186",
"w+	c #92959A",
"x+	c #858990",
"y+	c #79797C",
"z+	c #686365",
"A+	c #6E586D",
"B+	c #81838A",
"C+	c #AAAFB3",
"D+	c #AEB3B7",
"E+	c #6A6E71",
"F+	c #676B6B",
"G+	c #505355",
"H+	c #484A4A",
"I+	c #54575A",
"J+	c #414548",
"K+	c #443C3D",
"L+	c #605E5F",
"M+	c #959994",
"N+	c #848D7B",
"O+	c #777667",
"P+	c #998C7D",
"Q+	c #AE7273",
"R+	c #C75357",
"S+	c #F5DEDE",
"T+	c #E8CFD0",
"U+	c #A7595D",
"V+	c #AB9DA3",
"W+	c #9B9D9F",
"X+	c #DADBDC",
"Y+	c #9B9D9E",
"Z+	c #84888C",
"`+	c #737A7E",
" @	c #5F6265",
".@	c #5E6067",
"+@	c #5A5C5E",
"@@	c #454A5B",
"#@	c #626D7A",
"$@	c #95999D",
"%@	c #989DA0",
"&@	c #7F8488",
"*@	c #787B7C",
"=@	c #686B6E",
"-@	c #7C8185",
";@	c #6E7377",
">@	c #5B6066",
",@	c #7C8082",
"'@	c #A1A39C",
")@	c #8E9E80",
"!@	c #8F9C79",
"~@	c #979D8B",
"{@	c #999B86",
"]@	c #918073",
"^@	c #A25152",
"/@	c #BF7476",
"(@	c #D69C9F",
"_@	c #9F3E41",
":@	c #925155",
"<@	c #A19A9D",
"[@	c #434748",
"}@	c #B8BBBE",
"|@	c #83888B",
"1@	c #4D5255",
"2@	c #9EA4AA",
"3@	c #6D7275",
"4@	c #6E7073",
"5@	c #797B7E",
"6@	c #69727D",
"7@	c #8091A0",
"8@	c #B6B9BC",
"9@	c #C3C6C8",
"0@	c #C8CED2",
"a@	c #C3C9D0",
"b@	c #A9B0B9",
"c@	c #999DA5",
"d@	c #8A8D91",
"e@	c #7F8385",
"f@	c #9D9E9D",
"g@	c #ACAA99",
"h@	c #99A480",
"i@	c #8BA38A",
"j@	c #82827B",
"k@	c #86887F",
"l@	c #92907D",
"m@	c #CCBDB9",
"n@	c #934244",
"o@	c #E5C2C2",
"p@	c #CEA5A6",
"q@	c #B86B6F",
"r@	c #C8C0C2",
"s@	c #A6A8AD",
"t@	c #9EA2A8",
"u@	c #BAC3CE",
"v@	c #9CA2AA",
"w@	c #A3A7AA",
"x@	c #63696C",
"y@	c #6D7378",
"z@	c #565858",
"A@	c #747576",
"B@	c #898D91",
"C@	c #A3A6AA",
"D@	c #E1E6E8",
"E@	c #BCBFC1",
"F@	c #DFE5E7",
"G@	c #8E9497",
"H@	c #6D7177",
"I@	c #898F98",
"J@	c #9CA0A4",
"K@	c #8B8C8D",
"L@	c #909290",
"M@	c #85846E",
"N@	c #696C50",
"O@	c #787C71",
"P@	c #A3A29C",
"Q@	c #A9AAA8",
"R@	c #7D7262",
"S@	c #A04F4A",
"T@	c #AC6A6D",
"U@	c #BB787A",
"V@	c #E6E6E7",
"W@	c #5E605F",
"X@	c #696A6C",
"Y@	c #888F97",
"Z@	c #858C93",
"`@	c #656867",
" #	c #2B2E2E",
".#	c #62676A",
"+#	c #696C6E",
"@#	c #7B7D7F",
"##	c #83878A",
"$#	c #A7ADB4",
"%#	c #A1A6AB",
"&#	c #737678",
"*#	c #DADEE0",
"=#	c #C6CCD1",
"-#	c #9BA0A7",
";#	c #868B8E",
">#	c #898F8F",
",#	c #787C7D",
"'#	c #8F908E",
")#	c #85847E",
"!#	c #696656",
"~#	c #595A48",
"{#	c #6D716A",
"]#	c #6F756B",
"^#	c #796A60",
"/#	c #92373A",
"(#	c #B86D70",
"_#	c #AA6F71",
":#	c #989999",
"<#	c #585A5C",
"[#	c #787B7E",
"}#	c #76797B",
"|#	c #696C6D",
"1#	c #626668",
"2#	c #85898D",
"3#	c #7D8082",
"4#	c #92979C",
"5#	c #7D8386",
"6#	c #AEB3B8",
"7#	c #ABB3BC",
"8#	c #989DA3",
"9#	c #90959A",
"0#	c #888C8E",
"a#	c #5D5F5E",
"b#	c #76797A",
"c#	c #949595",
"d#	c #838685",
"e#	c #5D605A",
"f#	c #5B5C53",
"g#	c #464A46",
"h#	c #5D5D59",
"i#	c #131413",
"j#	c #454443",
"k#	c #C69698",
"l#	c #B49495",
"m#	c #A7A7A7",
"n#	c #646565",
"o#	c #4C4F50",
"p#	c #686A69",
"q#	c #5A5E60",
"r#	c #565A5C",
"s#	c #2B2C2B",
"t#	c #5C5E60",
"u#	c #8D9093",
"v#	c #878A8E",
"w#	c #7D8285",
"x#	c #91959B",
"y#	c #80858C",
"z#	c #727477",
"A#	c #84868A",
"B#	c #6E7172",
"C#	c #464B48",
"D#	c #7F8382",
"E#	c #8C918F",
"F#	c #757E7A",
"G#	c #626463",
"H#	c #454747",
"I#	c #4D4F4E",
"J#	c #403F3E",
"K#	c #141514",
"L#	c #282A29",
"M#	c #A2A19E",
"N#	c #646666",
"O#	c #303232",
"P#	c #323637",
"Q#	c #43474A",
"R#	c #1B1C1A",
"S#	c #151715",
"T#	c #646665",
"U#	c #727474",
"V#	c #5C5D5C",
"W#	c #747676",
"X#	c #888B8E",
"Y#	c #8B8E90",
"Z#	c #9399A0",
"`#	c #757777",
" $	c #646968",
".$	c #8F9394",
"+$	c #78827F",
"@$	c #425D4F",
"#$	c #343635",
"$$	c #353939",
"%$	c #181918",
"&$	c #090B09",
"*$	c #131513",
"=$	c #191B19",
"-$	c #D0CECB",
";$	c #7F7C75",
">$	c #BDBFC0",
",$	c #595D60",
"'$	c #3A3F40",
")$	c #5C6266",
"!$	c #474B4C",
"~$	c #2F3231",
"{$	c #949799",
"]$	c #858788",
"^$	c #696A68",
"/$	c #616361",
"($	c #919495",
"_$	c #6F7376",
":$	c #6A6B69",
"<$	c #686D6D",
"[$	c #9CA2A5",
"}$	c #676E6E",
"|$	c #485653",
"1$	c #414444",
"2$	c #6B6C6A",
"3$	c #686968",
"4$	c #444545",
"5$	c #27292A",
"6$	c #1D1F1D",
"7$	c #E6E6E4",
"8$	c #EDEDEC",
"9$	c #ACACAD",
"0$	c #76787C",
"a$	c #6A6D6F",
"b$	c #484949",
"c$	c #5C5F60",
"d$	c #A3A5A9",
"e$	c #8B8D8D",
"f$	c #464746",
"g$	c #595A59",
"h$	c #818281",
"i$	c #636768",
"j$	c #4D4F4D",
"k$	c #333533",
"l$	c #7A7B79",
"m$	c #7F7A75",
"n$	c #7A7D7D",
"o$	c #4E5150",
"p$	c #4A4E4D",
"q$	c #727475",
"r$	c #585955",
"s$	c #767672",
"t$	c #48494A",
"u$	c #212221",
"v$	c #A3A5A6",
"w$	c #B8B7B7",
"x$	c #6E6E6C",
"y$	c #585B5B",
"z$	c #3B3E3F",
"A$	c #6F7476",
"B$	c #676968",
"C$	c #565755",
"D$	c #535656",
"E$	c #999D9F",
"F$	c #A1A6AD",
"G$	c #9EA3AC",
"H$	c #313331",
"I$	c #828586",
"J$	c #B1B2B1",
"K$	c #909294",
"L$	c #484A48",
"M$	c #6B6D6D",
"N$	c #797A77",
"O$	c #696A69",
"P$	c #7F7F7F",
"Q$	c #B8B9B9",
"R$	c #ACACAC",
"S$	c #929291",
"T$	c #868380",
"U$	c #B8B9BA",
"V$	c #A5A8AB",
"W$	c #87898A",
"X$	c #666867",
"Y$	c #5A5C5D",
"Z$	c #BCC1C6",
"`$	c #ACAEB3",
" %	c #909296",
".%	c #989B9E",
"+%	c #9B9EA2",
"@%	c #7A7C7D",
"#%	c #585855",
"$%	c #6E6D6D",
"%%	c #4B4C4B",
"&%	c #484844",
"*%	c #6B6D6B",
"=%	c #737777",
"-%	c #6A6A68",
";%	c #525350",
">%	c #9B9D9D",
",%	c #CFD0CF",
"'%	c #C5C5C4",
")%	c #CECDCA",
"!%	c #EAEAE9",
"~%	c #6E6E6E",
"{%	c #939494",
"]%	c #747675",
"^%	c #717476",
"/%	c #A1A4A9",
"(%	c #8C8E8F",
"_%	c #797D7D",
":%	c #7C7F80",
"<%	c #969897",
"[%	c #9A9C9B",
"}%	c #6D6D6A",
"|%	c #595854",
"1%	c #535655",
"2%	c #777A7B",
"3%	c #C0C0C0",
"4%	c #C8CACB",
"5%	c #ACB0B1",
"6%	c #A1A6A8",
"7%	c #BBBDBF",
"8%	c #B9BBBB",
"9%	c #979999",
"0%	c #878989",
"a%	c #7E8080",
"b%	c #A8AAAB",
"c%	c #5C6161",
"d%	c #7C8182",
"e%	c #8A8C8B",
"f%	c #929493",
"g%	c #828380",
"h%	c #515351",
"i%	c #A8A8A7",
"j%	c #A7ABAD",
"k%	c #BDC1C6",
"l%	c #CDD1D4",
"m%	c #E5E8EE",
"n%	c #D1D4DB",
"o%	c #DDDDDE",
"p%	c #9B9C9D",
"q%	c #8E8F8E",
"r%	c #8B8D8C",
"s%	c #9D9FA1",
"t%	c #B3BAC0",
"u%	c #D7DDE2",
"v%	c #B5BBC1",
"w%	c #969A9B",
"x%	c #848686",
"y%	c #ABACAC",
"z%	c #BCBCBC",
"A%	c #76797D",
"B%	c #B5B8C0",
"C%	c #EAECEF",
"D%	c #CBCBCB",
"E%	c #969694",
"F%	c #949594",
"G%	c #94999D",
"H%	c #ADB4BB",
"I%	c #D7DDE4",
"J%	c #E9EDF2",
"K%	c #DAE0E6",
"L%	c #BCC3CA",
"M%	c #909192",
"N%	c #919292",
"O%	c #898B8A",
"P%	c #B6B7B6",
"Q%	c #E6E6E6",
"R%	c #9BA0A6",
"S%	c #BFC6CF",
"T%	c #E0E5EB",
"U%	c #CBCED4",
"V%	c #CDCECE",
"W%	c #E1E1E1",
"X%	c #D6D7D7",
"Y%	c #C3C6CB",
"Z%	c #D0D3DB",
"`%	c #DCDEE3",
" &	c #DCDDE1",
".&	c #E6E6E8",
"+&	c #EBEBED",
"@&	c #EBEBEE",
"                      . + @ # $ % & * =                         ",
"                    - ; > , , ' ) ! ~ { ] ^                     ",
"                / ( _ : < [ } | 1 2 3 4 5 6 7                   ",
"                8 9 0 a b c d e f g h i j k l                   ",
"                m n o p q r s t u v w x y z A                   ",
"                  B C D E F G H I J K L M N                     ",
"                    O P Q R S T U V W X Y Z `  .                ",
"    ..+.  @.        #.$.%.&.*.=.-.;.>.,.'.).!.~.{.              ",
"    ].^./.(._.:.<.[.}.|.1.2.3.4.5.6.7.8.9.0.a.b.c.d.e.          ",
"      f.g.h.i.j.k.l.m.n.o.p.q.r.s.t.u.v.w.x.y.z.A.B.C.D.        ",
"      E.F.G.H.I.J.K.L.M.N.O.P.Q.R.S.T.U.V.W.X.Y.Z.`. +.+++      ",
"      @+#+$+%+&+*+=+-+;+>+,+'+)+!+~+{+]+^+/+(+_+:+<+[+}+|+      ",
"      1+2+3+4+5+6+7+8+9+0+a+b+c+d+e+f+g+h+i+j+k+l+m+n+o+p+q+    ",
"    r+s+t+u+v+w+x+y+z+f+A+B+C+D+E+F+G+H+I+J+K+L+M+N+O+P+Q+R+S+  ",
"  T+U+V+W+X+Y+Z+`+ @.@+@@@#@$@%@&@*@=@-@;@>@,@'@)@!@~@{@]@^@/@  ",
"(@_@:@<@[@}@|@1@2@3@4@5@6@7@8@9@0@a@b@c@d@e@f@g@h@i@j@k@l@m@n@o@",
"p@q@r@s@t@u@v@w@x@y@z@A@B@C@D@E@F@G@H@I@J@K@L@M@N@O@P@Q@R@S@T@U@",
"    V@W@X@Y@Z@`@ #.#+#@###$#%#&#*#=#-#;#>#,#'#)#!#~#{#]#^#/#(#_#",
"      :#<#[#+#}#|#1#E+2#3#4#5#6#7#8#9#0#a#b#c#d#e#f#g#h#i#j#k#l#",
"        m#n#o#p#q#r#s#t#u#v#w#x#y#z#A#B#C#D#E#F#G#H#I#J#K#L#    ",
"          M#N#O#P#Q#R#S#T#U#V#W#X#Y#Z#`# $.$+$@$#$$$%$&$*$=$    ",
"        -$;$>$,$'$)$!$~${$]$^$/$($X#_$:$<$[$}$|$1$2$3$4$5$6$    ",
"        7$8$  9$0$a$b$c$d$e$f$g$h$i$j$k$l$m$n$o$p$q$r$s$t$u$v$  ",
"              w$x$y$z$A$B$C$D$E$F$G$.#H$I$J$K$L$M$&#:$N$O$P$Q$  ",
"            R$S$T$U$V$W$X$Y$Z$`$ %.%+%@%#%$%%%&%*%=%-%;%>%      ",
"            ,%'%)%!%~%{%]%^%/%(%_%:%<%[%}%|%1%2%3%4%5%6%7%      ",
"                    8%9%0%a%b%@%c%d%e%f%g%h%i%j%k%l%m%n%        ",
"                    o%p%q%r%s%{$t%u%v%w%x%y%  z%A%B%C%          ",
"                      D%E%F%G%H%I%J%K%L%M%N%O%P%                ",
"                        Q%@+R%S%T%    U%V%W%                    ",
"                            X%Y%Z%`% &.&                        ",
"                                +&@&                            "};
