/* XPM */
static const char * engine16_xpm[] = {
"16 16 172 2",
"  	c None",
". 	c #B5B6B7",
"+ 	c #A4A7AA",
"@ 	c #A0A4A6",
"# 	c #9DA0A3",
"$ 	c #9DA1A3",
"% 	c #DDDEDE",
"& 	c #B9B5AE",
"* 	c #98907F",
"= 	c #B2AB98",
"- 	c #A9A292",
"; 	c #A7A192",
"> 	c #9B968A",
", 	c #878071",
"' 	c #E9E9E8",
") 	c #D8D8D5",
"! 	c #63615A",
"~ 	c #76736A",
"{ 	c #7C706A",
"] 	c #6E6B67",
"^ 	c #65645E",
"/ 	c #97968E",
"( 	c #504343",
"_ 	c #813438",
": 	c #77363A",
"< 	c #5A3A40",
"[ 	c #483439",
"} 	c #67373C",
"| 	c #BD9093",
"1 	c #F3E3E4",
"2 	c #DEDCC8",
"3 	c #A4A5A5",
"4 	c #97989A",
"5 	c #C29193",
"6 	c #7C4A5A",
"7 	c #747687",
"8 	c #785C5F",
"9 	c #AD282B",
"0 	c #A5292D",
"a 	c #65171A",
"b 	c #744C4D",
"c 	c #D7ACAC",
"d 	c #EED7D8",
"e 	c #DCDCDB",
"f 	c #AC8E8E",
"g 	c #BB8186",
"h 	c #94797D",
"i 	c #526E93",
"j 	c #9598A0",
"k 	c #7F7376",
"l 	c #A5686F",
"m 	c #9A5860",
"n 	c #723033",
"o 	c #755E60",
"p 	c #B67A7E",
"q 	c #DAA9AB",
"r 	c #F0E3E3",
"s 	c #DEC6C7",
"t 	c #AE8187",
"u 	c #998A90",
"v 	c #7F7F84",
"w 	c #7B6F74",
"x 	c #8A808A",
"y 	c #A3A8AD",
"z 	c #828588",
"A 	c #525556",
"B 	c #3B3D41",
"C 	c #54494B",
"D 	c #878C86",
"E 	c #95776F",
"F 	c #C87E81",
"G 	c #D7A9AA",
"H 	c #A1787D",
"I 	c #9C9EA0",
"J 	c #7C8083",
"K 	c #777C81",
"L 	c #68696E",
"M 	c #646E7D",
"N 	c #A9ADB0",
"O 	c #A1A5A9",
"P 	c #8A8F94",
"Q 	c #75797D",
"R 	c #9A9B95",
"S 	c #90A081",
"T 	c #8E9083",
"U 	c #A4877E",
"V 	c #CC9B9C",
"W 	c #E0C1C3",
"X 	c #ADACAD",
"Y 	c #92989E",
"Z 	c #575C5F",
"` 	c #6B6D6F",
" .	c #969A9E",
"..	c #ACB0B3",
"+.	c #C3C9CC",
"@.	c #868B91",
"#.	c #8A8E8F",
"$.	c #8A8A83",
"%.	c #696A58",
"&.	c #8A8C86",
"*.	c #8A5851",
"=.	c #B27072",
"-.	c #E0E0E0",
";.	c #77797A",
">.	c #656869",
",.	c #5F6264",
"'.	c #5E6062",
").	c #898C90",
"!.	c #8E9398",
"~.	c #8E9298",
"{.	c #828689",
"].	c #666A68",
"^.	c #868B89",
"/.	c #585A56",
"(.	c #4C4D4B",
"_.	c #252625",
":.	c #DDC9C9",
"<.	c #BAB9B5",
"[.	c #6B6D6E",
"}.	c #43474A",
"|.	c #2A2C2B",
"1.	c #7C7E7F",
"2.	c #666867",
"3.	c #8B8E90",
"4.	c #787B7D",
"5.	c #7E8383",
"6.	c #5A6964",
"7.	c #454847",
"8.	c #333533",
"9.	c #1C1E1D",
"0.	c #D4D4D4",
"a.	c #696B6C",
"b.	c #535657",
"c.	c #7B7C7D",
"d.	c #636565",
"e.	c #898D90",
"f.	c #454747",
"g.	c #8B8B89",
"h.	c #686B6A",
"i.	c #66696A",
"j.	c #6C6D6A",
"k.	c #545555",
"l.	c #D6D7D7",
"m.	c #B4B5B4",
"n.	c #BDBDBC",
"o.	c #8B8D8E",
"p.	c #696C6C",
"q.	c #A5A8AC",
"r.	c #878A8C",
"s.	c #919394",
"t.	c #636260",
"u.	c #575958",
"v.	c #999B9B",
"w.	c #828584",
"x.	c #D1D2D3",
"y.	c #B2B3B4",
"z.	c #888989",
"A.	c #959798",
"B.	c #999EA1",
"C.	c #999D9F",
"D.	c #808281",
"E.	c #BFC0C1",
"F.	c #ADB1B6",
"G.	c #E5E8EC",
"H.	c #B7B8B7",
"I.	c #A7ADB3",
"J.	c #E3E8ED",
"K.	c #D5D9DE",
"L.	c #B4B5B5",
"M.	c #CFCFCF",
"N.	c #E2E3E5",
"O.	c #E0E2E6",
"          . + @ # $ %           ",
"        & * = - ; > , '         ",
"        ) ! ~ { ] ^ /           ",
"          ( _ : < [ } | 1       ",
"  2 3 4 5 6 7 8 9 0 a b c d     ",
"  e f g h i j k l m n o p q r   ",
"  s t u v w x y z A B C D E F   ",
"G H I J K L M N O P Q R S T U V ",
"W X Y P Z `  ...+.@.#.$.%.&.*.=.",
"  -.;.>.,.'.).!.~.{.].^./.(._.:.",
"    <.[.}.|.1.2.3.4.5.6.7.8.9.  ",
"      0.a.b.c.d.e.f.g.h.i.j.k.l.",
"      m.n.o.p.q.r.s.t.u.v.w.x.  ",
"          y.z.A.B.C.D.E.F.G.    ",
"            H.I.J.K.L.M.        ",
"              N.O.              "};
