/* XPM */
static char * optimization32_xpm[] = {
"32 32 194 2",
"  	c None",
". 	c #808080",
"+ 	c #8A1500",
"@ 	c #9C2E00",
"# 	c #AA4A38",
"$ 	c #872F00",
"% 	c #A73800",
"& 	c #D11C00",
"* 	c #F80300",
"= 	c #DC2000",
"- 	c #C02810",
"; 	c #9C2017",
"> 	c #B12000",
", 	c #DC1500",
"' 	c #CE2300",
") 	c #B83100",
"! 	c #BC3100",
"~ 	c #A01C00",
"{ 	c #C04021",
"] 	c #C6200E",
"^ 	c #EA1100",
"/ 	c #BF2A00",
"( 	c #C03800",
"_ 	c #B84000",
": 	c #AE4700",
"< 	c #BC4E00",
"[ 	c #B84700",
"} 	c #B64900",
"| 	c #A72727",
"1 	c #DC1C00",
"2 	c #B14000",
"3 	c #B15C00",
"4 	c #BC5800",
"5 	c #BC6000",
"6 	c #B86000",
"7 	c #B1A000",
"8 	c #C09100",
"9 	c #B17500",
"0 	c #B1A038",
"a 	c #932700",
"b 	c #C04000",
"c 	c #B14E00",
"d 	c #B85C00",
"e 	c #BC8300",
"f 	c #BC8A00",
"g 	c #B88A00",
"h 	c #B89800",
"i 	c #C0A000",
"j 	c #B8A700",
"k 	c #B7AF10",
"l 	c #B3B34E",
"m 	c #AE600E",
"n 	c #B16000",
"o 	c #BC7500",
"p 	c #AE7500",
"q 	c #B18300",
"r 	c #B1A700",
"s 	c #B1B100",
"t 	c #B8C000",
"u 	c #B8B800",
"v 	c #CED100",
"w 	c #B1C300",
"x 	c #CEBF00",
"y 	c #AFC500",
"z 	c #AE6000",
"A 	c #C09800",
"B 	c #BCA000",
"C 	c #AEA000",
"D 	c #C7B800",
"E 	c #C7C700",
"F 	c #CEC700",
"G 	c #CECE00",
"H 	c #D5D100",
"I 	c #C7D100",
"J 	c #DCD500",
"K 	c #C0D100",
"L 	c #C0C31C",
"M 	c #C7AA00",
"N 	c #B1B800",
"O 	c #B5AA00",
"P 	c #BCB100",
"Q 	c #C7C000",
"R 	c #A3B800",
"S 	c #BCC307",
"T 	c #DFD115",
"U 	c #B8B531",
"V 	c #C7B523",
"W 	c #BCC72A",
"X 	c #BCC000",
"Y 	c #BCB800",
"Z 	c #BCC700",
"` 	c #B8BC00",
" .	c #B8B355",
"..	c #B1B500",
"+.	c #C7CE00",
"@.	c #C0C000",
"#.	c #CACE00",
"$.	c #EDF100",
"%.	c #E3D400",
"&.	c #EADC00",
"*.	c #DCE30E",
"=.	c #C6D40E",
"-.	c #B5C307",
";.	c #BCB515",
">.	c #B8B523",
",.	c #C7B515",
"'.	c #DFD40E",
").	c #DFDC00",
"!.	c #C3C71C",
"~.	c #D1C71C",
"{.	c #D2E921",
"].	c #78AC58",
"^.	c #C7C080",
"/.	c #C0C307",
"(.	c #DCDF07",
"_.	c #C0AC31",
":.	c #D3ACA7",
"<.	c #CCD331",
"[.	c #DCD50E",
"}.	c #CEBF38",
"|.	c #B8B838",
"1.	c #AAC055",
"2.	c #CDDC23",
"3.	c #CDDC31",
"4.	c #B5C038",
"5.	c #AEC040",
"6.	c #BCC05C",
"7.	c #A7B840",
"8.	c #A9B661",
"9.	c #A0C058",
"0.	c #9CC340",
"a.	c #CBC810",
"b.	c #C0CB47",
"c.	c #C0B155",
"d.	c #A3B171",
"e.	c #B1B855",
"f.	c #A3B16A",
"g.	c #B1B178",
"h.	c #A7C071",
"i.	c #AEB178",
"j.	c #A0B178",
"k.	c #91C06A",
"l.	c #20AA95",
"m.	c #82B797",
"n.	c #78B580",
"o.	c #93A780",
"p.	c #91C063",
"q.	c #7CB163",
"r.	c #6AB880",
"s.	c #78B880",
"t.	c #8ABC80",
"u.	c #67B580",
"v.	c #78C080",
"w.	c #88C080",
"x.	c #60B180",
"y.	c #5CB180",
"z.	c #4EB19C",
"A.	c #60BC80",
"B.	c #4AA780",
"C.	c #47B19C",
"D.	c #B3C0A7",
"E.	c #78A08E",
"F.	c #69A890",
"G.	c #2ABFCE",
"H.	c #15F1E2",
"I.	c #1CD4E3",
"J.	c #40C6B8",
"K.	c #B5A0C0",
"L.	c #9AB3A7",
"M.	c #00DCDC",
"N.	c #00E9F1",
"O.	c #00D4E3",
"P.	c #5FD9EA",
"Q.	c #24DEE6",
"R.	c #009CB1",
"S.	c #00AEB8",
"T.	c #00C3D4",
"U.	c #07AABF",
"V.	c #3DA0B9",
"W.	c #0087A3",
"X.	c #00839C",
"Y.	c #007C9C",
"Z.	c #2A95B1",
"`.	c #749797",
" +	c #23789C",
".+	c #0020DB",
"++	c #006080",
"@+	c #4955B4",
"#+	c #000AEA",
"$+	c #4F589E",
"%+	c #000EC6",
"&+	c #0000C6",
"*+	c #0017AF",
"=+	c #1C1C9C",
"                                                                ",
"                                                                ",
"                                                                ",
"                                                                ",
"                          .                                     ",
"                          .                                     ",
"                    + + @ #                                     ",
"                  $ % & * = -                                   ",
"                ; > , ' ) ) ! ~ {                               ",
"                ] ^ / ( _ _ : < [ }                             ",
"              | 1 ( 2 3 4 5 6 6 7 8 9 0                         ",
"              a b c d d e f g h i i j j k l                     ",
"              m n 6 o p q r s s t u v w x x y                   ",
"              z g A B C 7 r D E F G H I J J K L                 ",
"            0 7 M N O P N Q u R S T U V W X Y Z `  .            ",
"            ....+.@.#.$.%.&.*.=.-.;.>.,.'.).!.~.{.  ].          ",
"          ^./.(._.:.  <.[.}.|.1.2.3.4.4.5.6.7.8.                ",
"          9.0.a.        b.c.d.e.f.g.h.h.i.j.k.        l.        ",
"        m.n.              o.p.q.r.s.t.u.r.r.v.                  ",
"                          . w.x.y.z.A.B.C.C.D.          E.      ",
"                          .   F.G.G.H.H.I.J.            K.      ",
"                          .   L.M.M.N.N.O.P.                    ",
"                          .     Q.R.S.T.U.                      ",
"                          .     V.W.X.Y.Z.                      ",
"                          .     `. +.+.+++                      ",
"                . . .             @+#+#+$+. . .                 ",
"          . . .                     %+&+        . . . . .       ",
"  . .                               *+=+                        ",
"                                                                ",
"                                                                ",
"                                                                ",
"                                                                "};
