/* XPM */
static const char * ortho32_xpm[] = {
"48 48 37 1",
" 	c None",
".	c #000000",
"+	c #030000",
"@	c #170000",
"#	c #FF0000",
"$	c #1B0000",
"%	c #CA0000",
"&	c #F70000",
"*	c #EB0000",
"=	c #EC0000",
"-	c #F10000",
";	c #0F0000",
">	c #8C0000",
",	c #450000",
"'	c #EA0000",
")	c #ED0000",
"!	c #FA0000",
"~	c #750000",
"{	c #A70000",
"]	c #F80000",
"^	c #C80000",
"/	c #200000",
"(	c #A90000",
"_	c #120000",
":	c #F40000",
"<	c #E30000",
"[	c #B90000",
"}	c #1D0000",
"|	c #210000",
"1	c #190000",
"2	c #E40000",
"3	c #BA0000",
"4	c #AF0000",
"5	c #460000",
"6	c #740000",
"7	c #E20000",
"8	c #230000",
"                                                ",
"                                                ",
"                                                ",
"                                                ",
"                                                ",
"                                                ",
"                                                ",
"                                                ",
"                                                ",
"                                                ",
"                     ..................         ",
"                   ....................         ",
"                 ...+@###########$.....         ",
"                ....%&*=======-#;...>..         ",
"               ...,#'=======)!~...,#{..         ",
"             ....~]*======='^/...~]*(..         ",
"            ..._#!::::::::<[...;#-==(..         ",
"          .....}/|||||||||1...[2*===(..         ",
"          ................../^'=====(..         ",
"          ..3((((((((((((3..#)======(..         ",
"          ..#============#..#=======(..         ",
"          ..#============#..#=======(..         ",
"          ..#============#..#=======(..         ",
"          ..#============#..#=======(..         ",
"          ..#============#..#=======(..         ",
"          ..#============#..#=======(..         ",
"          ..#============#..#======*4..         ",
"          ..#============#..#=====-#;..         ",
"          ..#============#..#===*]~....         ",
"          ..#============#..#===]5...           ",
"          ..#============#..#=)!6...            ",
"          ..#============#..#'^/...             ",
"          ..#============#..#%....              ",
"          ..#============#..7...                ",
"          ..#::::::::::::#.....                 ",
"          ..8||||||||||||8....                  ",
"          ...................                   ",
"                                                ",
"                                                ",
"                                                ",
"                                                ",
"                                                ",
"                                                ",
"                                                ",
"                                                ",
"                                                ",
"                                                ",
"                                                "};
