/* XPM */
static const char * perspective32_xpm[] = {
"48 48 45 1",
" 	c None",
".	c #000000",
"+	c #200000",
"@	c #C70000",
"#	c #FF0000",
"$	c #C00000",
"%	c #1C0000",
"&	c #100000",
"*	c #AA0000",
"=	c #FA0000",
"-	c #ED0000",
";	c #EC0000",
">	c #F80000",
",	c #460000",
"'	c #860000",
")	c #190000",
"!	c #1D0000",
"~	c #EB0000",
"{	c #EF0000",
"]	c #B70000",
"^	c #780000",
"/	c #420000",
"(	c #B90000",
"_	c #E30000",
":	c #F40000",
"<	c #EA0000",
"[	c #CA0000",
"}	c #0F0000",
"|	c #F20000",
"1	c #070000",
"2	c #260000",
"3	c #470000",
"4	c #030000",
"5	c #170000",
"6	c #240000",
"7	c #210000",
"8	c #F70000",
"9	c #C80000",
"0	c #BA0000",
"a	c #A90000",
"b	c #C90000",
"c	c #F10000",
"d	c #790000",
"e	c #1B0000",
"f	c #230000",
"                                                ",
"                                                ",
"                                                ",
"                                                ",
"                                                ",
"                                                ",
"                                                ",
"                                                ",
"                                                ",
"                                                ",
"                          ............          ",
"                       ...............          ",
"                      ....+@####$%....          ",
"                   .....&*=-;;>,...'..          ",
"                 ....)!@#~;;{]^..)/#..          ",
"              ......(_:-;;;<[...}~|#..          ",
"             ...123#|:::::_(..45#~;#..          ",
"          ......1267777777)...[8~;;#..          ",
"          ..................+9<;;;-@..          ",
"          ..0aaaaaaaaaaaa0..#-;;;;=+..          ",
"          ..#;;;;;;;;;;;;#..#;;;;~*..           ",
"          ..#;;;;;;;;;;;;#..#;;;;#&..           ",
"          ..#;;;;;;;;;;;;#..#;;;{b...           ",
"          ..#;;;;;;;;;;;;#..#;;;]...            ",
"          ..#;;;;;;;;;;;;#..#;;cd..             ",
"          ..#;;;;;;;;;;;;#..#;~#...             ",
"          ..#;;;;;;;;;;;;#..#;85..              ",
"          ..#;;;;;;;;;;;;#..#<[4.               ",
"          ..#;;;;;;;;;;;;#..##...               ",
"          ..#;;;;;;;;;;;;#..#/..                ",
"          ..#;;;;;;;;;;;;#..#)..                ",
"          ..#;;;;;;;;;;;;#..e..                 ",
"          ..#;;;;;;;;;;;;#.....                 ",
"          ..#;;;;;;;;;;;;#....                  ",
"          ..#::::::::::::#...                   ",
"          ..f777777777777f...                   ",
"          ...................                   ",
"                                                ",
"                                                ",
"                                                ",
"                                                ",
"                                                ",
"                                                ",
"                                                ",
"                                                ",
"                                                ",
"                                                ",
"                                                "};
