/* XPM */
static const char * perspective16_xpm[] = {
"16 16 53 1",
" 	c None",
".	c #000000",
"+	c #020000",
"@	c #200000",
"#	c #9D0000",
"$	c #FF0000",
"%	c #E90000",
"&	c #320000",
"*	c #110000",
"=	c #560000",
"-	c #B70000",
";	c #E60000",
">	c #900000",
",	c #2E0000",
"'	c #F10000",
")	c #2A0000",
"!	c #A20000",
"~	c #AD0000",
"{	c #A50000",
"]	c #A80000",
"^	c #570000",
"/	c #5F0000",
"(	c #430000",
"_	c #3F0000",
":	c #3D0000",
"<	c #3A0000",
"[	c #340000",
"}	c #C50000",
"|	c #EE0000",
"1	c #9C0000",
"2	c #F90000",
"3	c #D70000",
"4	c #030000",
"5	c #EB0000",
"6	c #EF0000",
"7	c #180000",
"8	c #EC0000",
"9	c #CC0000",
"0	c #F00000",
"a	c #860000",
"b	c #F50000",
"c	c #0B0000",
"d	c #620000",
"e	c #DF0000",
"f	c #060000",
"g	c #090000",
"h	c #3E0000",
"i	c #CF0000",
"j	c #0E0000",
"k	c #880000",
"l	c #7C0000",
"m	c #6E0000",
"n	c #080000",
"                ",
"        ....... ",
"      .+@#$%&*. ",
"    ..=-;$>+,'. ",
"  ..)!~{]^./$$. ",
" .(_:<<<[.}||1. ",
" .$2222234$567. ",
" .$888889+$0a.  ",
" .$888889+$bc   ",
" .$888889+$d.   ",
" .$888889+ef    ",
" .$888889gh.    ",
" .$00000ij.     ",
" .klllllmn.     ",
" .........      ",
"                "};
